<svg fill="none" height="256" viewBox="0 0 256 256" width="256" xmlns="http://www.w3.org/2000/svg" xmlns:xlink="http://www.w3.org/1999/xlink"><linearGradient id="a" gradientUnits="userSpaceOnUse" x1="215.809" x2="52.7364" y1="34.5601" y2="226.817"><stop offset="0" stop-color="#b6509e"/><stop offset="1" stop-color="#2ebac6"/></linearGradient><clipPath id="b"><path d="m0 0h256v256h-256z"/></clipPath><mask id="c" height="197" maskUnits="userSpaceOnUse" width="196" x="30" y="30"><path d="m30 30h196v196.683h-196z" fill="#fff"/></mask><g clip-path="url(#b)"><path d="m128 256.001c70.693 0 128-57.308 128-128 0-70.6929-57.307-128.00040491-128-128.00040491-70.692 0-127.99951172 57.30750491-127.99951172 128.00040491 0 70.692 57.30751172 128 127.99951172 128z" fill="#fff"/><path d="m128 256.001c-8.665.002-17.309-.869-25.8-2.6-16.3726-3.354-31.9251-9.899-45.7695-19.261-20.5794-13.892-36.6884-33.454-46.375-56.315-3.27172-7.743-5.7689-15.79-7.45505-24.024-3.467267-17.023-3.467267-34.57 0-51.593 3.35349-16.3734 9.89795-31.9258 19.26005-45.7704 13.8919-20.5805 33.4544-36.6906 56.317-46.378 7.7418-3.27315 15.7887-5.77167 24.0225-7.45901 17.023-3.467455 34.571-3.467455 51.593 0 16.373 3.35345 31.926 9.89791 45.77 19.26001 20.58 13.8919 36.689 33.454 46.375 56.316 3.275 7.7421 5.774 15.7893 7.462 24.0244 3.468 17.022 3.468 34.57 0 51.593-3.353 16.373-9.897 31.925-19.26 45.77-13.892 20.578-33.454 36.687-56.316 46.375-7.742 3.273-15.789 5.773-24.024 7.462-8.49 1.731-17.134 2.602-25.8 2.6zm0-242.2874c-7.736-.0017-15.452.7762-23.033 2.322-14.6187 2.9939-28.5052 8.8374-40.8666 17.197-18.372 12.405-32.7527 29.8713-41.3999 50.283-2.9223 6.9133-5.1529 14.0991-6.659 21.4524-3.0959 15.199-3.0959 30.866 0 46.065 2.995 14.619 8.8395 28.505 17.2 40.866 12.4039 18.374 29.8698 32.757 50.282 41.407 6.9138 2.921 14.0998 5.151 21.4525 6.658 15.199 3.096 30.867 3.096 46.065 0 14.62-2.994 28.506-8.839 40.866-17.2 18.369-12.405 32.747-29.869 41.393-50.278 2.923-6.914 5.153-14.1 6.659-21.453 3.096-15.199 3.096-30.866 0-46.065-2.995-14.6191-8.839-28.5049-17.2-40.8654-12.402-18.3715-29.865-32.7528-50.274-41.402-6.913-2.9221-14.099-5.1526-21.453-6.659-7.579-1.5474-15.296-2.327-23.032-2.327z" fill="url(#a)"/><path d="m155.029 143.561c0-14.333-8.601-19.247-25.801-21.294-12.286-1.638-14.745-4.914-14.745-10.648s4.1-9.419 12.286-9.419c7.371 0 11.466 2.457 13.513 8.6.212.593.6 1.107 1.112 1.473.513.366 1.126.566 1.756.574h6.552c.378.009.755-.059 1.107-.2s.672-.351.94-.619.479-.588.62-.94.209-.728.2-1.107v-.41c-.793-4.439-3.03-8.49-6.362-11.5267-3.333-3.0362-7.575-4.8866-12.068-5.2637v-9.828c0-1.638-1.229-2.867-3.276-3.277h-6.143c-1.638 0-2.866 1.229-3.276 3.277v9.419c-12.286 1.638-20.066 9.8294-20.066 20.0674 0 13.514 8.189 18.837 25.389 20.886 11.467 2.047 15.153 4.5 15.153 11.057s-5.733 11.057-13.513 11.057c-10.648 0-14.334-4.505-15.562-10.648-.123-.677-.475-1.291-.997-1.738-.522-.448-1.182-.702-1.87-.719h-6.962c-.379-.009-.756.059-1.108.199-.352.141-.672.352-.94.62-.267.268-.478.588-.619.94s-.209.729-.199 1.108v.41c1.637 10.237 8.19 17.609 21.7 19.657v9.829c0 1.637 1.229 2.866 3.276 3.276h6.143c1.638 0 2.866-1.229 3.276-3.276v-9.829c12.286-2.048 20.477-10.648 20.477-21.705z" fill="#fff"/><path d="m107.114 186.562c-11.785-4.32-21.9597-12.155-29.1477-22.446-7.188-10.29-11.0426-22.54-11.0426-35.092s3.8546-24.802 11.0426-35.0921c7.188-10.2905 17.3627-18.1254 29.1477-22.4453.786-.342 1.446-.9211 1.886-1.6562.441-.7351.64-1.5896.571-2.4438v-5.733c.056-.7509-.162-1.4965-.614-2.0989-.451-.6023-1.106-1.0205-1.843-1.1771-.577-.0606-1.157.0842-1.638.409-14.9089 4.738-27.9237 14.0976-37.16 26.7242-9.2362 12.6265-14.2147 27.8652-14.2147 43.5092s4.9785 30.882 14.2147 43.508c9.2363 12.627 22.2511 21.987 37.16 26.725.341.197.723.311 1.116.332.393.022.786-.051 1.146-.21.359-.16.676-.403.924-.709.247-.306.419-.666.5-1.051.41-.409.41-.819.41-1.637v-5.734c-.001-1.225-1.23-2.863-2.458-3.682zm43.406-127.7714c-.34-.1976-.722-.3116-1.115-.3328s-.786.0511-1.146.2109c-.359.1598-.676.4027-.924.7086-.247.3059-.419.6662-.501 1.0513-.41.41-.41.819-.41 1.638v5.733c.07.8255.328 1.6241.754 2.3348.426.7106 1.008 1.3144 1.703 1.7652 11.786 4.3199 21.961 12.1548 29.149 22.4452 7.188 10.2902 11.042 22.5402 11.042 35.0922s-3.854 24.802-11.042 35.092c-7.188 10.291-17.363 18.126-29.149 22.446-.785.342-1.445.921-1.885 1.656-.441.735-.64 1.589-.572 2.444v5.733c-.055.75.163 1.496.614 2.098.452.603 1.107 1.021 1.843 1.178.578.06 1.158-.085 1.638-.409 14.902-4.806 27.896-14.213 37.113-26.87s14.183-27.911 14.183-43.568c0-15.658-4.966-30.9116-14.183-43.5684-9.217-12.6569-22.211-22.0645-37.113-26.87z" fill="#fff"/><g mask="url(#c)"><path d="m226 128.342c0 54.312-43.876 98.341-98 98.341-54.1241 0-98-44.029-98-98.341 0-54.3132 43.8759-98.342 98-98.342 54.124 0 98 44.0288 98 98.342z" fill="#e84142"/></g><g fill="#fff"><path d="m96.8725 178.521h-20.7812c-2.6422.349-5.3296.06-7.8367-.844-.6941-.451-1.2725-1.059-1.6884-1.774-.4159-.716-.6577-1.519-.7059-2.346-.0772-1.544.999-3.444 3.1564-7.208l51.3043-90.4313c2.183-3.8411 3.29-5.7616 4.68-6.4722.742-.3763 1.562-.5724 2.394-.5724s1.653.1961 2.395.5724c1.395.7106 2.497 2.6311 4.68 6.4722l10.545 18.4128c1.75 2.6329 3.136 5.4908 4.119 8.4955.579 2.403.579 4.909 0 7.312-.979 3.006-2.365 5.865-4.119 8.496l-26.949 47.638c-1.396 2.889-3.184 5.571-5.314 7.97-1.804 1.727-3.995 2.998-6.39 3.707-3.126.593-6.315.785-9.4895.572z"/><path d="m179.121 178.526h-29.777c-2.658.353-5.363.065-7.888-.839-.696-.458-1.275-1.072-1.691-1.793-.416-.722-.656-1.531-.703-2.363-.077-1.544 1.03-3.444 3.233-7.259l14.861-25.514c2.183-3.758 3.29-5.627 4.633-6.338.738-.376 1.554-.573 2.382-.573s1.644.197 2.381.573c1.395.711 2.472 2.575 4.681 6.313l14.932 25.513c2.208 3.815 3.341 5.71 3.259 7.26-.041.833-.28 1.644-.696 2.366-.416.723-.998 1.336-1.698 1.789-2.527.928-5.242 1.225-7.909.865z"/></g></g></svg>