<svg width="256" height="256" viewBox="0 0 256 256" fill="none" xmlns="http://www.w3.org/2000/svg">
<g clip-path="url(#clip0)">
<path d="M128 256C198.692 256 256 198.692 256 128C256 57.3075 198.692 0 128 0C57.3075 0 0 57.3075 0 128C0 198.692 57.3075 256 128 256Z" fill="white"/>
<path d="M128 256C119.334 256.002 110.691 255.131 102.2 253.4C85.8269 250.046 70.2744 243.501 56.43 234.139C35.8506 220.247 19.7416 200.686 10.055 177.824C6.78329 170.082 4.28611 162.034 2.59996 153.8C-0.867305 136.777 -0.867305 119.23 2.59996 102.207C5.95345 85.834 12.4979 70.2816 21.86 56.437C35.7519 35.8565 55.3144 19.7464 78.177 10.059C85.9188 6.78586 93.9657 4.28733 102.2 2.6C119.223 -0.86746 136.77 -0.86746 153.793 2.6C170.166 5.95344 185.718 12.4979 199.563 21.86C220.142 35.7519 236.251 55.314 245.938 78.176C249.212 85.9181 251.712 93.9653 253.4 102.2C256.867 119.223 256.867 136.77 253.4 153.793C250.047 170.166 243.502 185.719 234.14 199.563C220.247 220.142 200.686 236.251 177.824 245.938C170.082 249.212 162.035 251.711 153.8 253.4C145.309 255.131 136.665 256.002 128 256ZM128 13.713C120.264 13.7113 112.547 14.4892 104.967 16.035C90.3478 19.0289 76.4613 24.8724 64.1 33.232C45.7279 45.637 31.3473 63.1033 22.7 83.515C19.7777 90.4284 17.5471 97.6141 16.041 104.967C12.9451 120.166 12.9451 135.833 16.041 151.032C19.036 165.651 24.8805 179.537 33.241 191.898C45.6449 210.272 63.1108 224.655 83.523 233.305C90.4368 236.227 97.6228 238.457 104.976 239.963C120.175 243.059 135.842 243.059 151.041 239.963C165.66 236.969 179.547 231.125 191.907 222.763C210.276 210.358 224.654 192.894 233.3 172.485C236.222 165.571 238.453 158.385 239.959 151.032C243.055 135.833 243.055 120.166 239.959 104.967C236.964 90.3483 231.119 76.4625 222.759 64.102C210.357 45.7305 192.894 31.3492 172.485 22.7C165.571 19.7779 158.385 17.5474 151.032 16.041C143.452 14.4936 135.736 13.714 128 13.714V13.713Z" fill="url(#paint0_linear)"/>
<path d="M155.028 143.56C155.028 129.227 146.428 124.313 129.228 122.266C116.942 120.628 114.482 117.352 114.482 111.618C114.482 105.884 118.582 102.199 126.768 102.199C134.139 102.199 138.235 104.656 140.282 110.799C140.493 111.392 140.881 111.907 141.394 112.273C141.907 112.639 142.519 112.839 143.149 112.846H149.701C150.08 112.855 150.457 112.787 150.809 112.647C151.161 112.506 151.48 112.295 151.748 112.027C152.016 111.759 152.227 111.439 152.368 111.088C152.509 110.736 152.577 110.359 152.568 109.98V109.57C151.775 105.132 149.539 101.08 146.206 98.0437C142.874 95.0075 138.632 93.1571 134.139 92.78V82.952C134.139 81.314 132.91 80.085 130.863 79.675H124.72C123.082 79.675 121.853 80.904 121.443 82.952V92.371C109.157 94.009 101.377 102.2 101.377 112.438C101.377 125.952 109.567 131.275 126.767 133.324C138.234 135.371 141.92 137.824 141.92 144.381C141.92 150.938 136.186 155.438 128.406 155.438C117.758 155.438 114.072 150.933 112.844 144.79C112.721 144.113 112.37 143.5 111.848 143.052C111.326 142.605 110.665 142.351 109.978 142.333H103.015C102.636 142.324 102.259 142.392 101.907 142.533C101.556 142.674 101.236 142.885 100.968 143.153C100.7 143.421 100.489 143.74 100.348 144.092C100.208 144.444 100.14 144.821 100.149 145.2V145.61C101.786 155.847 108.339 163.219 121.849 165.267V175.096C121.849 176.733 123.078 177.962 125.125 178.372H131.268C132.906 178.372 134.135 177.143 134.545 175.096V165.267C146.831 163.219 155.021 154.619 155.021 143.562L155.028 143.56Z" fill="white"/>
<path d="M107.114 186.561C95.3285 182.241 85.1538 174.406 77.9658 164.116C70.7778 153.825 66.9232 141.576 66.9232 129.024C66.9232 116.471 70.7778 104.222 77.9658 93.9313C85.1538 83.6408 95.3285 75.806 107.114 71.486C107.9 71.144 108.559 70.5649 109 69.8298C109.44 69.0947 109.64 68.2402 109.571 67.386V61.653C109.627 60.9021 109.409 60.1565 108.957 59.5542C108.505 58.9518 107.85 58.5336 107.114 58.377C106.537 58.3164 105.957 58.4612 105.476 58.786C90.5666 63.524 77.5518 72.8836 68.3155 85.5102C59.0793 98.1367 54.1008 113.375 54.1008 129.019C54.1008 144.663 59.0793 159.901 68.3155 172.528C77.5518 185.154 90.5666 194.514 105.476 199.252C105.816 199.45 106.199 199.564 106.592 199.585C106.985 199.606 107.377 199.534 107.737 199.374C108.097 199.214 108.413 198.971 108.661 198.665C108.909 198.359 109.08 197.999 109.162 197.614C109.572 197.205 109.572 196.795 109.572 195.977V190.243C109.571 189.018 108.342 187.38 107.114 186.561ZM150.52 58.79C150.18 58.5924 149.797 58.4784 149.404 58.4572C149.011 58.436 148.619 58.5083 148.259 58.6681C147.899 58.828 147.582 59.0708 147.335 59.3767C147.087 59.6826 146.915 60.0429 146.834 60.428C146.424 60.838 146.424 61.247 146.424 62.066V67.799C146.494 68.6245 146.751 69.4231 147.177 70.1338C147.603 70.8444 148.186 71.4482 148.881 71.899C160.666 76.2189 170.841 84.0538 178.029 94.3443C185.217 104.635 189.072 116.884 189.072 129.437C189.072 141.989 185.217 154.238 178.029 164.529C170.841 174.819 160.666 182.654 148.881 186.974C148.095 187.316 147.436 187.895 146.995 188.63C146.555 189.365 146.355 190.22 146.424 191.074V196.807C146.368 197.558 146.586 198.304 147.038 198.906C147.49 199.508 148.145 199.926 148.881 200.083C149.458 200.144 150.038 199.999 150.519 199.674C165.421 194.869 178.414 185.461 187.631 172.804C196.848 160.147 201.814 144.893 201.814 129.236C201.814 113.579 196.848 98.3248 187.631 85.668C178.414 73.0111 165.421 63.6035 150.519 58.798L150.52 58.79Z" fill="white"/>
<mask id="mask0" mask-type="alpha" maskUnits="userSpaceOnUse" x="30" y="30" width="196" height="197">
<path d="M30 30H226V226.683H30V30Z" fill="white"/>
</mask>
<g mask="url(#mask0)">
<path d="M226 128.342C226 182.654 182.124 226.683 128 226.683C73.8759 226.683 30 182.654 30 128.342C30 74.0288 73.8759 30 128 30C182.124 30 226 74.0288 226 128.342Z" fill="#8150E6"/>
</g>
<path d="M222.338 155.059L152.567 86.1611L112.809 78.7119L89.5408 166.573L148.252 224.575C183.972 217.043 212.532 189.995 222.338 155.059Z" fill="#3C176B"/>
<path d="M119.54 158.872V104.505H133.232C137.835 104.505 142.061 105.091 145.913 106.264C149.762 107.436 153.096 109.26 155.914 111.735C156.3 112.074 156.672 112.431 157.036 112.8C157.083 105.43 154.424 98.0864 150.66 91.4452C146.483 90.2596 142.184 89.6558 137.757 89.6558H104.538V158.804C109.586 158.861 114.516 159.273 119.54 158.872Z" fill="#6B42BD"/>
<path d="M177.048 115.381C174.666 109.607 171.491 104.81 167.523 100.988C163.553 97.1674 158.989 94.3245 153.83 92.456C152.782 92.0764 151.724 91.7463 150.66 91.4444C154.424 98.0855 157.083 105.429 157.036 112.799C159.321 115.114 160.781 124.093 162.151 127.538L119.54 166.575V158.871C114.516 159.272 109.586 158.861 104.538 158.803V181.423H135.971C141.05 181.423 146.229 180.492 151.508 178.623C156.786 176.757 161.588 173.934 165.915 170.156C170.241 166.379 173.773 161.604 176.512 155.828C179.25 150.054 180.62 143.215 180.62 135.312C180.62 127.497 179.429 121.157 177.048 115.381Z" fill="#9B74EC"/>
<path d="M115.732 151.705C120.415 151.705 124.841 151.119 129.008 149.947C133.175 148.774 136.807 146.95 139.902 144.476C142.998 142.001 145.439 138.789 147.225 134.836C149.011 130.886 149.904 126.089 149.904 120.443C149.904 114.887 149.109 110.565 147.522 106.569C145.934 102.576 143.731 99.3399 140.914 96.8649C138.096 94.3898 134.762 92.5661 130.913 91.3942C127.062 90.2217 122.835 89.6358 118.232 89.6358H104.541V151.705H115.732ZM89.5383 74.7862H122.757C128.312 74.7862 133.67 75.7201 138.831 77.5865C143.989 79.455 148.553 82.298 152.523 86.1188C156.492 89.9411 159.667 94.7378 162.048 100.512C164.43 106.288 165.62 112.628 165.62 120.443C165.62 128.346 164.251 135.184 161.512 140.958C158.774 146.735 155.241 151.509 150.916 155.287C146.589 159.065 141.787 161.887 136.509 163.754C131.229 165.622 126.05 166.555 120.971 166.555H89.5383V74.7862Z" fill="white"/>
</g>
<defs>
<linearGradient id="paint0_linear" x1="215.808" y1="34.5595" x2="52.7359" y2="226.816" gradientUnits="userSpaceOnUse">
<stop stop-color="#B6509E"/>
<stop offset="1" stop-color="#2EBAC6"/>
</linearGradient>
<clipPath id="clip0">
<rect width="256" height="256" fill="white"/>
</clipPath>
</defs>
</svg>
