<svg width="256" height="256" viewBox="0 0 256 256" fill="none" xmlns="http://www.w3.org/2000/svg">
<g clip-path="url(#clip0_1809_1940)">
<path d="M128 256C198.692 256 256 198.692 256 128C256 57.3075 198.692 0 128 0C57.3075 0 0 57.3075 0 128C0 198.692 57.3075 256 128 256Z" fill="white"/>
<path d="M128 256C119.334 256.002 110.691 255.131 102.2 253.4C85.8269 250.046 70.2744 243.501 56.43 234.139C35.8506 220.247 19.7416 200.686 10.055 177.824C6.78329 170.082 4.28611 162.034 2.59996 153.8C-0.867305 136.777 -0.867305 119.23 2.59996 102.207C5.95345 85.834 12.4979 70.2816 21.86 56.437C35.7519 35.8564 55.3144 19.7464 78.177 10.059C85.9188 6.78584 93.9657 4.28732 102.2 2.59998C119.223 -0.867475 136.77 -0.867475 153.793 2.59998C170.166 5.95343 185.718 12.4979 199.563 21.86C220.142 35.7519 236.251 55.314 245.938 78.176C249.212 85.9181 251.712 93.9653 253.4 102.2C256.867 119.223 256.867 136.77 253.4 153.793C250.047 170.166 243.502 185.719 234.14 199.563C220.247 220.142 200.686 236.251 177.824 245.938C170.082 249.212 162.035 251.711 153.8 253.4C145.309 255.131 136.665 256.002 128 256ZM128 13.713C120.264 13.7113 112.547 14.4892 104.967 16.035C90.3478 19.0289 76.4613 24.8724 64.1 33.232C45.7279 45.637 31.3473 63.1032 22.7 83.515C19.7777 90.4283 17.5471 97.6141 16.041 104.967C12.9451 120.166 12.9451 135.833 16.041 151.032C19.036 165.651 24.8805 179.537 33.241 191.898C45.6449 210.272 63.1108 224.655 83.523 233.305C90.4368 236.227 97.6228 238.457 104.976 239.963C120.175 243.059 135.842 243.059 151.041 239.963C165.66 236.969 179.547 231.125 191.907 222.763C210.276 210.358 224.654 192.894 233.3 172.485C236.222 165.571 238.453 158.385 239.959 151.032C243.055 135.833 243.055 120.166 239.959 104.967C236.964 90.3483 231.119 76.4625 222.759 64.102C210.357 45.7305 192.894 31.3491 172.485 22.7C165.571 19.7779 158.385 17.5474 151.032 16.041C143.452 14.4936 135.736 13.714 128 13.714V13.713Z" fill="url(#paint0_linear_1809_1940)"/>
<path d="M128 228C183.228 228 228 183.228 228 128C228 72.7715 183.228 28 128 28C72.7715 28 28 72.7715 28 128C28 183.228 72.7715 228 128 228Z" fill="url(#paint1_linear_1809_1940)"/>
<g clip-path="url(#clip1_1809_1940)">
<path d="M82.7436 114.831C84.1005 117.746 87.4587 123.508 87.4587 123.508L126.282 59L88.3915 85.5942C86.1338 87.1081 84.2815 89.1572 82.998 91.5609C81.2723 95.187 80.3554 99.1481 80.3115 103.168C80.2675 107.187 81.0976 111.167 82.7436 114.831Z" fill="white"/>
<path d="M67.36 136.072C67.7878 142.243 69.5223 148.25 72.4475 153.692C75.3725 159.134 79.4207 163.885 84.3208 167.627L126.231 197C126.231 197 100.01 159.018 77.8927 121.224C75.6536 117.231 74.1483 112.865 73.449 108.335C73.1394 106.285 73.1394 104.198 73.449 102.147C72.8723 103.221 71.7529 105.421 71.7529 105.421C69.5103 110.018 67.983 114.933 67.2243 119.996C66.7876 125.348 66.8331 130.728 67.36 136.072Z" fill="white"/>
<path d="M174.281 141.169C172.924 138.254 169.566 132.492 169.566 132.492L130.743 197L168.633 170.423C170.891 168.909 172.743 166.86 174.027 164.456C175.755 160.828 176.673 156.864 176.717 152.841C176.761 148.819 175.93 144.835 174.281 141.169Z" fill="white"/>
<path d="M189.664 119.928C189.237 113.757 187.502 107.75 184.577 102.308C181.652 96.866 177.604 92.1149 172.704 88.373L130.794 59C130.794 59 156.998 96.982 179.132 134.776C181.365 138.77 182.865 143.136 183.559 147.665C183.868 149.715 183.868 151.802 183.559 153.853C184.135 152.778 185.255 150.579 185.255 150.579C187.497 145.982 189.025 141.067 189.784 136.004C190.226 130.653 190.186 125.272 189.664 119.928Z" fill="white"/>
<path d="M82.998 91.5609C84.2814 89.1572 86.1338 87.1081 88.3915 85.5942L126.282 59L87.4586 123.525C87.4586 123.525 84.0664 117.763 82.7435 114.848C81.0949 111.182 80.2635 107.199 80.3074 103.176C80.3513 99.1535 81.2697 95.1892 82.998 91.5609ZM67.36 136.072C67.7878 142.243 69.5223 148.25 72.4475 153.692C75.3725 159.134 79.4207 163.885 84.3208 167.627L126.231 197C126.231 197 100.01 159.018 77.8927 121.224C75.6536 117.231 74.1483 112.865 73.449 108.335C73.1394 106.285 73.1394 104.198 73.449 102.147C72.8723 103.221 71.7529 105.421 71.7529 105.421C69.5103 110.018 67.983 114.933 67.2243 119.996C66.7876 125.348 66.8331 130.728 67.36 136.072ZM174.213 141.186C172.856 138.271 169.498 132.509 169.498 132.509L130.743 197L168.633 170.423C170.891 168.909 172.743 166.86 174.027 164.456C175.755 160.828 176.673 156.864 176.717 152.841C176.761 148.819 175.93 144.835 174.281 141.169L174.213 141.186ZM189.597 119.945C189.169 113.775 187.434 107.767 184.509 102.325C181.584 96.883 177.536 92.132 172.636 88.39L130.794 59C130.794 59 156.998 96.982 179.132 134.776C181.365 138.77 182.865 143.136 183.559 147.665C183.868 149.715 183.868 151.802 183.559 153.853C184.135 152.778 185.255 150.579 185.255 150.579C187.497 145.982 189.025 141.067 189.784 136.004C190.226 130.653 190.186 125.272 189.664 119.928L189.597 119.945Z" fill="white"/>
</g>
</g>
<defs>
<linearGradient id="paint0_linear_1809_1940" x1="215.808" y1="34.5595" x2="52.7359" y2="226.816" gradientUnits="userSpaceOnUse">
<stop stop-color="#B6509E"/>
<stop offset="1" stop-color="#2EBAC6"/>
</linearGradient>
<linearGradient id="paint1_linear_1809_1940" x1="228" y1="228" x2="28" y2="28" gradientUnits="userSpaceOnUse">
<stop stop-color="#44BCF0"/>
<stop offset="0.512677" stop-color="#7298F8"/>
<stop offset="0.982624" stop-color="#A099FF"/>
</linearGradient>
<clipPath id="clip0_1809_1940">
<rect width="256" height="256" fill="white"/>
</clipPath>
<clipPath id="clip1_1809_1940">
<rect width="123" height="138" fill="white" transform="translate(67 59)"/>
</clipPath>
</defs>
</svg>
