<svg width="256" height="256" viewBox="0 0 256 256" fill="none" xmlns="http://www.w3.org/2000/svg">
<g clip-path="url(#clip0_1614_1889)">
<path d="M128 256C198.692 256 256 198.692 256 128C256 57.3075 198.692 0 128 0C57.3075 0 0 57.3075 0 128C0 198.692 57.3075 256 128 256Z" fill="white"/>
<path fill-rule="evenodd" clip-rule="evenodd" d="M196.01 198.56C214.499 180.735 226 155.711 226 128C226 95.253 209.938 66.2575 185.263 48.4615C151.286 52.3429 123.058 68.1382 113.3 90.7562H204.44L194.15 114.28H108.4C108.4 114.28 107.863 123.296 107.91 127.51C107.978 133.66 108.4 140.74 108.4 140.74H182.88L173.08 163.481H118.69C129.46 183.841 159.794 198.533 196.01 198.56ZM167.41 217.753C155.351 223.056 142.019 226 128 226C73.8761 226 30 182.124 30 128C30 73.8761 73.8761 30 128 30C136.978 30 145.675 31.2074 153.936 33.4687C122.206 39.2755 96.1146 61.336 84.5092 90.7562H64.3L54.01 114.28H79.98V125.06C79.98 126.861 79.98 127.448 79.9925 128.035C80.0172 129.19 80.0905 130.343 80.3079 140.74H63.32L54.01 163.481H86.249C99.741 193.898 123.876 211.899 167.41 217.753Z" fill="url(#paint0_linear_1614_1889)"/>
<path d="M128 256C119.334 256.002 110.691 255.131 102.2 253.4C85.8269 250.046 70.2744 243.501 56.43 234.139C35.8506 220.247 19.7416 200.686 10.055 177.824C6.78329 170.082 4.28611 162.034 2.59996 153.8C-0.867305 136.777 -0.867305 119.23 2.59996 102.207C5.95345 85.834 12.4979 70.2816 21.86 56.437C35.7519 35.8565 55.3144 19.7464 78.177 10.059C85.9188 6.78586 93.9657 4.28733 102.2 2.6C119.223 -0.86746 136.77 -0.86746 153.793 2.6C170.166 5.95344 185.718 12.4979 199.563 21.86C220.142 35.7519 236.251 55.314 245.938 78.176C249.212 85.9181 251.712 93.9653 253.4 102.2C256.867 119.223 256.867 136.77 253.4 153.793C250.047 170.166 243.502 185.719 234.14 199.563C220.247 220.142 200.686 236.251 177.824 245.938C170.082 249.212 162.035 251.711 153.8 253.4C145.309 255.131 136.665 256.002 128 256ZM128 13.713C120.264 13.7113 112.547 14.4892 104.967 16.035C90.3478 19.0289 76.4613 24.8724 64.1 33.232C45.7279 45.637 31.3473 63.1033 22.7 83.515C19.7777 90.4284 17.5471 97.6141 16.041 104.967C12.9451 120.166 12.9451 135.833 16.041 151.032C19.036 165.651 24.8805 179.537 33.241 191.898C45.6449 210.272 63.1108 224.655 83.523 233.305C90.4368 236.227 97.6228 238.457 104.976 239.963C120.175 243.059 135.842 243.059 151.041 239.963C165.66 236.969 179.547 231.125 191.907 222.763C210.276 210.358 224.654 192.894 233.3 172.485C236.222 165.571 238.453 158.385 239.959 151.032C243.055 135.833 243.055 120.166 239.959 104.967C236.964 90.3483 231.119 76.4625 222.759 64.102C210.357 45.7305 192.894 31.3492 172.485 22.7C165.571 19.7779 158.385 17.5474 151.032 16.041C143.452 14.4936 135.736 13.714 128 13.714V13.713Z" fill="url(#paint1_linear_1614_1889)"/>
</g>
<defs>
<linearGradient id="paint0_linear_1614_1889" x1="53.03" y1="185.82" x2="201.5" y2="70.18" gradientUnits="userSpaceOnUse">
<stop offset="0.332699" stop-color="#15BCFF"/>
<stop offset="0.663965" stop-color="#406BEE"/>
<stop offset="0.924508" stop-color="#AE3EEB"/>
</linearGradient>
<linearGradient id="paint1_linear_1614_1889" x1="215.808" y1="34.5595" x2="52.7359" y2="226.816" gradientUnits="userSpaceOnUse">
<stop stop-color="#B6509E"/>
<stop offset="1" stop-color="#2EBAC6"/>
</linearGradient>
<clipPath id="clip0_1614_1889">
<rect width="256" height="256" fill="white"/>
</clipPath>
</defs>
</svg>
