<svg width="256" height="256" viewBox="0 0 256 256" fill="none" xmlns="http://www.w3.org/2000/svg">
<g clip-path="url(#clip0)">
<path d="M128 256.001C198.693 256.001 256 198.693 256 128.001C256 57.3081 198.693 0.000595093 128 0.000595093C57.308 0.000595093 0.000488281 57.3081 0.000488281 128.001C0.000488281 198.693 57.308 256.001 128 256.001Z" fill="white"/>
<path d="M128 256.001C119.335 256.003 110.691 255.132 102.2 253.401C85.8274 250.047 70.2749 243.502 56.4305 234.14C35.8511 220.248 19.7421 200.686 10.0555 177.825C6.78378 170.082 4.2866 162.035 2.60045 153.801C-0.866817 136.778 -0.866817 119.23 2.60045 102.208C5.95394 85.8346 12.4984 70.2822 21.8605 56.4376C35.7524 35.8571 55.3149 19.747 78.1775 10.0596C85.9193 6.78645 93.9662 4.28793 102.2 2.60059C119.223 -0.866865 136.771 -0.866865 153.793 2.60059C170.166 5.95404 185.719 12.4985 199.563 21.8606C220.143 35.7525 236.252 55.3146 245.938 78.1766C249.213 85.9187 251.712 93.9659 253.4 102.201C256.868 119.223 256.868 136.771 253.4 153.794C250.047 170.167 243.503 185.719 234.14 199.564C220.248 220.142 200.686 236.251 177.824 245.939C170.082 249.212 162.035 251.712 153.8 253.401C145.31 255.132 136.666 256.003 128 256.001ZM128 13.7136C120.264 13.7119 112.548 14.4898 104.967 16.0356C90.3483 19.0295 76.4618 24.873 64.1004 33.2326C45.7284 45.6376 31.3477 63.1039 22.7005 83.5156C19.7782 90.4289 17.5476 97.6147 16.0415 104.968C12.9456 120.167 12.9456 135.834 16.0415 151.033C19.0365 165.652 24.881 179.538 33.2415 191.899C45.6454 210.273 63.1113 224.656 83.5235 233.306C90.4373 236.227 97.6233 238.457 104.976 239.964C120.175 243.06 135.843 243.06 151.041 239.964C165.661 236.97 179.547 231.125 191.907 222.764C210.276 210.359 224.654 192.895 233.3 172.486C236.223 165.572 238.453 158.386 239.959 151.033C243.055 135.834 243.055 120.167 239.959 104.968C236.964 90.3489 231.12 76.4631 222.759 64.1026C210.357 45.7311 192.894 31.3498 172.485 22.7006C165.572 19.7785 158.386 17.548 151.032 16.0416C143.453 14.4942 135.736 13.7146 128 13.7146V13.7136Z" fill="url(#paint0_linear)"/>
<path d="M155.029 143.561C155.029 129.228 146.428 124.314 129.228 122.267C116.942 120.629 114.483 117.353 114.483 111.619C114.483 105.885 118.583 102.2 126.769 102.2C134.14 102.2 138.235 104.657 140.282 110.8C140.494 111.393 140.882 111.907 141.394 112.273C141.907 112.639 142.52 112.839 143.15 112.847H149.702C150.08 112.856 150.457 112.788 150.809 112.647C151.161 112.506 151.481 112.296 151.749 112.028C152.017 111.76 152.228 111.44 152.369 111.088C152.51 110.736 152.578 110.36 152.569 109.981V109.571C151.776 105.132 149.539 101.081 146.207 98.0443C142.874 95.0081 138.632 93.1577 134.139 92.7806V82.9526C134.139 81.3146 132.91 80.0856 130.863 79.6756H124.72C123.082 79.6756 121.854 80.9046 121.444 82.9526V92.3716C109.158 94.0096 101.378 102.201 101.378 112.439C101.378 125.953 109.567 131.276 126.767 133.325C138.234 135.372 141.92 137.825 141.92 144.382C141.92 150.939 136.187 155.439 128.407 155.439C117.759 155.439 114.073 150.934 112.845 144.791C112.722 144.114 112.37 143.5 111.848 143.053C111.326 142.605 110.666 142.351 109.978 142.334H103.016C102.637 142.325 102.26 142.393 101.908 142.533C101.556 142.674 101.236 142.885 100.968 143.153C100.701 143.421 100.49 143.741 100.349 144.093C100.208 144.445 100.14 144.822 100.15 145.201V145.611C101.787 155.848 108.34 163.22 121.85 165.268V175.097C121.85 176.734 123.079 177.963 125.126 178.373H131.269C132.907 178.373 134.135 177.144 134.545 175.097V165.268C146.831 163.22 155.022 154.62 155.022 143.563L155.029 143.561Z" fill="white"/>
<path d="M107.114 186.562C95.3289 182.242 85.1543 174.407 77.9663 164.116C70.7783 153.826 66.9237 141.576 66.9237 129.024C66.9237 116.472 70.7783 104.222 77.9663 93.9319C85.1543 83.6414 95.3289 75.8065 107.114 71.4866C107.9 71.1446 108.56 70.5655 109 69.8304C109.441 69.0953 109.64 68.2408 109.571 67.3866V61.6536C109.627 60.9027 109.409 60.1571 108.957 59.5547C108.506 58.9524 107.851 58.5342 107.114 58.3776C106.537 58.317 105.957 58.4618 105.476 58.7866C90.5671 63.5246 77.5523 72.8842 68.316 85.5108C59.0798 98.1373 54.1013 113.376 54.1013 129.02C54.1013 144.664 59.0798 159.902 68.316 172.528C77.5523 185.155 90.5671 194.515 105.476 199.253C105.817 199.45 106.199 199.564 106.592 199.585C106.985 199.607 107.378 199.534 107.738 199.375C108.097 199.215 108.414 198.972 108.662 198.666C108.909 198.36 109.081 198 109.162 197.615C109.572 197.206 109.572 196.796 109.572 195.978V190.244C109.571 189.019 108.342 187.381 107.114 186.562ZM150.52 58.7906C150.18 58.593 149.798 58.479 149.405 58.4578C149.012 58.4366 148.619 58.5089 148.259 58.6687C147.9 58.8285 147.583 59.0714 147.335 59.3773C147.088 59.6832 146.916 60.0435 146.834 60.4286C146.424 60.8386 146.424 61.2476 146.424 62.0666V67.7996C146.494 68.6251 146.752 69.4237 147.178 70.1344C147.604 70.845 148.186 71.4488 148.881 71.8996C160.667 76.2195 170.842 84.0544 178.03 94.3448C185.218 104.635 189.072 116.885 189.072 129.437C189.072 141.989 185.218 154.239 178.03 164.529C170.842 174.82 160.667 182.655 148.881 186.975C148.096 187.317 147.436 187.896 146.996 188.631C146.555 189.366 146.356 190.22 146.424 191.075V196.808C146.369 197.558 146.587 198.304 147.038 198.906C147.49 199.509 148.145 199.927 148.881 200.084C149.459 200.144 150.039 199.999 150.519 199.675C165.421 194.869 178.415 185.462 187.632 172.805C196.849 160.148 201.815 144.894 201.815 129.237C201.815 113.579 196.849 98.3254 187.632 85.6686C178.415 73.0117 165.421 63.6041 150.519 58.7986L150.52 58.7906Z" fill="white"/>
<path d="M128 226C182.124 226 226 182.124 226 128C226 73.8761 182.124 30 128 30C73.8761 30 30 73.8761 30 128C30 182.124 73.8761 226 128 226Z" fill="black" stroke="black" stroke-width="1.2373" stroke-miterlimit="11.3386"/>
<path d="M73.9379 73.4905C69.8058 77.8292 66.3968 81.4793 66.3623 81.5481C66.3279 81.6514 70.0468 85.3015 74.6266 89.6402C79.2063 94.0134 83.2007 97.8356 83.4762 98.0766L83.9927 98.5587L83.063 100.108C74.902 113.606 73.2148 129.859 78.3455 144.804C79.3096 147.628 80.9625 151.243 82.3743 153.619C83.063 154.79 83.3729 155.547 83.304 155.685C83.2351 155.823 79.0686 160.23 74.0412 165.499C69.0138 170.733 64.9161 175.106 64.8472 175.175C64.8128 175.278 78.8964 188.88 80.2394 189.982L80.7559 190.429L88.7102 182.131C93.0833 177.551 97.181 173.247 97.8008 172.592L98.9716 171.422L100.074 172.11C105.686 175.691 112.263 178.171 119.529 179.479C123.179 180.134 130.135 180.306 134.026 179.824C141.532 178.963 148.97 176.449 155.065 172.765L156.649 171.8L158.336 173.453C162.021 177.034 175.795 190.119 175.932 190.188C176.07 190.257 191.187 174.452 191.152 174.245C191.118 174.142 180.753 164.19 174.417 158.233L172.317 156.236L173.281 154.652C181.373 141.188 183.06 124.866 177.826 109.819C177.069 107.615 174.761 102.656 173.419 100.384L172.764 99.2474L181.614 89.9845C186.469 84.9227 190.429 80.6873 190.395 80.584C190.257 80.2396 174.761 65.6051 174.555 65.6051C174.417 65.6051 170.526 69.565 165.877 74.4547C161.229 79.3099 157.372 83.3043 157.269 83.3387C157.2 83.3732 156.752 83.1666 156.339 82.8566C155.168 82.0647 152.207 80.4462 150.554 79.6887C145.527 77.3816 140.844 75.9698 135.403 75.1778C132.579 74.7646 124.109 74.6957 121.492 75.0745C115.225 75.9698 110.094 77.5193 104.86 80.1363C103.345 80.8595 101.589 81.8236 100.9 82.2368L99.6603 82.9944L98.2485 81.617C97.4909 80.8595 94.0475 77.6226 90.6385 74.3514C87.2295 71.1145 83.7517 67.8089 82.9252 66.9824L81.4101 65.5018L73.9379 73.4905ZM131.753 95.9417C137.228 96.5959 142.118 98.4554 146.629 101.623C148.936 103.242 152.379 106.685 153.998 108.992C163.192 122.008 161.435 139.708 149.865 150.554C139.983 159.783 125.693 161.849 113.675 155.72C104.998 151.278 98.8683 143.151 96.9056 133.406C96.2857 130.307 96.2857 124.522 96.9056 121.457C97.4909 118.427 98.2829 116.258 99.7636 113.228C105.686 101.313 118.53 94.3577 131.753 95.9417Z" fill="white"/>
</g>
<defs>
<linearGradient id="paint0_linear" x1="215.809" y1="34.5601" x2="52.7364" y2="226.817" gradientUnits="userSpaceOnUse">
<stop stop-color="#B6509E"/>
<stop offset="1" stop-color="#2EBAC6"/>
</linearGradient>
<clipPath id="clip0">
<rect width="256" height="256" fill="white"/>
</clipPath>
</defs>
</svg>
