<svg width="256" height="256" viewBox="0 0 256 256" fill="none" xmlns="http://www.w3.org/2000/svg">
<g clip-path="url(#clip0_1749_1898)">
<path d="M128 256C198.692 256 256 198.692 256 128C256 57.3075 198.692 0 128 0C57.3075 0 -6.10352e-05 57.3075 -6.10352e-05 128C-6.10352e-05 198.692 57.3075 256 128 256Z" fill="white"/>
<path d="M128 226C182.124 226 226 182.124 226 128C226 73.8761 182.124 30 128 30C73.8761 30 30 73.8761 30 128C30 182.124 73.8761 226 128 226Z" fill="#1969FF"/>
<path d="M122.057 61.1648C125.359 59.4242 130.383 59.4242 133.684 61.1648L167.375 78.9264C169.364 79.9746 170.456 81.5367 170.651 83.1493H170.684V172.427C170.64 174.186 169.537 175.934 167.375 177.074L133.684 194.835C130.383 196.576 125.359 196.576 122.057 194.835L88.3667 177.074C86.2136 175.939 85.1803 174.179 85.1291 172.427C85.1239 172.248 85.1234 172.1 85.129 171.978L85.1291 83.7504C85.1241 83.6263 85.1241 83.5028 85.129 83.3797L85.1291 83.1493H85.1442C85.2938 81.5189 86.3363 79.9967 88.3667 78.9264L122.057 61.1648ZM165.324 132.785L133.674 149.526C130.377 151.269 125.361 151.269 122.064 149.526L90.4844 132.822V172.152L122.064 188.766C123.93 189.765 125.871 190.737 127.76 190.78L127.869 190.781C129.755 190.787 131.586 189.829 133.442 188.921L165.324 172.008V132.785ZM79.8467 170.492C79.8467 173.915 80.241 176.164 81.0238 177.749C81.6726 179.062 82.646 180.066 84.4235 181.288L84.525 181.357C84.9151 181.622 85.3448 181.9 85.8679 182.227L86.4847 182.608L88.3789 183.761L85.6621 188.293L83.5421 187.001L83.1857 186.78C82.5727 186.398 82.0646 186.071 81.5907 185.748C76.5248 182.302 74.6355 178.546 74.5982 170.73L74.5977 170.492H79.8467ZM125.32 109.051C125.075 109.135 124.845 109.233 124.636 109.344L90.9967 127.162C90.9614 127.181 90.9277 127.2 90.8957 127.218L90.8672 127.234L90.92 127.265L90.9967 127.306L124.636 145.125C124.845 145.236 125.075 145.334 125.32 145.418V109.051ZM130.68 109.051V145.418C130.925 145.334 131.155 145.236 131.364 145.125L165.003 127.306C165.039 127.288 165.072 127.269 165.104 127.251L165.133 127.234L165.08 127.204L165.003 127.162L131.364 109.344C131.155 109.233 130.925 109.135 130.68 109.051ZM165.324 89.5273L135.082 105.414L165.324 121.301V89.5273ZM90.4844 89.5273V121.301L120.727 105.414L90.4844 89.5273ZM131.335 65.913C129.584 64.9873 126.416 64.9873 124.665 65.913L90.9968 83.7131C90.9615 83.7319 90.9278 83.7503 90.8957 83.7687L90.8672 83.7851L90.9201 83.8154L90.9968 83.8571L124.665 101.657C126.416 102.583 129.584 102.583 131.335 101.657L165.003 83.8571C165.038 83.8384 165.072 83.82 165.104 83.8018L165.133 83.7851L165.08 83.7549L165.003 83.7131L131.335 65.913ZM170.338 67.707L172.458 68.9989L172.814 69.2196C173.427 69.6014 173.935 69.9294 174.409 70.2517C179.475 73.6976 181.365 77.4544 181.402 85.2697L181.402 85.5078H176.153C176.153 82.0852 175.759 79.8359 174.976 78.251C174.328 76.9376 173.354 75.9338 171.577 74.7123L171.475 74.643C171.085 74.3776 170.655 74.0996 170.132 73.773L169.515 73.3918L167.621 72.2385L170.338 67.707Z" fill="white"/>
<path d="M128 256C119.334 256.002 110.691 255.131 102.2 253.4C85.8269 250.046 70.2744 243.501 56.43 234.139C35.8506 220.247 19.7416 200.686 10.055 177.824C6.78329 170.082 4.28611 162.034 2.59996 153.8C-0.867305 136.777 -0.867305 119.23 2.59996 102.207C5.95345 85.834 12.4979 70.2816 21.86 56.437C35.7519 35.8565 55.3144 19.7464 78.177 10.059C85.9188 6.78586 93.9657 4.28733 102.2 2.6C119.223 -0.86746 136.77 -0.86746 153.793 2.6C170.166 5.95344 185.718 12.4979 199.563 21.86C220.142 35.7519 236.251 55.314 245.938 78.176C249.212 85.9181 251.712 93.9653 253.4 102.2C256.867 119.223 256.867 136.77 253.4 153.793C250.047 170.166 243.502 185.719 234.14 199.563C220.247 220.142 200.686 236.251 177.824 245.938C170.082 249.212 162.035 251.711 153.8 253.4C145.309 255.131 136.665 256.002 128 256ZM128 13.713C120.264 13.7113 112.547 14.4892 104.967 16.035C90.3478 19.0289 76.4613 24.8724 64.1 33.232C45.7279 45.637 31.3473 63.1033 22.7 83.515C19.7777 90.4284 17.5471 97.6141 16.041 104.967C12.9451 120.166 12.9451 135.833 16.041 151.032C19.036 165.651 24.8805 179.537 33.241 191.898C45.6449 210.272 63.1108 224.655 83.523 233.305C90.4368 236.227 97.6228 238.457 104.976 239.963C120.175 243.059 135.842 243.059 151.041 239.963C165.66 236.969 179.547 231.125 191.907 222.763C210.276 210.358 224.654 192.894 233.3 172.485C236.222 165.571 238.453 158.385 239.959 151.032C243.055 135.833 243.055 120.166 239.959 104.967C236.964 90.3483 231.119 76.4625 222.759 64.102C210.357 45.7305 192.894 31.3492 172.485 22.7C165.571 19.7779 158.385 17.5474 151.032 16.041C143.452 14.4936 135.736 13.714 128 13.714V13.713Z" fill="url(#paint0_linear_1749_1898)"/>
</g>
<defs>
<linearGradient id="paint0_linear_1749_1898" x1="215.808" y1="34.5595" x2="52.7359" y2="226.816" gradientUnits="userSpaceOnUse">
<stop stop-color="#B6509E"/>
<stop offset="1" stop-color="#2EBAC6"/>
</linearGradient>
<clipPath id="clip0_1749_1898">
<rect width="256" height="256" fill="white"/>
</clipPath>
</defs>
</svg>
