<svg width="256" height="256" viewBox="0 0 256 256" fill="none" xmlns="http://www.w3.org/2000/svg">
<g clip-path="url(#clip0_1759_24189)">
<path d="M128 256C198.692 256 256 198.692 256 128C256 57.3075 198.692 0 128 0C57.3075 0 0 57.3075 0 128C0 198.692 57.3075 256 128 256Z" fill="white"/>
<path d="M128 256C119.334 256.002 110.691 255.131 102.2 253.4C85.8269 250.046 70.2744 243.501 56.43 234.139C35.8506 220.247 19.7416 200.686 10.055 177.824C6.78329 170.082 4.28611 162.034 2.59996 153.8C-0.867305 136.777 -0.867305 119.23 2.59996 102.207C5.95345 85.834 12.4979 70.2816 21.86 56.437C35.7519 35.8564 55.3144 19.7464 78.177 10.059C85.9188 6.78584 93.9657 4.28732 102.2 2.59998C119.223 -0.867475 136.77 -0.867475 153.793 2.59998C170.166 5.95343 185.718 12.4979 199.563 21.86C220.142 35.7519 236.251 55.314 245.938 78.176C249.212 85.9181 251.712 93.9653 253.4 102.2C256.867 119.223 256.867 136.77 253.4 153.793C250.047 170.166 243.502 185.719 234.14 199.563C220.247 220.142 200.686 236.251 177.824 245.938C170.082 249.212 162.035 251.711 153.8 253.4C145.309 255.131 136.665 256.002 128 256ZM128 13.713C120.264 13.7113 112.547 14.4892 104.967 16.035C90.3478 19.0289 76.4613 24.8724 64.1 33.232C45.7279 45.637 31.3473 63.1032 22.7 83.515C19.7777 90.4283 17.5471 97.6141 16.041 104.967C12.9451 120.166 12.9451 135.833 16.041 151.032C19.036 165.651 24.8805 179.537 33.241 191.898C45.6449 210.272 63.1108 224.655 83.523 233.305C90.4368 236.227 97.6228 238.457 104.976 239.963C120.175 243.059 135.842 243.059 151.041 239.963C165.66 236.969 179.547 231.125 191.907 222.763C210.276 210.358 224.654 192.894 233.3 172.485C236.222 165.571 238.453 158.385 239.959 151.032C243.055 135.833 243.055 120.166 239.959 104.967C236.964 90.3483 231.119 76.4625 222.759 64.102C210.357 45.7305 192.894 31.3491 172.485 22.7C165.571 19.7779 158.385 17.5474 151.032 16.041C143.452 14.4936 135.736 13.714 128 13.714V13.713Z" fill="url(#paint0_linear_1759_24189)"/>
<path d="M213.392 93.3968H208.77C208.77 87.608 208.77 80.7104 208.77 74.9216C206.468 74.9216 201.839 74.9216 199.539 74.9216C199.539 72.6205 199.539 67.9909 199.539 65.6912C197.238 65.6912 192.608 65.6912 190.309 65.6912C190.309 63.3901 190.309 58.7605 190.309 56.4608C188.008 56.4608 183.378 56.4608 181.078 56.4608C181.078 54.1597 181.078 49.5301 181.078 47.2304C175.294 47.2304 168.402 47.2304 162.618 47.2304C162.618 44.9293 162.618 40.2997 162.618 38C139.64 38 116.375 38 93.3968 38C93.3968 40.3011 93.3968 44.9307 93.3968 47.2304C87.6123 47.2304 80.7205 47.2304 74.936 47.2304C74.936 49.5315 74.936 54.1611 74.936 56.4608C72.6349 56.4608 68.0053 56.4608 65.7056 56.4608C65.7056 58.7619 65.7056 63.3915 65.7056 65.6912C63.4045 65.6912 58.7749 65.6912 56.4752 65.6912C56.4752 67.9923 56.4752 72.6219 56.4752 74.9216C54.1712 74.9216 49.5344 74.9216 47.2304 74.9216C47.2304 80.7104 47.2304 87.608 47.2304 93.3968C44.9293 93.3968 40.2997 93.3968 38 93.3968C38 98.4411 38 104.619 38 109.654C97.9544 109.654 158.046 109.654 218 109.654C218 104.622 218 98.4383 218 93.3968H213.392Z" fill="#FA34F3"/>
<path d="M213.392 107.235C154.965 107.235 96.4266 107.235 38 107.235C38 119.56 38 132.994 38 145.352C97.9544 145.352 158.046 145.352 218 145.352C218 132.982 218 119.57 218 107.235H213.392Z" fill="#CF15F9"/>
<path d="M213.392 134.926C154.965 134.926 96.4266 134.926 38 134.926C38 143.915 38 153.629 38 162.618C40.3011 162.618 44.9307 162.618 47.2304 162.618V166.894C101.024 166.894 154.976 166.894 208.77 166.894V162.618C211.071 162.618 215.7 162.618 218 162.618C218 153.629 218 143.915 218 134.926H213.392Z" fill="#AC15F9"/>
<path d="M204.162 162.618C151.894 162.618 99.4982 162.618 47.2305 162.618C47.2305 168.402 47.2305 175.294 47.2305 181.078C49.5345 181.078 54.1713 181.078 56.4753 181.078C56.4753 183.379 56.4753 188.009 56.4753 190.309C58.7764 190.309 63.406 190.309 65.7057 190.309L65.8641 196.285C107.274 196.285 148.899 196.285 190.309 196.285V190.309C192.61 190.309 197.24 190.309 199.539 190.309C199.539 188.008 199.539 183.378 199.539 181.078C201.84 181.078 206.47 181.078 208.77 181.078C208.77 175.294 208.77 168.402 208.77 162.618H204.162Z" fill="#8F17F9"/>
<path d="M125.696 218C115.136 218 103.956 218 93.3968 218C93.3968 215.699 93.3968 211.069 93.3968 208.77C87.6123 208.77 80.7205 208.77 74.936 208.77C74.936 206.468 74.936 201.839 74.936 199.539C72.6349 199.539 68.0052 199.539 65.7056 199.539C65.7056 197.238 65.7056 192.608 65.7056 190.309C107.186 190.309 148.828 190.309 190.309 190.309C190.309 192.61 190.309 197.239 190.309 199.539C188.008 199.539 183.378 199.539 181.078 199.539C181.078 201.84 181.078 206.47 181.078 208.77C175.294 208.77 168.402 208.77 162.618 208.77C162.618 211.071 162.618 215.7 162.618 218C156.833 218 149.941 218 144.157 218C138.372 218 131.479 218 125.696 218Z" fill="#7E18F8"/>
<path d="M154.813 142.184V145.352C156.395 145.352 159.581 145.352 161.163 145.352C161.163 142.525 161.163 138.66 161.163 135.834C159.581 135.834 156.395 135.834 154.813 135.834C154.813 137.416 154.813 140.601 154.813 142.184Z" fill="white"/>
<path d="M148.463 145.352C143.369 145.352 137.673 145.352 132.579 145.352C132.579 146.939 132.579 150.131 132.579 151.717C136.558 151.717 141.301 151.717 145.28 151.717C145.28 153.299 145.28 156.485 145.28 158.067C146.863 158.067 150.048 158.067 151.631 158.067C151.631 156.485 151.631 153.299 151.631 151.717H154.813C154.813 150.13 154.813 146.937 154.813 145.352C153.23 145.352 150.045 145.352 148.463 145.352Z" fill="white"/>
<path d="M138.93 135.834C144.023 135.834 149.72 135.834 154.813 135.834C154.813 134.247 154.813 131.054 154.813 129.469C149.72 129.469 144.023 129.469 138.93 129.469C138.93 131.056 138.93 134.248 138.93 135.834Z" fill="white"/>
<path d="M132.579 119.936C132.579 122.767 132.579 126.638 132.579 129.469C134.162 129.469 137.347 129.469 138.93 129.469C138.93 126.638 138.93 122.767 138.93 119.936C137.347 119.936 134.162 119.936 132.579 119.936Z" fill="white"/>
<path d="M154.813 113.586H151.63C151.63 112.003 151.63 108.818 151.63 107.235C150.048 107.235 146.863 107.235 145.28 107.235C145.28 108.818 145.28 112.003 145.28 113.586C143.698 113.586 140.512 113.586 138.93 113.586C138.93 115.168 138.93 118.353 138.93 119.936C146.199 119.936 153.894 119.936 161.163 119.936C161.163 118.353 161.163 115.168 161.163 113.586C159.581 113.586 156.395 113.586 154.813 113.586Z" fill="white"/>
<path d="M196.112 113.586C186.694 113.586 176.946 113.586 167.528 113.586C167.528 115.168 167.528 118.353 167.528 119.936C171.507 119.936 176.25 119.936 180.229 119.936C180.229 130.431 180.229 141.222 180.229 151.717C181.811 151.717 184.997 151.717 186.579 151.717C186.579 141.222 186.579 130.431 186.579 119.936C190.564 119.936 195.311 119.936 199.294 119.936C199.294 118.353 199.294 115.168 199.294 113.586H196.112Z" fill="white"/>
<path d="M119.864 113.586C119.864 118.679 119.864 124.376 119.864 129.469C114.771 129.469 109.074 129.469 103.981 129.469C103.981 124.376 103.981 118.679 103.981 113.586C102.398 113.586 99.2129 113.586 97.6304 113.586C97.6304 126.213 97.6304 139.089 97.6304 151.717C99.2129 151.717 102.398 151.717 103.981 151.717C103.981 146.624 103.981 140.927 103.981 135.834C109.074 135.834 114.771 135.834 119.864 135.834C119.864 140.927 119.864 146.624 119.864 151.717C121.447 151.717 124.632 151.717 126.214 151.717C126.214 139.089 126.214 126.213 126.214 113.586C124.632 113.586 121.447 113.586 119.864 113.586Z" fill="white"/>
<path d="M84.9152 113.586C78.7319 113.586 72.0474 113.586 65.864 113.586C65.864 115.168 65.864 118.353 65.864 119.936C74.2117 119.936 82.9323 119.936 91.28 119.936C91.28 118.353 91.28 115.168 91.28 113.586C89.6931 113.586 86.5007 113.586 84.9152 113.586Z" fill="white"/>
<path d="M91.28 145.352C91.28 140.259 91.28 134.562 91.28 129.469C85.0908 129.469 78.4035 129.469 72.2144 129.469C72.2144 131.056 72.2144 134.248 72.2144 135.834C76.1931 135.834 80.9364 135.834 84.9152 135.834C84.9152 138.66 84.9152 142.525 84.9152 145.352C86.502 145.352 89.6945 145.352 91.28 145.352Z" fill="white"/>
<path d="M65.864 151.717C72.0474 151.717 78.7319 151.717 84.9152 151.717C84.9152 150.13 84.9152 146.937 84.9152 145.352C78.7319 145.352 72.0474 145.352 65.864 145.352C65.864 146.939 65.864 150.131 65.864 151.717Z" fill="white"/>
<path d="M59.4993 119.936C59.4993 128.284 59.4993 137.004 59.4993 145.352C61.0861 145.352 64.2786 145.352 65.8641 145.352C65.8641 137.004 65.8641 128.284 65.8641 119.936C64.2772 119.936 61.0847 119.936 59.4993 119.936Z" fill="white"/>
</g>
<defs>
<linearGradient id="paint0_linear_1759_24189" x1="215.808" y1="34.5595" x2="52.7359" y2="226.816" gradientUnits="userSpaceOnUse">
<stop stop-color="#B6509E"/>
<stop offset="1" stop-color="#2EBAC6"/>
</linearGradient>
<clipPath id="clip0_1759_24189">
<rect width="256" height="256" fill="white"/>
</clipPath>
</defs>
</svg>
