<svg xmlns="http://www.w3.org/2000/svg" id="Group_35820" width="256" height="256.001" viewBox="0 0 256 256.001">
    <defs>
        <linearGradient id="linear-gradient" x1=".843" x2=".206" y1=".135" y2=".886" gradientUnits="objectBoundingBox">
            <stop offset="0" stop-color="#b6509e"/>
            <stop offset="1" stop-color="#2ebac6"/>
        </linearGradient>
        <style>
            .cls-1{fill:#fff}.cls-3{fill:#26ddf9}
        </style>
    </defs>
    <circle id="Ellipse_1585" cx="128" cy="128" r="128" class="cls-1"/>
    <g id="Group_26317">
        <path id="Subtraction_108" fill="url(#linear-gradient)" d="M128 256a128.976 128.976 0 0 1-25.8-2.6 127.309 127.309 0 0 1-45.77-19.261 128.366 128.366 0 0 1-46.375-56.315A127.357 127.357 0 0 1 2.6 153.8a129.251 129.251 0 0 1 0-51.593 127.31 127.31 0 0 1 19.26-45.77 128.372 128.372 0 0 1 56.317-46.378A127.33 127.33 0 0 1 102.2 2.6a129.244 129.244 0 0 1 51.593 0 127.308 127.308 0 0 1 45.77 19.26 128.367 128.367 0 0 1 46.375 56.316A127.343 127.343 0 0 1 253.4 102.2a129.248 129.248 0 0 1 0 51.593 127.3 127.3 0 0 1-19.26 45.77 128.382 128.382 0 0 1-56.316 46.375A127.4 127.4 0 0 1 153.8 253.4 128.977 128.977 0 0 1 128 256zm0-242.287a115.145 115.145 0 0 0-23.033 2.322A113.657 113.657 0 0 0 64.1 33.232a114.622 114.622 0 0 0-41.4 50.283 113.7 113.7 0 0 0-6.659 21.452 115.4 115.4 0 0 0 0 46.065 113.66 113.66 0 0 0 17.2 40.866 114.627 114.627 0 0 0 50.282 41.407 113.75 113.75 0 0 0 21.453 6.658 115.381 115.381 0 0 0 46.065 0 113.609 113.609 0 0 0 40.866-17.2 114.622 114.622 0 0 0 41.393-50.278 113.741 113.741 0 0 0 6.659-21.453 115.4 115.4 0 0 0 0-46.065 113.662 113.662 0 0 0-17.2-40.865A114.619 114.619 0 0 0 172.485 22.7a113.74 113.74 0 0 0-21.453-6.659A115.145 115.145 0 0 0 128 13.714z"/>
    </g>
    <g id="Group_26314" transform="translate(30 30)">
        <circle id="Ellipse_1465" cx="98" cy="98" r="98" class="cls-1"/>
        <path id="Path_9374" d="M131.987 2a42.452 42.452 0 0 0-41.944 37.678A42.191 42.191 0 1 0 136.5 86.139 42.191 42.191 0 0 0 131.987 2zm32.3 46.964a32.862 32.862 0 0 1-27.53 27.536V48.964zM62.255 76.854a32.864 32.864 0 0 1 27.537-27.537v27.537zm64.612 9.538a32.656 32.656 0 0 1-64.613 0zm.352-37.427v27.889H99.328v-27.89zm37.075-9.538H99.68a32.656 32.656 0 0 1 64.613 0z" class="cls-3" transform="translate(-14.922 35.441)"/>
        <path id="Subtraction_208" d="M98 196a98.724 98.724 0 0 1-19.75-1.991 97.465 97.465 0 0 1-35.042-14.746A98.285 98.285 0 0 1 7.7 136.146a97.506 97.506 0 0 1-5.71-18.4 98.955 98.955 0 0 1 0-39.5 97.464 97.464 0 0 1 14.747-35.039A98.286 98.286 0 0 1 59.854 7.7a97.507 97.507 0 0 1 18.4-5.71 98.955 98.955 0 0 1 39.5 0 97.464 97.464 0 0 1 35.042 14.746A98.286 98.286 0 0 1 188.3 59.854a97.507 97.507 0 0 1 5.71 18.4 98.955 98.955 0 0 1 0 39.5 97.464 97.464 0 0 1-14.746 35.042 98.285 98.285 0 0 1-43.118 35.504 97.506 97.506 0 0 1-18.4 5.71A98.724 98.724 0 0 1 98 196zM98 3.062a95.639 95.639 0 0 0-19.133 1.929A94.417 94.417 0 0 0 44.92 19.276a95.216 95.216 0 0 0-34.4 41.77 94.462 94.462 0 0 0-5.529 17.821 95.863 95.863 0 0 0 0 38.266 94.416 94.416 0 0 0 14.285 33.947 95.216 95.216 0 0 0 41.77 34.4 94.463 94.463 0 0 0 17.821 5.532 95.864 95.864 0 0 0 38.266 0 94.416 94.416 0 0 0 33.947-14.285 95.215 95.215 0 0 0 34.4-41.77 94.463 94.463 0 0 0 5.532-17.821 95.864 95.864 0 0 0 0-38.266 94.417 94.417 0 0 0-14.288-33.95 95.216 95.216 0 0 0-41.77-34.4 94.461 94.461 0 0 0-17.821-5.532A95.64 95.64 0 0 0 98 3.062z" class="cls-3"/>
    </g>
</svg>
