<svg xmlns="http://www.w3.org/2000/svg" id="Group_30942" width="256" height="256.001" viewBox="0 0 256 256.001">
    <defs>
        <linearGradient id="linear-gradient" x1=".843" x2=".206" y1=".135" y2=".886" gradientUnits="objectBoundingBox">
            <stop offset="0" stop-color="#b6509e"/>
            <stop offset="1" stop-color="#2ebac6"/>
        </linearGradient>
        <linearGradient id="linear-gradient-2" x1=".5" x2=".5" y1="1" gradientUnits="objectBoundingBox">
            <stop offset="0" stop-color="#4fa89b"/>
            <stop offset="1" stop-color="#6acebb"/>
        </linearGradient>
        <style>
            .cls-1{fill:#fff}
        </style>
    </defs>
    <circle id="Ellipse_1585" cx="128" cy="128" r="128" class="cls-1"/>
    <g id="Group_17816" transform="translate(-20 -20)">
        <path id="Subtraction_108" fill="url(#linear-gradient)" d="M128 256a128.976 128.976 0 0 1-25.8-2.6 127.309 127.309 0 0 1-45.77-19.261 128.366 128.366 0 0 1-46.375-56.315A127.357 127.357 0 0 1 2.6 153.8a129.251 129.251 0 0 1 0-51.593 127.31 127.31 0 0 1 19.26-45.77 128.372 128.372 0 0 1 56.317-46.378A127.33 127.33 0 0 1 102.2 2.6a129.244 129.244 0 0 1 51.593 0 127.308 127.308 0 0 1 45.77 19.26 128.367 128.367 0 0 1 46.375 56.316A127.343 127.343 0 0 1 253.4 102.2a129.248 129.248 0 0 1 0 51.593 127.3 127.3 0 0 1-19.26 45.77 128.382 128.382 0 0 1-56.316 46.375A127.4 127.4 0 0 1 153.8 253.4 128.977 128.977 0 0 1 128 256zm0-242.287a115.145 115.145 0 0 0-23.033 2.322A113.657 113.657 0 0 0 64.1 33.232a114.622 114.622 0 0 0-41.4 50.283 113.7 113.7 0 0 0-6.659 21.452 115.4 115.4 0 0 0 0 46.065 113.66 113.66 0 0 0 17.2 40.866 114.627 114.627 0 0 0 50.282 41.407 113.75 113.75 0 0 0 21.453 6.658 115.381 115.381 0 0 0 46.065 0 113.609 113.609 0 0 0 40.866-17.2 114.622 114.622 0 0 0 41.393-50.278 113.741 113.741 0 0 0 6.659-21.453 115.4 115.4 0 0 0 0-46.065 113.662 113.662 0 0 0-17.2-40.865A114.619 114.619 0 0 0 172.485 22.7a113.74 113.74 0 0 0-21.453-6.659A115.145 115.145 0 0 0 128 13.714z" transform="translate(20 20)"/>
        <g id="MKR-01" transform="translate(49.714 49.714)">
            <circle id="Ellipse_1279" cx="98.285" cy="98.285" r="98.285" fill="url(#linear-gradient-2)"/>
            <path id="Path_7574" d="M133.943 268.929v-46.187L168.97 249.1v19.826h8.94v-21.684a5.214 5.214 0 0 0-2.077-4.154l-42.478-31.981a5.234 5.234 0 0 0-8.355 4.177v53.645zm96.869 0v-46.187L195.786 249.1v19.826h-8.94v-21.684a5.214 5.214 0 0 1 2.077-4.154L231.4 211.12a5.234 5.234 0 0 1 8.354 4.164v53.645z" class="cls-1" transform="translate(-83.958 -141.204)"/>
        </g>
    </g>
</svg>
