<svg width="256" height="256" viewBox="0 0 256 256" fill="none" xmlns="http://www.w3.org/2000/svg">
<g clip-path="url(#clip0_1749_1925)">
<path d="M128 256C198.692 256 256 198.692 256 128C256 57.3075 198.692 0 128 0C57.3075 0 -6.10352e-05 57.3075 -6.10352e-05 128C-6.10352e-05 198.692 57.3075 256 128 256Z" fill="white"/>
<path d="M171.885 51.2C153.759 51.2 138.972 66.0326 138.494 84.2144V121.057C135.155 121.057 131.816 121.535 128 121.535C124.184 121.535 120.845 121.535 117.505 122.014V84.2144C117.505 66.0326 102.241 51.2 83.6373 51.6785C65.9876 51.6785 51.677 66.5111 51.2 84.2144V172.253C51.677 190.435 66.4646 205.268 85.0683 204.789C103.195 204.311 117.505 189.956 117.505 172.253V135.41C120.845 135.41 124.184 134.932 128 134.932C131.816 134.932 135.155 134.932 138.494 134.454V171.775C138.972 189.956 153.759 204.789 172.362 204.311C190.489 203.832 204.8 189.478 204.8 171.775V84.2144C204.8 66.0326 190.012 51.2 171.885 51.2ZM84.5913 64.5972C95.5627 64.5972 104.149 73.2097 104.149 84.2144V122.971C94.6087 124.406 85.0683 127.277 76.005 131.105C72.1888 133.018 68.3727 134.932 65.0335 137.803V84.2144C65.0335 73.6881 73.6199 64.5972 84.5913 64.5972ZM104.149 172.253C104.149 183.258 95.5627 191.871 84.5913 191.871C73.6199 191.871 65.0335 183.258 65.0335 172.253V163.641C65.0335 155.985 71.2348 148.329 81.7292 144.024C88.8844 140.674 96.5167 138.76 104.626 137.325L104.149 172.253ZM171.885 191.871C160.914 191.871 152.328 183.258 152.328 172.253V133.497C161.868 132.062 171.409 129.191 180.472 125.363C184.288 123.449 188.104 121.535 191.443 118.664V172.253C191.443 183.258 182.38 191.871 171.885 191.871ZM174.747 112.923C167.592 116.272 159.96 118.186 151.851 119.621V84.2144C151.851 73.2097 160.437 64.5972 171.409 64.5972C182.38 64.5972 190.966 73.2097 190.966 84.2144V92.8269C191.443 100.961 185.242 108.138 174.747 112.923Z" fill="url(#paint0_linear_1749_1925)"/>
<path d="M128 256C119.334 256.002 110.691 255.131 102.2 253.4C85.8269 250.046 70.2744 243.501 56.43 234.139C35.8506 220.247 19.7416 200.686 10.055 177.824C6.78329 170.082 4.28611 162.034 2.59996 153.8C-0.867305 136.777 -0.867305 119.23 2.59996 102.207C5.95345 85.834 12.4979 70.2816 21.86 56.437C35.7519 35.8565 55.3144 19.7464 78.177 10.059C85.9188 6.78586 93.9657 4.28733 102.2 2.6C119.223 -0.86746 136.77 -0.86746 153.793 2.6C170.166 5.95344 185.718 12.4979 199.563 21.86C220.142 35.7519 236.251 55.314 245.938 78.176C249.212 85.9181 251.712 93.9653 253.4 102.2C256.867 119.223 256.867 136.77 253.4 153.793C250.047 170.166 243.502 185.719 234.14 199.563C220.247 220.142 200.686 236.251 177.824 245.938C170.082 249.212 162.035 251.711 153.8 253.4C145.309 255.131 136.665 256.002 128 256ZM128 13.713C120.264 13.7113 112.547 14.4892 104.967 16.035C90.3478 19.0289 76.4613 24.8724 64.1 33.232C45.7279 45.637 31.3473 63.1033 22.7 83.515C19.7777 90.4284 17.5471 97.6141 16.041 104.967C12.9451 120.166 12.9451 135.833 16.041 151.032C19.036 165.651 24.8805 179.537 33.241 191.898C45.6449 210.272 63.1108 224.655 83.523 233.305C90.4368 236.227 97.6228 238.457 104.976 239.963C120.175 243.059 135.842 243.059 151.041 239.963C165.66 236.969 179.547 231.125 191.907 222.763C210.276 210.358 224.654 192.894 233.3 172.485C236.222 165.571 238.453 158.385 239.959 151.032C243.055 135.833 243.055 120.166 239.959 104.967C236.964 90.3483 231.119 76.4625 222.759 64.102C210.357 45.7305 192.894 31.3492 172.485 22.7C165.571 19.7779 158.385 17.5474 151.032 16.041C143.452 14.4936 135.736 13.714 128 13.714V13.713Z" fill="url(#paint1_linear_1749_1925)"/>
</g>
<defs>
<linearGradient id="paint0_linear_1749_1925" x1="128" y1="51.2" x2="21.7777" y2="157.1" gradientUnits="userSpaceOnUse">
<stop stop-color="#00E8A2"/>
<stop offset="1" stop-color="#00ADE8"/>
</linearGradient>
<linearGradient id="paint1_linear_1749_1925" x1="215.808" y1="34.5595" x2="52.7359" y2="226.816" gradientUnits="userSpaceOnUse">
<stop stop-color="#B6509E"/>
<stop offset="1" stop-color="#2EBAC6"/>
</linearGradient>
<clipPath id="clip0_1749_1925">
<rect width="256" height="256" fill="white"/>
</clipPath>
</defs>
</svg>
