<svg xmlns="http://www.w3.org/2000/svg" width="256" height="256.001" viewBox="0 0 256 256.001">
    <defs>
        <linearGradient id="i5a69pkz6a" x1=".843" x2=".206" y1=".135" y2=".886" gradientUnits="objectBoundingBox">
            <stop offset="0" stop-color="#b6509e"/>
            <stop offset="1" stop-color="#2ebac6"/>
        </linearGradient>
    </defs>
    <circle cx="128" cy="128" r="128" fill="#fff"/>
    <path fill="url(#i5a69pkz6a)" d="M128 256a128.976 128.976 0 0 1-25.8-2.6 127.309 127.309 0 0 1-45.77-19.261 128.366 128.366 0 0 1-46.375-56.315A127.357 127.357 0 0 1 2.6 153.8a129.251 129.251 0 0 1 0-51.593 127.31 127.31 0 0 1 19.26-45.77 128.372 128.372 0 0 1 56.317-46.378A127.33 127.33 0 0 1 102.2 2.6a129.244 129.244 0 0 1 51.593 0 127.308 127.308 0 0 1 45.77 19.26 128.367 128.367 0 0 1 46.375 56.316A127.343 127.343 0 0 1 253.4 102.2a129.248 129.248 0 0 1 0 51.593 127.3 127.3 0 0 1-19.26 45.77 128.382 128.382 0 0 1-56.316 46.375A127.4 127.4 0 0 1 153.8 253.4 128.977 128.977 0 0 1 128 256zm0-242.287a115.145 115.145 0 0 0-23.033 2.322A113.657 113.657 0 0 0 64.1 33.232a114.622 114.622 0 0 0-41.4 50.283 113.7 113.7 0 0 0-6.659 21.452 115.4 115.4 0 0 0 0 46.065 113.66 113.66 0 0 0 17.2 40.866 114.627 114.627 0 0 0 50.282 41.407 113.75 113.75 0 0 0 21.453 6.658 115.381 115.381 0 0 0 46.065 0 113.609 113.609 0 0 0 40.866-17.2 114.622 114.622 0 0 0 41.393-50.278 113.741 113.741 0 0 0 6.659-21.453 115.4 115.4 0 0 0 0-46.065 113.662 113.662 0 0 0-17.2-40.865A114.619 114.619 0 0 0 172.485 22.7a113.74 113.74 0 0 0-21.453-6.659A115.145 115.145 0 0 0 128 13.714z"/>
    <g fill-rule="evenodd">
        <path fill="#b3d234" d="M51.038 13.515c3.442-3.923 6.58-7.271 9.577-10.075C9.959 1.8 24.7 38.7 8.2 76.2c-19.008 43.188 2.237 59.647 33.894 64.775a69.353 69.353 0 0 1-10.7-17.633C10.869 97.3 19.13 49.861 51.038 13.515" transform="translate(20734.855 17593.877) translate(-20697.865 -17543.111)"/>
        <path fill="#0095d9" d="M141.39 16.428c-4.713 13.377-13.364 28.389-25.593 43.163A122.676 122.676 0 0 1 84.73 86.734C72.086 94.989 56.4 99.86 38.863 99.86a179.556 179.556 0 0 1-28.31-1.982 57.98 57.98 0 0 0 18.958 14.956c45.8 22.318 48.689-19.141 97.143-40.178 27.209-11.814 27.309-34.909 14.735-56.228" transform="translate(20734.855 17593.877) translate(-20666.328 -17500.018)"/>
        <path fill="#eee809" d="M70.5 25.707a60.084 60.084 0 0 1 18.9 6.747c15.381 8.769 29.391 22.187 37.771 36.4 8.251-23.417 4.408-41.827-13.645-45.16-19.839-3.66-35.35-4.835-50.256-15.323C44.912-4.548 28.821-.287 14.856 12.773c.986.03 1.991.076 3.027.136 19.374 1.15 37.862 4.952 52.612 12.8" transform="translate(20734.855 17593.877) translate(-20652.107 -17552.441)"/>
        <path fill="#51b849" d="M36.326 13.475C4.419 49.82-3.842 97.259 16.682 123.3 7.466 101.5 8.106 74.311 21.1 52.6c17.292-28.9 51.976-41.5 80.446-36.265C86.791 8.488 68.3 4.691 48.935 3.536c-1.041-.061-2.046-.1-3.032-.136-3 2.8-6.134 6.152-9.577 10.075" transform="translate(20734.855 17593.877) translate(-20683.154 -17543.07)"/>
        <path fill="#00845d" d="M46.685 13.152a59.959 59.959 0 0 0-18.9-6.747C47.206 16.737 60.13 34.1 59.985 61.751c-.13 23.992-12.429 45.2-32.188 58.1a122.591 122.591 0 0 0 31.067-27.14C71.1 77.937 79.743 62.926 84.457 49.548c-8.381-14.209-22.391-27.632-37.771-36.4" transform="translate(20734.855 17593.877) translate(-20609.398 -17533.137)"/>
        <path fill="#005121" d="M94.514 107.6A47.137 47.137 0 0 1 29.2 93.448c-14.145-22.015-7.15-50.363 14.09-65.581C67.04 10.853 97.5 17.565 108.6 42.015c10.828 23.84 7.835 51.382-14.09 65.581m3.2-100.3c-28.47-5.234-63.154 7.362-80.446 36.265C4.276 65.266 3.63 92.46 12.852 114.253a69.241 69.241 0 0 0 10.7 17.638 179.548 179.548 0 0 0 28.3 1.977c17.542 0 33.228-4.871 45.867-13.125 19.764-12.9 32.062-34.112 32.188-58.1.15-27.653-12.779-45.013-32.2-55.345" transform="translate(20734.855 17593.877) translate(-20679.322 -17534.027)"/>
    </g>
</svg>
