<svg xmlns="http://www.w3.org/2000/svg" id="Group_47910" width="256" height="256.001" viewBox="0 0 256 256.001">
    <defs>
        <linearGradient id="linear-gradient" x1=".843" x2=".206" y1=".135" y2=".886" gradientUnits="objectBoundingBox">
            <stop offset="0" stop-color="#b6509e"/>
            <stop offset="1" stop-color="#2ebac6"/>
        </linearGradient>
        <style>
            .cls-3{fill:#2a373b}.cls-5{fill:#399584}.cls-6{fill:#293237}.cls-9{fill:#293439}.cls-10{fill:#2c4345}.cls-13{fill:#2a3c3f}.cls-14{fill:#2b4042}.cls-15{fill:#34736a}.cls-18{fill:#2d4949}.cls-19{fill:#2e504f}.cls-20{fill:#336e66}.cls-21{fill:#326962}.cls-22{fill:#34786d}.cls-23{fill:#2a393d}.cls-24{fill:#31655f}.cls-25{fill:#368275}.cls-27{fill:#2d4c4b}.cls-30{fill:#2f5552}.cls-31{fill:#367f73}.cls-33{fill:#357b70}.cls-34{fill:#31615c}.cls-35{fill:#2f5a56}.cls-37{fill:#305e59}.cls-40{fill:#2f5754}.cls-42{fill:#1fc8a7}.cls-43{fill:#198889}.cls-44{fill:#68fde1}.cls-47{fill:#a4e8db}
        </style>
    </defs>
    <circle id="Ellipse_1585" cx="128" cy="128" r="128" fill="#fff"/>
    <g id="Group_47909">
        <path id="Subtraction_108" fill="url(#linear-gradient)" d="M128 256a128.976 128.976 0 0 1-25.8-2.6 127.309 127.309 0 0 1-45.77-19.261 128.366 128.366 0 0 1-46.375-56.315A127.357 127.357 0 0 1 2.6 153.8a129.251 129.251 0 0 1 0-51.593 127.31 127.31 0 0 1 19.26-45.77 128.372 128.372 0 0 1 56.317-46.378A127.33 127.33 0 0 1 102.2 2.6a129.244 129.244 0 0 1 51.593 0 127.308 127.308 0 0 1 45.77 19.26 128.367 128.367 0 0 1 46.375 56.316A127.343 127.343 0 0 1 253.4 102.2a129.248 129.248 0 0 1 0 51.593 127.3 127.3 0 0 1-19.26 45.77 128.382 128.382 0 0 1-56.316 46.375A127.4 127.4 0 0 1 153.8 253.4 128.977 128.977 0 0 1 128 256zm0-242.287a115.145 115.145 0 0 0-23.033 2.322A113.657 113.657 0 0 0 64.1 33.232a114.622 114.622 0 0 0-41.4 50.283 113.7 113.7 0 0 0-6.659 21.452 115.4 115.4 0 0 0 0 46.065 113.66 113.66 0 0 0 17.2 40.866 114.627 114.627 0 0 0 50.282 41.407 113.75 113.75 0 0 0 21.453 6.658 115.381 115.381 0 0 0 46.065 0 113.609 113.609 0 0 0 40.866-17.2 114.622 114.622 0 0 0 41.393-50.278 113.741 113.741 0 0 0 6.659-21.453 115.4 115.4 0 0 0 0-46.065 113.662 113.662 0 0 0-17.2-40.865A114.619 114.619 0 0 0 172.485 22.7a113.74 113.74 0 0 0-21.453-6.659A115.145 115.145 0 0 0 128 13.714z"/>
        <g id="rai-logo" transform="translate(30.021 30.031)">
            <path id="Path_13157" d="M-264.36 126.162c-.737-.037-1.514.279-2.2-.249a3.6 3.6 0 0 1 2.2.249z" class="cls-3" transform="translate(346.98 -34.711)"/>
            <path id="Path_13158" d="M-257.8 126.836c-.613.019-1.256.262-1.805-.23a2.7 2.7 0 0 1 1.805.23z" class="cls-3" transform="translate(343.52 -35.059)"/>
            <path id="Path_13159" fill="#283036" d="M-383.958-17.875a46.138 46.138 0 0 1 5.149-6.019 97.146 97.146 0 0 1 47.989-27.977 59.449 59.449 0 0 1 9.081-1.684c.347 1-.5 1.288-1.072 1.619-3.436 1.985-6.854 4-10.3 5.964-3.711 2.11-7.365 4.317-11.076 6.431a2.025 2.025 0 0 0-1.034.933 1.481 1.481 0 0 1-.7.545 85.625 85.625 0 0 0-12.12 6.921 3.89 3.89 0 0 1-1.475.78 2.046 2.046 0 0 0-1.225.328c-6.934 3.921-13.825 7.917-20.709 11.925a4.895 4.895 0 0 1-1.5.73c-.417.08-.96.259-1-.5z" transform="translate(405.423 54.62)"/>
            <path id="Path_13160" d="M-193.223 288.446a82.816 82.816 0 0 1-16.844 3.369c-.3-.913.437-1.225.987-1.543 4.011-2.344 8.054-4.635 12.065-6.978a34.73 34.73 0 0 0 5.989-3.756 43.718 43.718 0 0 1 5.579-2.353 89.857 89.857 0 0 0 23.319-14.61 18.542 18.542 0 0 1 3.338-2.818 5.953 5.953 0 0 0 2.134-.859c4.909-2.842 9.792-5.731 14.761-8.467.361-.2.951-1.057 1.314.077a87.787 87.787 0 0 1-11.309 13.539c-.3.306-.637.574-.956.861-8.5 4.74-16.861 9.713-25.307 14.542-4.263 2.438-8.5 4.917-12.765 7.355a10.015 10.015 0 0 0-2.305 1.641z" class="cls-5" transform="translate(318.9 -96.496)"/>
            <path id="Path_13161" d="M-391.921 4.734c.568.689 1.12.189 1.6-.085 3.5-2 6.987-4.049 10.484-6.066q5.631-3.249 11.277-6.472c.323-.185.683-.452 1.027-.008a50.644 50.644 0 0 1-4.849 4.007 102.544 102.544 0 0 0-12.125 12.14 5.758 5.758 0 0 1-1.642 1.616c-2.3.681-4.2 2.153-6.261 3.292-2.033 1.121-4 2.36-6.066 3.428-.43.223-1.125.913-1.475-.188a62.483 62.483 0 0 1 5.251-8.146 25.377 25.377 0 0 1 2.776-3.517z" class="cls-6" transform="translate(413.385 32.011)"/>
            <path id="Path_13162" d="M-307.008-39.858c.149-1.106 1.237-1.143 1.914-1.557 3.078-1.877 6.229-3.635 9.353-5.436l10.845-6.257c.635-.365 1.329-.659 1.467-1.5a63.147 63.147 0 0 1 9.606-1.021c1.455-.091 2.925-.033 4.389-.043.1.888-.635 1.139-1.19 1.475-3.163 1.908-6.375 3.729-9.577 5.571a13.636 13.636 0 0 0-2.639 1.826c-2.554.766-5.206 1.1-7.8 1.684a84.673 84.673 0 0 0-14.422 4.777c-.612.261-1.205.698-1.946.481z" class="cls-6" transform="translate(367.119 55.683)"/>
            <path id="Path_13163" fill="#389181" d="M-89.677 239.74c-.145-.288-.327-.329-.618-.162q-6.13 3.545-12.27 7.074c-1.225.708-2.445 1.43-3.666 2.144a2.611 2.611 0 0 1-1.589.436c-.249-.536.191-.8.473-1.072a89.073 89.073 0 0 0 10.788-12.434 2.176 2.176 0 0 1 .852-.766c3.231-1.455 6.161-3.445 9.247-5.158.678-.376 1.344-.776 2.033-1.127.474-.241.981-.618 1.544-.153a70.913 70.913 0 0 1-6.794 11.218z" transform="translate(267.999 -85.723)"/>
            <path id="Path_13164" fill="#3a9987" d="M-176.463 303.293c-.087-.738.54-.942.987-1.2 3.814-2.236 7.643-4.441 11.47-6.661q12.373-7.156 24.756-14.293a8.459 8.459 0 0 1 3.167-1.386q-1.914 1.743-3.821 3.487a83.177 83.177 0 0 1-12.437 9.285 93.023 93.023 0 0 1-24.122 10.768z" transform="translate(302.138 -111.34)"/>
            <path id="Path_13165" d="M-405.681 34.064c.489.655.952.129 1.341-.09 3.246-1.83 6.46-3.716 9.712-5.532.842-.469 1.582-1.288 2.71-1.057-.472 1.428-1.588 2.436-2.418 3.625-1.776 2.546-3.369 5.206-4.934 7.876-.3.512-.518 1.1-1.155 1.327-1.374.064-2.36 1-3.461 1.622-1.9 1.086-3.8 2.192-5.7 3.274-.55.312-1.117.893-1.868.391a69.659 69.659 0 0 1 5.777-11.435z" class="cls-9" transform="translate(419.115 14.34)"/>
            <path id="Path_13166" d="M-259.018-47.123c1.723-1.661 3.965-2.5 5.956-3.738 2.109-1.312 4.287-2.514 6.439-3.758a2.707 2.707 0 0 0 1.082-1.072 56.68 56.68 0 0 1 8.3.32c.526.216 1.106-.044 1.629.185l.961.072c.428.2.91-.014 1.34.17v-.014c.129.731-.466.945-.919 1.225-2.067 1.3-4.195 2.5-6.333 3.675-1.2.661-2.276 1.512-3.474 2.176-1.949.247-3.922-.139-5.864.24a12.223 12.223 0 0 1-2.262.116 3.716 3.716 0 0 0-1.531.153c-1.259.139-2.514.316-3.768.5a1.665 1.665 0 0 1-1.556-.25z" class="cls-9" transform="translate(343.229 55.694)"/>
            <path id="Path_13167" d="M-146.385-32.343a32.555 32.555 0 0 1 5.652 3.145c1.264.774 2.461 1.66 3.687 2.5.132.447-.23.622-.5.784-2.144 1.3-4.259 2.664-6.522 3.765a2.165 2.165 0 0 1-1.21-.407c-2.481-1.483-4.939-3.014-7.542-4.283a1.43 1.43 0 0 1-.67-.59c-.175-.659.285-.943.743-1.2 2.147-1.187 4.235-2.492 6.362-3.714z" class="cls-10" transform="translate(290.713 44.061)"/>
            <path id="Path_13168" fill="#389282" d="M-199.622 309.039c-.935 1.392-2.527 1.862-3.862 2.652-4.728 2.792-9.518 5.48-14.28 8.218a1.744 1.744 0 0 0-1.034 1.238l-1.2.077c-.529.217-1.108-.03-1.638.179a27.88 27.88 0 0 1-5.972.264c-.288-.784.407-.956.829-1.2 3.412-1.975 6.8-3.987 10.236-5.926a16.244 16.244 0 0 0 3.041-2.118c4.288-1.047 8.6-2.016 12.786-3.445.359-.124.748-.26 1.094.061z" transform="translate(327.627 -125.823)"/>
            <path id="Path_13169" d="M-414.7 57.884c1.571-.259 2.751-1.318 4.091-2.039 1.914-1.03 3.761-2.185 5.656-3.253.363-.205.781-.654 1.246-.115a1.54 1.54 0 0 1-.279 1.46 72.2 72.2 0 0 0-3.472 7.356c-.2.426-.3.914-.79 1.129a5.48 5.48 0 0 0-2.611 1.021c-1.8 1.089-3.643 2.111-5.469 3.158-.491.282-.975.779-1.642.383a54.73 54.73 0 0 1 3.271-9.1z" class="cls-3" transform="translate(422.358 1.954)"/>
            <path id="Path_13170" fill="#388d7e" d="M-253.936 326.183a48.264 48.264 0 0 1-9.285-1.048 2.527 2.527 0 0 1 1.22-1.1c2.364-1.4 4.74-2.783 7.147-4.111.828-.459 1.541-1.078 2.353-1.56 3.51.342 7.019-.315 10.525.015 1 .744.087 1.095-.361 1.393-1.355.9-2.782 1.691-4.2 2.5-2.082 1.191-4.186 2.348-6.211 3.639-.359.231-.728.478-1.192.267z" transform="translate(345.321 -130.528)"/>
            <path id="Path_13171" d="M-228.571-47.417c1.187-1.57 3.082-2.08 4.648-3.08 1.616-1.032 3.313-1.938 4.977-2.9a1.991 1.991 0 0 0 .792-.817 38.526 38.526 0 0 1 8.643 1.572 3.9 3.9 0 0 0 .892.077c.3.868-.492 1-.937 1.263-1.631.953-3.244 1.938-4.895 2.858a7.786 7.786 0 0 0-3.008 2.285c-2.6-.1-5.16-.579-7.754-.729a6.924 6.924 0 0 0-2.038-.175c-.466-.018-.959.044-1.319-.357z" class="cls-3" transform="translate(328.072 54.948)"/>
            <path id="Path_13172" d="M-182.959-47.306a60.839 60.839 0 0 1 9.324 3.356c.362.813-.326 1.061-.791 1.351-2.245 1.4-4.556 2.68-6.845 4-1.785-.051-3.359-.906-5.03-1.378-1.586-.447-3.292-.54-4.741-1.433-.23-.865.455-1.124 1-1.434 1.838-1.053 3.632-2.167 5.5-3.17a4.391 4.391 0 0 0 1.592-1.3z" class="cls-13" transform="translate(309.412 51.511)"/>
            <path id="Path_13173" d="M-425.188 100.851a54.768 54.768 0 0 1 1.8-10.142c1.019.021 1.734-.674 2.546-1.115 1.69-.919 3.321-1.947 5.032-2.833.459-.237 1.112-.76 1.419.25-.734 3.233-1.275 6.512-2.328 9.669-2.425 1.289-4.8 2.661-7.177 4.043-.4.237-.821.533-1.295.128z" class="cls-13" transform="translate(425.95 -15.073)"/>
            <path id="Path_13174" d="M-171.3-35.456c1.5-1.475 3.558-2.058 5.206-3.285.794-.591 2.029-.665 2.314-1.883a46.771 46.771 0 0 1 8.55 4.157c-1.036 1.4-2.722 1.838-4.079 2.765a24.669 24.669 0 0 1-2.356 1.318.881.881 0 0 0-.559.792c-.43.335-.829.084-1.2-.1a72.782 72.782 0 0 0-6.881-2.932c-.395-.15-.97-.191-.995-.832z" class="cls-14" transform="translate(299.562 48.184)"/>
            <path id="Path_13175" d="M-350.9 289.491a58.661 58.661 0 0 1-7.778-6.022c2.236-1.531 4.629-2.79 7-4.1a1.39 1.39 0 0 1 1.056.4c1.9 1.488 3.828 2.957 5.856 4.272a1.365 1.365 0 0 1 .786.969 1.124 1.124 0 0 1-.632.919c-2.116 1.162-4.117 2.513-6.288 3.562z" class="cls-15" transform="translate(392.84 -111.148)"/>
            <path id="Path_13176" fill="#388c7d" d="M-61.259 201.15a56.487 56.487 0 0 1-3.094 8.033c-3.332 2.115-6.807 3.987-10.22 5.964a1.505 1.505 0 0 1-1.455.258c-.22-.411.013-.745.2-1.072a67.857 67.857 0 0 0 3.711-7.318 1.593 1.593 0 0 1 .721-.872c2.612-.964 4.827-2.657 7.259-3.954.57-.306 1.13-.629 1.7-.941.368-.206.752-.475 1.178-.098z" transform="translate(252.179 -72.108)"/>
            <path id="Path_13177" d="M-425.911 111.047c1.511-.3 2.612-1.391 3.948-2.035 1.072-.518 2.085-1.173 3.129-1.761a2.014 2.014 0 0 1 1.215-.351 2.679 2.679 0 0 1 .087 1.641c-.328 2.373-.624 4.752-.78 7.146a1.381 1.381 0 0 1-.242.72c-2.37.7-4.311 2.235-6.462 3.362-.5.26-.958.827-1.623.345v-.266c.249-.962-.081-1.962.186-2.922a27.312 27.312 0 0 1 .543-5.878z" class="cls-14" transform="translate(426.673 -25.27)"/>
            <path id="Path_13178" fill="#389081" d="M-244.731 325.005l4.747-2.751c2.22-1.287 4.448-2.561 6.653-3.876.338-.2.812-.357.861-.879a3.2 3.2 0 0 1 2.177-.59c2.262-.2 4.5-.526 6.745-.883.486-.077 1.021-.277 1.442.2-.456 1.106-1.564 1.407-2.462 1.932-3.543 2.073-7.12 4.089-10.667 6.155-.339.2-.813.354-.863.876a45.115 45.115 0 0 1-8.632-.187z" transform="translate(336.116 -129.347)"/>
            <path id="Path_13179" d="M-46.85 104.7a40.866 40.866 0 0 1 1.031 7.5c.24 1.94.235 1.932-1.363 2.833-1.419.8-2.814 1.649-4.234 2.45a1.923 1.923 0 0 0-1.1 1.854c0 .525.278 1.239-.528 1.521a1.011 1.011 0 0 1-.407-.9c.055-3.594-.41-7.155-.668-10.727.1-.436.481-.564.819-.751 2.182-1.198 4.342-2.444 6.45-3.78z" class="cls-15" transform="translate(241.226 -24.179)"/>
            <path id="Path_13180" d="M-134.688-16.677c1.743-1.394 3.819-2.243 5.657-3.482.459-.306.9-.632 1.351-.949a48.677 48.677 0 0 1 6.759 5.13c.113.964-.729 1.177-1.295 1.514-1.72 1.025-3.477 1.987-5.177 3.048a.393.393 0 0 1-.251 0c-2.45-1.466-4.67-3.256-6.991-4.907-.1-.071-.094-.226-.053-.354z" class="cls-18" transform="translate(281.349 38.468)"/>
            <path id="Path_13181" d="M-103.546-1.835a58.4 58.4 0 0 1 5.941 6.2c.031.874-.735 1.064-1.266 1.419-1.586 1.061-3.383 1.781-4.882 2.986-.453.111-.735-.187-1.007-.454q-2.49-2.45-4.938-4.94a1.26 1.26 0 0 1-.459-.9c.225-.694.879-.9 1.419-1.22 1.724-1.039 3.548-1.917 5.191-3.092z" class="cls-19" transform="translate(269.126 28.873)"/>
            <path id="Path_13182" d="M-418.664 190.494a47.154 47.154 0 0 1-2.336-8.033c.236-.635.86-.818 1.363-1.111 1.445-.842 2.9-1.67 4.348-2.5.491-.281 1-.581 1.479.042a44.379 44.379 0 0 1 2.017 7.866 38.866 38.866 0 0 1-6.377 3.765.567.567 0 0 1-.494-.029z" class="cls-19" transform="translate(423.864 -60.935)"/>
            <path id="Path_13183" d="M-48.243 96.725c-.034.124-.028.31-.109.362a33.712 33.712 0 0 1-6.891 3.854 1.286 1.286 0 0 1-.548-.982c-.291-2.044-.8-4.047-1.119-6.085a1.837 1.837 0 0 1 1.085-1.856c1.933-1.1 3.849-2.23 5.775-3.34a46.385 46.385 0 0 1 1.806 8.047z" class="cls-20" transform="translate(242.62 -16.199)"/>
            <path id="Path_13184" d="M-52.271 81.251c-.345 1.049-1.447 1.12-2.19 1.636a33.482 33.482 0 0 1-3.683 2.12 1.119 1.119 0 0 0-.647 1.256.4.4 0 0 1-.309-.063.4.4 0 0 1-.168-.265c-.645-2.623-1.579-5.168-2.112-7.822a1.137 1.137 0 0 1 .493-.871 39.625 39.625 0 0 1 6.27-3.485 41.219 41.219 0 0 1 2.345 7.492z" class="cls-21" transform="translate(244.841 -8.771)"/>
            <path id="Path_13185" d="M-357.212 274.4c-2.111 1.263-4.218 2.533-6.338 3.779a2.313 2.313 0 0 1-.74.144 64.213 64.213 0 0 1-5.659-5.2c.022-.128.045-.283.145-.347a32.838 32.838 0 0 1 6.788-3.752c1.579.818 2.652 2.247 4 3.35.689.575 1.699.92 1.804 2.026z" class="cls-20" transform="translate(398.447 -106.003)"/>
            <path id="Path_13186" d="M-343.188 295.04c.988-1.128 2.44-1.556 3.619-2.395 1.037-.737 2.408-.98 3.16-2.136 2.005.56 3.653 1.821 5.436 2.8.666.367 1.615.445 1.86 1.4a38.635 38.635 0 0 1-5.87 3.617c-.557.328-1.005.978-1.8.823a45.3 45.3 0 0 1-6.405-4.109z" class="cls-22" transform="translate(385.13 -116.696)"/>
            <path id="Path_13187" d="M-412.772 79.615c-.459-.471-.8.017-1.119.191-2.2 1.225-4.376 2.5-6.584 3.717-.322.178-.812.972-1.125-.057a35.286 35.286 0 0 1 1.818-6.7 58.123 58.123 0 0 0 6.638-3.638c.677-.373 1.367-.724 2.052-1.082.315-.165.632-.32.91.064a.773.773 0 0 1 .058.85c-.7 1.991-1.355 3.991-2.02 5.992-.097.296-.138.707-.628.663z" class="cls-23" transform="translate(424.162 -7.828)"/>
            <path id="Path_13188" d="M-190.487-49.11c.333.656-.23.812-.6 1.034q-3.08 1.815-6.177 3.6c-.481.276-1.013.474-1.257 1.032a1.1 1.1 0 0 1-1.085.215c-1.85-.367-3.69-.778-5.562-1.023a1.188 1.188 0 0 1-.864-.5c-.42-.639 0-.876.5-1.156q3.507-1.978 6.981-4.014c.42-.247.959-.413 1.072-1.006a29.936 29.936 0 0 1 5.908 1.613 8.544 8.544 0 0 1 1.084.205z" class="cls-23" transform="translate(316.94 53.315)"/>
            <path id="Path_13189" d="M-57.369 66.639a56.568 56.568 0 0 1-5.254 3.181c-.476.289-1.016.481-1.26 1.042-.4.043-.52-.265-.616-.536-.737-2.056-1.55-4.082-2.316-6.125a1.343 1.343 0 0 1-.069-.758 6.821 6.821 0 0 1 2.7-1.864 21.839 21.839 0 0 1 3.932-2.122 42.636 42.636 0 0 1 2.883 7.182z" class="cls-24" transform="translate(247.595 -1.649)"/>
            <path id="Path_13190" d="M-368.136 263.664a75.218 75.218 0 0 0-6.973 3.879 68.751 68.751 0 0 1-5.206-5.69c.792-1.038 2.037-1.393 3.094-2.024a25.7 25.7 0 0 1 3.6-2.013c.963.378 1.439 1.3 2.157 1.955.95.864 1.843 1.794 2.73 2.724.304.319.788.583.598 1.169z" class="cls-21" transform="translate(403.61 -100.421)"/>
            <path id="Path_13191" d="M-47.935 161.106a58.063 58.063 0 0 1-1.3 8.542c-2.4 1.076-4.613 2.481-6.886 3.783-.6.341-1.216.931-1.991.312a3.211 3.211 0 0 1 .2-1.991c.364-1.706.7-3.419 1.225-5.088a2.181 2.181 0 0 1 1.011-.969c2.037-1.044 3.925-2.359 5.979-3.365.667-.329 1.057-.995 1.765-1.224z" class="cls-25" transform="translate(243.27 -52.263)"/>
            <path id="Path_13192" d="M-378.212 252.247a72.994 72.994 0 0 1-6.73 3.888 50.13 50.13 0 0 1-4.664-5.959c.181-.549.68-.766 1.119-1.011 1.422-.8 2.844-1.608 4.251-2.442a1.6 1.6 0 0 1 1.325-.352c1.583 1.155 2.521 2.88 3.789 4.315.387.437 1.1.762.91 1.561z" class="cls-24" transform="translate(408.235 -94.697)"/>
            <path id="Path_13193" d="M-52.23 128.294c-.482-2.291.528-3.648 2.63-4.471.981-.383 1.8-1.183 2.778-1.574a2.166 2.166 0 0 0 1.623-2.6 30.176 30.176 0 0 1 .47 4.933c.069 1.4.033 2.808.044 4.211a2.844 2.844 0 0 1-1.187.964c-1.8.947-3.5 2.056-5.29 3.01a1.674 1.674 0 0 0-.795 1.378c-.077.372-.153 1-.753.344a13.122 13.122 0 0 1 .48-6.195z" class="cls-22" transform="translate(240.608 -31.619)"/>
            <path id="Path_13194" fill="#37887a" d="M-56.709 194.718c-2.092.7-3.81 2.092-5.747 3.075-1.436.729-2.648 1.936-4.359 2.09a.9.9 0 0 1-.041-.971c.8-1.838 1.521-3.706 2.2-5.589a1.244 1.244 0 0 1 .383-.506c2.586-1.19 4.977-2.727 7.45-4.134.6-.341 1.181-.963 1.991-.443a38.479 38.479 0 0 1-1.87 6.478z" transform="translate(247.629 -65.674)"/>
            <path id="Path_13195" d="M-426.641 129.38c1.493-.332 2.6-1.41 3.929-2.055.919-.445 1.768-1.032 2.67-1.516.343-.185.735-.553 1.133-.052a2.619 2.619 0 0 1 .371 2.22c-.3 2.366.117 4.717.027 7.074a6.434 6.434 0 0 1-.147 1.788c-.481.689-.674.217-.766-.23a12.667 12.667 0 0 1-.081-2.583c0-.832-.289-1.005-1.007-.571-1.587.961-3.167 1.941-4.844 2.74-.473.225-1.072.608-1.283-.328z" class="cls-10" transform="translate(426.673 -34.536)"/>
            <path id="Path_13196" d="M-301.3 316.389a39.236 39.236 0 0 1-6.73-2.567c-.009-.563.4-.832.8-1.072 2.23-1.337 4.553-2.517 6.708-3.981a1.216 1.216 0 0 1 .612-.153 35.163 35.163 0 0 1 6.679 2.144c.124.719-.429.984-.9 1.263-1.63.971-3.256 1.949-4.915 2.868a18.642 18.642 0 0 0-2.254 1.498z" class="cls-25" transform="translate(367.624 -125.71)"/>
            <path id="Path_13197" d="M-415.563 171.853c-1.433.077-2.381 1.178-3.593 1.728-1.166.529-2.243 1.254-3.359 1.893a42.759 42.759 0 0 1-1.531-7.244c1.991-1 3.885-2.174 5.836-3.246.459-.254.963-.866 1.572-.186.355 1.861.8 3.7 1.135 5.567.091.486.323 1.007-.06 1.487z" class="cls-27" transform="translate(425.38 -53.947)"/>
            <path id="Path_13198" fill="#2c4647" d="M-426.667 142.936c.323.55.708.288 1.08.077 1.753-1 3.513-1.991 5.249-3.015.874-.517 1.148-.364 1.165.689.016 1.18-.312 2.395.221 3.545a2.712 2.712 0 0 1 .253 2.355c-.894 1.122-2.319 1.434-3.432 2.229a23.61 23.61 0 0 1-2.58 1.485c-.459.246-1.014.666-1.435-.1l-.077-.969c-.253-.608.044-1.272-.192-1.881a21.32 21.32 0 0 1-.253-4.41z" transform="translate(426.703 -41.608)"/>
            <path id="Path_13199" d="M-108.577-6.341c-.536 1.367-2.024 1.439-3.016 2.191-1.08.818-2.436 1.225-3.463 2.151-.576.145-.828-.341-1.185-.613-1.158-.884-2.21-1.9-3.345-2.81-.306-.249-.789-.427-.65-.988 1.184-1.387 2.952-1.87 4.406-2.84.743-.5 1.639-.783 2.1-1.635a17.81 17.81 0 0 1 3.5 3.166 5.181 5.181 0 0 0 1.651 1.378z" class="cls-27" transform="translate(274.152 33.379)"/>
            <path id="Path_13200" fill="#388e7e" d="M-79.839 223.553c2.955-1.288 5.611-3.12 8.435-4.644 1.041-.561 1.928-1.455 3.192-1.572a42.581 42.581 0 0 1-2.709 5.73c-1.958.37-3.455 1.673-5.146 2.576-2.2 1.174-4.339 2.458-6.508 3.682a2.172 2.172 0 0 1-1.2.43c-.212-.365-.017-.672.169-.957 1.06-1.624 2.144-3.232 3.156-4.888.129-.21.288-.445.611-.357z" transform="translate(256.038 -80.261)"/>
            <path id="Path_13201" d="M-97.556 14.879c.485-1.266 1.85-1.348 2.772-2.024 1.116-.82 2.517-1.23 3.434-2.35a39.048 39.048 0 0 1 4.18 5.1c.306.511-.021.827-.392 1.05a42.561 42.561 0 0 1-5.79 3.245.914.914 0 0 1-.795-.344c-1.067-1.278-2.149-2.543-3.19-3.845a.823.823 0 0 1-.219-.828z" class="cls-30" transform="translate(262.873 22.726)"/>
            <path id="Path_13202" d="M-416.349 198.77c1.805-1.034 3.606-2.079 5.422-3.1a10.872 10.872 0 0 1 1.289-.528c.084.025.2.042.23.107a18.3 18.3 0 0 1 2.2 6.1c-1.87 1.262-3.853 2.337-5.819 3.445a.936.936 0 0 1-1.085-.043 37.252 37.252 0 0 1-2.237-5.981z" class="cls-30" transform="translate(421.549 -69.212)"/>
            <path id="Path_13203" d="M-305.926 306.44c-2.631 1.74-5.589 2.949-8.065 4.938a33.661 33.661 0 0 1-6.016-2.826c1.116-1.236 2.688-1.778 4.048-2.64 1.187-.753 2.412-1.446 3.6-2.207a29.347 29.347 0 0 1 6.309 2.392c.111.054.124.212.124.343z" class="cls-31" transform="translate(373.59 -123.267)"/>
            <path id="Path_13204" fill="#378a7b" d="M-258.22 318.206c-.113.924-1.017 1-1.583 1.337-2.909 1.761-5.875 3.422-8.821 5.119a24.35 24.35 0 0 1-5.408-1.045c-.159-.481.178-.752.489-.945 3-1.855 6.023-3.656 9.123-5.339a43.713 43.713 0 0 1 5.059.4 1.507 1.507 0 0 1 1.141.473z" transform="translate(350.723 -130.051)"/>
            <path id="Path_13205" d="M-46.384 154.426c-.659 1.55-2.328 1.719-3.522 2.522-1.584 1.067-3.292 1.95-4.947 2.909a.613.613 0 0 1-.249-.561 44.153 44.153 0 0 1 1.019-6.042c1.761-1.215 3.65-2.22 5.52-3.255a6.911 6.911 0 0 0 2.7-2.313 39.563 39.563 0 0 1-.521 6.74z" class="cls-31" transform="translate(241.718 -45.581)"/>
            <path id="Path_13206" d="M-45.023 142.8a2.564 2.564 0 0 1-1.644 2.1c-1.821.955-3.571 2.05-5.349 3.088a1.7 1.7 0 0 1-.987.241 4.834 4.834 0 0 1 .3-4.4c-.062-1.65 1.056-2.345 2.324-3 1.837-.942 3.621-1.975 5.429-2.968a34.459 34.459 0 0 1-.073 4.939z" class="cls-33" transform="translate(240.876 -40.688)"/>
            <path id="Path_13207" d="M-317.621 301.329c-.663 1.114-1.892 1.432-2.909 2.042-1.54.923-3.11 1.8-4.67 2.69a29.867 29.867 0 0 1-5.228-2.828c2.456-1.608 5-3.069 7.6-4.441a.826.826 0 0 1 .853.077c1.148.576 2.327 1.092 3.5 1.617.375.16.834.298.854.843z" class="cls-33" transform="translate(378.775 -120.774)"/>
            <path id="Path_13208" d="M-386.23 241.469c-1.473.277-2.527 1.378-3.837 1.977-1 .459-1.929 1.1-2.889 1.657a38.964 38.964 0 0 1-3.377-4.921.765.765 0 0 1 .333-.536 70.674 70.674 0 0 1 6.153-3.5 1.119 1.119 0 0 1 .777.612c.822 1.244 1.72 2.435 2.544 3.675.202.3.505.606.296 1.036z" class="cls-34" transform="translate(411.584 -89.626)"/>
            <path id="Path_13209" d="M-405.291 224.962a35.279 35.279 0 0 1-2.889-5.7c1.965-.485 3.522-1.779 5.277-2.68.56-.287 1.066-.787 1.79-.5.946 1.46 1.689 3.035 2.527 4.555a1.034 1.034 0 0 1 .094.978c-1.82 1.27-3.814 2.248-5.722 3.369a.881.881 0 0 1-1.076-.024z" class="cls-35" transform="translate(417.482 -79.595)"/>
            <path id="Path_13210" d="M-62.765 54.222a50.7 50.7 0 0 1-6.508 3.878c-.131.012-.3.01-.351-.1-.86-1.741-2.007-3.356-2.335-5.331 1.378-1.248 3.12-1.914 4.67-2.887a3.571 3.571 0 0 1 1.983-.842 31.593 31.593 0 0 1 2.541 5.282z" class="cls-34" transform="translate(250.109 3.585)"/>
            <path id="Path_13211" d="M-77.082 29.3a33.955 33.955 0 0 1 2.986 4.69c.141.649-.412.792-.789 1.014q-2.728 1.608-5.446 3.237c-.043 0-.1.014-.126-.009a12.709 12.709 0 0 1-3.353-5.3 2.493 2.493 0 0 1 1.163-.983c1.384-.784 2.769-1.566 4.13-2.391.44-.265.885-.567 1.435-.258z" class="cls-35" transform="translate(256.008 13.432)"/>
            <path id="Path_13212" fill="#368578" d="M-52.221 183.284c-1.956.356-3.339 1.828-5.075 2.612-1.427.645-2.59 1.832-4.222 2.053a.647.647 0 0 1-.153-.7c.441-1.5.925-2.993 1.409-4.482a.792.792 0 0 1 .524-.517c1.958-.344 3.327-1.838 5.071-2.595 1.225-.536 2.174-1.717 3.691-1.55a29.881 29.881 0 0 1-1.245 5.179z" transform="translate(245.008 -60.717)"/>
            <path id="Path_13213" d="M-402.427 230.508c1.869-.45 3.307-1.74 4.981-2.57a6.211 6.211 0 0 1 1.736-.8c1.14.8 2.885 3.654 2.854 4.663l-6.508 3.9a38.158 38.158 0 0 1-3.063-5.193z" class="cls-37" transform="translate(414.618 -85.142)"/>
            <path id="Path_13214" d="M-77.032 42.957c1.034-1.282 2.616-1.749 3.92-2.628a9.253 9.253 0 0 0 2.322-1.563 32.84 32.84 0 0 1 2.89 5.112c-2.152 1.3-4.282 2.635-6.557 3.719a.5.5 0 0 1-.566-.208 38.847 38.847 0 0 1-2.116-3.955.453.453 0 0 1 .107-.477z" class="cls-37" transform="translate(252.703 8.654)"/>
            <path id="Path_13215" fill="#37877a" d="M-269.88 316.695c-2.383 1.75-5.058 3.019-7.564 4.563a4.227 4.227 0 0 0-1.784 1.411 24.387 24.387 0 0 1-5.185-1.286c-.351-.755.283-.972.722-1.247 1.556-.978 3.164-1.87 4.774-2.756 1.054-.579 1.991-1.32 3.01-1.945 1.939-.062 3.782.561 5.68.8a.407.407 0 0 1 .271.16.408.408 0 0 1 .076.3z" transform="translate(355.922 -129.104)"/>
            <path id="Path_13216" fill="#368577" d="M-281.144 314.361c-.913 1.531-2.662 1.864-4 2.778-1.157.789-2.419 1.423-3.648 2.1-.361.2-.643.415-.65.861a26.466 26.466 0 0 1-5.176-1.6c.359-1.265 1.637-1.4 2.52-1.991 1.8-1.21 3.844-2.037 5.533-3.432a.967.967 0 0 1 .964-.162q1.871.434 3.745.854c.312.075.696.131.712.592z" transform="translate(360.953 -127.825)"/>
            <path id="Path_13217" d="M-425.6 157.237c.775.459 1.263-.205 1.838-.485 1.829-.893 3.392-2.283 5.377-2.889a8.845 8.845 0 0 1 .749 5.444c-1.736 1-3.454 2.023-5.218 2.967-.6.322-1.136.964-1.963.667a33.679 33.679 0 0 1-.782-5.7z" class="cls-18" transform="translate(426.154 -48.656)"/>
            <path id="Path_13218" d="M-79.8 25.059a71.7 71.7 0 0 0-6.635 3.675 5.9 5.9 0 0 1-2.833-3.868c1.79-1.072 3.577-2.153 5.373-3.216.408-.241.872-.405.872-1a31.883 31.883 0 0 1 3.223 4.4z" class="cls-40" transform="translate(258.727 17.67)"/>
            <path id="Path_13219" d="M-403.044 211.936a42.008 42.008 0 0 0-5.339 2.909c-.545.306-1.034.6-1.638.2a21.921 21.921 0 0 1-1.857-4.127c1.761-.354 3.076-1.563 4.6-2.373a8.839 8.839 0 0 1 2.182-1.021 7.434 7.434 0 0 1 2.052 4.412z" class="cls-40" transform="translate(419.324 -75.376)"/>
            <path id="Path_13220" d="M-426.493 126.871c-.045.975.246 1.972-.186 2.922a8.116 8.116 0 0 1 .186-2.922z" class="cls-10" transform="translate(426.715 -35.215)"/>
            <path id="Path_13221" d="M-426.162 154.908c.417.591.147 1.252.192 1.881a3.607 3.607 0 0 1-.192-1.881z" class="cls-18" transform="translate(426.453 -49.176)"/>
            <path id="Path_13222" d="M-215.651 333.636c.51-.39 1.088-.153 1.638-.178a2.577 2.577 0 0 1-1.638.178z" class="cls-5" transform="translate(321.639 -138.055)"/>
            <path id="Path_13223" fill="#192123" d="M-402.831 88.452l-2.051-4.406-2.317-6.218-2.093-8.029c-.378-2.428-1.209-4.775-1.3-7.255l-.75-5.443-.017-2.589c.063-3.8-.244-7.6.013-11.4a26.267 26.267 0 0 0 .508-4.152c.29-1.807.523-3.624.781-5.435.762-3.286 1.348-6.613 2.337-9.845l2.593-7.509c.989-1.754 1.649-3.657 2.493-5.475.685-1.475 1.444-2.916 2.171-4.372 1.7-2.711 3.351-5.451 5.11-8.121a30.74 30.74 0 0 1 3.44-4.584c2.255-2.656 4.655-5.176 7.017-7.732 2.812-3.048 6.093-5.534 9.166-8.268a19.036 19.036 0 0 1 2.476-1.608 87.27 87.27 0 0 1 13.973-8.04c.11-.047.188-.17.281-.257a87.214 87.214 0 0 1 20.378-6.495 17.836 17.836 0 0 0 3.722-.759c1.838.031 3.6-.642 5.444-.525.391-.293.909.062 1.3-.252l2.332-.007a76.787 76.787 0 0 1 9.584 0 65.5 65.5 0 0 1 8.035.774l7.512 1.311 9.845 2.854 9.072 3.868c3.234 1.507 6.208 3.479 9.325 5.195l7.258 5.177 5.18 4.412q2.98 3.241 6.216 6.228a52.225 52.225 0 0 0 4.141 4.931 22.575 22.575 0 0 0 2.83 3.874 44.251 44.251 0 0 0 3.379 5.2 29.019 29.019 0 0 0 2.577 4.639l2.589 5.44 2.881 7.521 2.337 8.28 1.325 7.25a87.482 87.482 0 0 1 .824 11.6c0 .109.117.22.179.329.04 2.159-.383 4.3-.211 6.463a41.487 41.487 0 0 0-.295 4.4l-1.008 6.737-1.6 7.253-1.78 5.7q-1.338 3.489-2.68 6.976l-4.615 9.084-3.938 6.2a117.783 117.783 0 0 1-12.083 14.028c-2.931 2.6-5.884 5.173-9.057 7.483a89.681 89.681 0 0 1-22.528 11.951c-.2.077-.391.179-.585.269a115.963 115.963 0 0 1-13.993 3.666c-3.446.525-6.891 1-10.365 1.272-3.714-.083-7.427.389-11.143 0l-6.464-.564-6.23-1.054-5.426-1.28-6.719-2.083-6.508-2.618-5.207-2.542c-1.865-1.063-3.733-2.121-5.59-3.191-.555-.318-1.091-.671-1.636-1.009l-7.481-5.414-5.763-5.154-5.451-5.7-4.671-5.7-3.592-5.186a51.97 51.97 0 0 0-2.854-4.662c-.6-1.936-2-3.495-2.623-5.432z" transform="translate(419.111 48.108)"/>
            <path id="Path_13224" d="M-231.369-40.463h-9.584c1.14-.542 2.347-.153 3.522-.241.9-.065 1.8-.014 2.7-.015 1.113.146 2.276-.301 3.362.256z" class="cls-6" transform="translate(334.235 48.252)"/>
            <path id="Path_13225" d="M-246.881-40.169c-.366.423-.858.2-1.3.252.369-.425.863-.193 1.3-.252z" class="cls-6" transform="translate(337.831 47.963)"/>
            <path id="Path_13226" d="M-294.353 135.636a4.977 4.977 0 0 1-5.41.2c-1.254-4.122-2.19-8.328-3.324-12.48-2.881-10.553-5.651-21.136-8.486-31.7a3.623 3.623 0 0 1-.153-1.766c.031-.342.286-.518.526-.7 2.687-1.308 5.679-1.512 8.5-2.335a13.386 13.386 0 0 1 1.751-.383 3.109 3.109 0 0 1 1.615 3.183c.9-1.7 1.072-3.9 3.419-4.4a17.809 17.809 0 0 0 2.144-.41.955.955 0 0 1 .6.159 2.179 2.179 0 0 1 .6 1.264q3.675 15.63 7.427 31.244a4.169 4.169 0 0 1 .172 1.018c-.123 1.392-1.022 2.438-1.654 3.594-2.225 4.069-4.42 8.154-6.718 12.183a6.331 6.331 0 0 1-1 1.334z" class="cls-42" transform="translate(369.495 -14.29)"/>
            <path id="Path_13227" d="M-200.175 165.165a2.172 2.172 0 0 1-.986 1.022 32.649 32.649 0 0 1-6.475 1.756c-8.984 2.121-17.96 4.271-26.95 6.377-4.41 1.032-8.809 2.109-13.226 3.112a2.406 2.406 0 0 1-1.4.072c-.635-.463-.18-.924.037-1.349 1.689-3.3 3.552-6.5 5.336-9.749 3.134-5.7 6.235-11.417 9.417-17.088.593-1.056.89-2.36 2.106-2.993a10.641 10.641 0 0 1 3.392 1.519c5.628 3.073 11.268 6.125 16.893 9.206 3.735 2.044 7.54 3.964 11.178 6.189a7.228 7.228 0 0 1 .676 1.926z" class="cls-42" transform="translate(338.509 -44.904)"/>
            <path id="Path_13228" d="M-260.369 197.029c3.939-.689 7.79-1.761 11.678-2.671 11.877-2.776 23.74-5.61 35.611-8.413a5.488 5.488 0 0 1 .9-.066 65.916 65.916 0 0 1-7.051 4.5q-20.4 12.571-40.841 25.083c-1.615.991-3.216 2-4.845 2.972a4.952 4.952 0 0 1-6.626-1c-.289-.413 0-.739.178-1.066 3.388-6.193 6.774-12.387 10.214-18.551.185-.327.339-.703.782-.788z" class="cls-43" transform="translate(349.528 -64.6)"/>
            <path id="Path_13229" d="M-279.931 56.06l-.536.005c-.27.172-.477.14-.593-.184-.709-.161 1-.184.012-.505-1.433-.468-3.026-.809-3.675-2.481-.122-.312-.322-.613-.126-.97 3.317-2 6.649-3.969 9.953-5.992q14.93-9.151 29.841-18.328a5.18 5.18 0 0 1 7.078.969 63.74 63.74 0 0 1-3.681 6.967c-2.173 4.022-4.4 8.012-6.6 12.02a3.614 3.614 0 0 1-1.187 1.5q-5.953 1.684-12.03 2.833c-1.194.319-2.387.647-3.6.913-2.079.548-4.159 1.095-6.272 1.505q-3.476.766-6.929 1.622a2.689 2.689 0 0 1-1.654.123z" class="cls-43" transform="translate(356.131 14.696)"/>
            <g id="Group_47908" transform="translate(53.324 43.264)">
                <path id="Path_13230" d="M-261.747 150.712l-11.178 20.412a4.376 4.376 0 0 1-1.37-4.426q1.463-6.131 2.958-12.255a6.216 6.216 0 0 1 .926-1.971q19.277-28.953 38.548-57.913a3.713 3.713 0 0 1 1.7-1.711c.273.57-.12 1-.342 1.435-1.189 2.343-2.523 4.608-3.772 6.919a12.231 12.231 0 0 0-.967 2.107 40.484 40.484 0 0 0-2.491 4.211c-1.134 1.98-2.232 3.981-3.277 6.008-1 1.883-2.116 3.7-3.073 5.6a1.318 1.318 0 0 1-.571.665 25.519 25.519 0 0 0-2.762 4.635c-4.791 8.616-9.519 17.269-14.264 25.911a1.2 1.2 0 0 0-.065.373z" class="cls-44" transform="translate(297.582 -61.542)"/>
                <path id="Path_13231" d="M-245.462 50.731c3.124-5.656 6.234-11.322 9.386-16.962a12.522 12.522 0 0 1 2-3.266 5.411 5.411 0 0 1 .991 5.1c-.969 3.775-1.87 7.569-2.807 11.353a6.662 6.662 0 0 1-.985 2.083q-19.255 28.915-38.493 57.842a3.782 3.782 0 0 1-1.707 1.705l8.048-14.74a10.719 10.719 0 0 0 1.072-2.2c.673-2.211 2.029-4.081 3.085-6.1.939-1.795 1.962-3.548 2.9-5.345 1.662-2.695 3.1-5.513 4.634-8.283 1.025-1.919 2.05-3.84 3.119-5.737 2.386-4.175 4.657-8.414 6.984-12.621a13.843 13.843 0 0 1 1.773-2.829z" class="cls-44" transform="translate(298.894 -30.502)"/>
                <path id="Path_13232" d="M-163.825 138.326c-.748-.387-.536-1.179-.757-1.791-1.141-1.958-1.289-4.226-1.968-6.33a26.762 26.762 0 0 0-1.127-3.529c-.606-2.93-1.6-5.765-2.174-8.7a56.207 56.207 0 0 0-1.889-6.789q-2.28-8.559-4.53-17.125c-.147-.556-.6-1.225.27-1.645a4.608 4.608 0 0 1 2.27 2.363q6.852 13.833 13.688 27.673a4.3 4.3 0 0 1 .419 3.353c-1.365 4.185-2.577 8.421-4.202 12.52z" class="cls-44" transform="translate(248.833 -61.326)"/>
                <path id="Path_13233" d="M-316.082 94.882q2.284 8.474 4.565 16.947 3.633 13.591 7.222 27.193c.149.567.673 1.158.178 1.81a4.6 4.6 0 0 1-2.111-2.182q-6.828-13.787-13.674-27.563a5.641 5.641 0 0 1-.292-4.491c1.129-3.413 2.233-6.836 3.369-10.246a2.892 2.892 0 0 1 .743-1.468z" class="cls-44" transform="translate(320.528 -62.554)"/>
            </g>
            <path id="Path_13234" d="M-186.068 91.711c-.41.383-.153.783-.042 1.191q2.252 8.461 4.492 16.925c.054.2.169.406-.005.606a1.657 1.657 0 0 1-1.326-.351c-4.356-2.323-8.672-4.719-13.029-7.039-.3-.161-.613-.329-.689-.714-.313-.888.4-1.432.736-2.083 1.429-2.8 3.16-5.441 4.447-8.319a4.905 4.905 0 0 1 5.417-.217z" class="cls-42" transform="translate(312.228 -17.356)"/>
            <path id="Path_13235" fill="#fdfefe" d="M-290.982 74.858c.455 2.067 2.206 2.586 3.859 3.187.776.282.63.472.017.729-.434.536-1.111.491-1.678.711a3.352 3.352 0 0 0-2.206 2.318c-.281.666-.551 1.336-.863 2.1-.665-1.179-.855-2.45-1.658-3.414-1.208-.656-2.624-.919-3.644-1.932-.153-.179-.106-.282.119-.335a6.191 6.191 0 0 0 5.053-5.526z" transform="translate(362.257 -8.239)"/>
            <path id="Path_13236" fill="#19898a" d="M-303.818 84.363c1.248.58 2.691.793 3.644 1.931-1.378.842-3 .848-4.5 1.279-1.955.564-3.968.919-5.957 1.368 1.806-1.55 3.987-2.527 5.936-3.853.319-.215.71-.332.877-.725z" transform="translate(368.92 -14.051)"/>
            <path id="Path_13237" d="M-260.7 105.445c-1.044 2.551-2.581 4.842-3.844 7.279-.728 1.406-1.572 2.751-2.363 4.123q-3.919-16.461-7.839-32.915c-.06-.25-.153-.494-.225-.74 2.8-.872 5.666-1.451 8.522-2.067a2.331 2.331 0 0 1 .75 1.459q2.576 10.669 5.08 21.355a1.991 1.991 0 0 1-.081 1.506z" class="cls-47" transform="translate(351.17 -12.44)"/>
            <path id="Path_13238" fill="#2aa197" d="M-280.4 85.514a4.273 4.273 0 0 1 1.684-.714l.508.224a3.89 3.89 0 0 1-2.193.491z" transform="translate(353.871 -14.268)"/>
            <path id="Path_13239" d="M-186.634 147.093c.932 1.292.972 2.874 1.39 4.33.524 1.834.962 3.692 1.437 5.539q-6.022-3.242-12.042-6.487-9.651-5.226-19.286-10.475c.842-2.3 2.327-4.268 3.379-6.46.564-.26 1 .077 1.447.325 7.511 4.157 15.072 8.221 22.618 12.314a2.374 2.374 0 0 1 1.057.913z" class="cls-47" transform="translate(321.384 -38.492)"/>
            <path id="Path_13240" fill="#f9fbfb" d="M-220.475 205.595a3.251 3.251 0 0 0 2.328-2.706 3.384 3.384 0 0 0 2.82 2.68 3.216 3.216 0 0 0-2.77 2.693 3.253 3.253 0 0 0-2.378-2.667z" transform="translate(324.041 -73.067)"/>
            <path id="Path_13241" d="M-252.25 103.933c-.874-3.764-1.736-7.53-2.625-11.29-1.025-4.343-2.081-8.686-3.125-13.029l6.244-1.526a2.259 2.259 0 0 1 .586 1.26c1.148 4.843 2.288 9.688 3.466 14.525a3.194 3.194 0 0 1 .116 1.769 66.934 66.934 0 0 1-4.662 8.291z" class="cls-42" transform="translate(342.721 -10.927)"/>
            <path id="Path_13242" d="M-226.183 70.787a49.9 49.9 0 0 1-2.986 5.686c-1.576 2.956-3.2 5.887-4.816 8.821a10.8 10.8 0 0 1-.737 1.04c-.59-.356-.635-1-.766-1.563-.643-2.8-1.323-5.582-1.972-8.377a15.741 15.741 0 0 0-.89-2.808z" class="cls-42" transform="translate(332.939 -7.291)"/>
            <path id="Path_13243" d="M-241.939 76.362c.642.024.681.5.8.98.933 3.925 1.886 7.845 2.833 11.767l-3.084 5.674c-1.5-5.826-2.914-11.671-4.167-17.555z" class="cls-47" transform="translate(336.529 -10.067)"/>
            <path id="Path_13244" d="M-183.285 141.27q-11.863-6.445-23.727-12.887c-.452-.246-.93-.444-1.4-.665 1.119-1.981 2.058-4.064 3.359-5.942.808-.146 1.4.371 2.02.716 5.462 3.049 11.007 5.944 16.472 8.985a2.579 2.579 0 0 1 1.173.975c.645 2.562 1.3 5.121 1.932 7.685a11.278 11.278 0 0 1 .167 1.132z" class="cls-42" transform="translate(318.034 -32.667)"/>
            <path id="Path_13245" d="M-182.053 128.377l-19.665-10.677c.805-1.412 1.225-3.066 2.575-4.134l15.043 8.1c.979 1.28.911 2.919 1.476 4.345a16.512 16.512 0 0 1 .571 2.361z" class="cls-47" transform="translate(314.704 -28.59)"/>
            <path id="Path_13246" fill="#fafdfc" d="M-252.94 91.187a3.163 3.163 0 0 0 2.7-2.657 3.2 3.2 0 0 0 2.674 2.6c-1.378.494-2.341 1.091-2.617 2.461a3.461 3.461 0 0 0-2.757-2.404z" transform="translate(340.202 -16.125)"/>
        </g>
    </g>
</svg>
