<svg xmlns="http://www.w3.org/2000/svg" width="256" height="256.001" viewBox="0 0 256 256.001">
    <defs>
        <linearGradient id="7lwakoo23a" x1=".843" x2=".206" y1=".135" y2=".886" gradientUnits="objectBoundingBox">
            <stop offset="0" stop-color="#b6509e"/>
            <stop offset="1" stop-color="#2ebac6"/>
        </linearGradient>
    </defs>
    <circle cx="128" cy="128" r="128" fill="#fff"/>
    <path fill="url(#7lwakoo23a)" d="M128 256a128.976 128.976 0 0 1-25.8-2.6 127.309 127.309 0 0 1-45.77-19.261 128.366 128.366 0 0 1-46.375-56.315A127.357 127.357 0 0 1 2.6 153.8a129.251 129.251 0 0 1 0-51.593 127.31 127.31 0 0 1 19.26-45.77 128.372 128.372 0 0 1 56.317-46.378A127.33 127.33 0 0 1 102.2 2.6a129.244 129.244 0 0 1 51.593 0 127.308 127.308 0 0 1 45.77 19.26 128.367 128.367 0 0 1 46.375 56.316A127.343 127.343 0 0 1 253.4 102.2a129.248 129.248 0 0 1 0 51.593 127.3 127.3 0 0 1-19.26 45.77 128.382 128.382 0 0 1-56.316 46.375A127.4 127.4 0 0 1 153.8 253.4 128.977 128.977 0 0 1 128 256zm0-242.287a115.145 115.145 0 0 0-23.033 2.322A113.657 113.657 0 0 0 64.1 33.232a114.622 114.622 0 0 0-41.4 50.283 113.7 113.7 0 0 0-6.659 21.452 115.4 115.4 0 0 0 0 46.065 113.66 113.66 0 0 0 17.2 40.866 114.627 114.627 0 0 0 50.282 41.407 113.75 113.75 0 0 0 21.453 6.658 115.381 115.381 0 0 0 46.065 0 113.609 113.609 0 0 0 40.866-17.2 114.622 114.622 0 0 0 41.393-50.278 113.741 113.741 0 0 0 6.659-21.453 115.4 115.4 0 0 0 0-46.065 113.662 113.662 0 0 0-17.2-40.865A114.619 114.619 0 0 0 172.485 22.7a113.74 113.74 0 0 0-21.453-6.659A115.145 115.145 0 0 0 128 13.714z"/>
    <g fill-rule="evenodd">
        <path fill="#87888c" d="M98 196c-53.9 0-98-44.1-98-98.49C.49 43.613 44.1-.487 98.49 0A98 98 0 0 1 98 196" transform="translate(30 30)"/>
        <path fill="#fff" d="M66.75 61.7l-2.94 15.68 27.93 3.92-1.96 7.35-27.44-3.92c-1.96 6.37-2.94 13.23-5.39 19.11-2.45 6.86-4.9 13.72-7.84 20.09-3.92 8.33-10.78 14.21-20.09 15.68-5.39.98-11.27.49-15.68-2.94-1.47-.98-2.94-2.94-2.94-4.41 0-1.96.98-4.41 2.45-5.39.98-.49 3.43 0 4.9.49a21.756 21.756 0 0 1 3.92 5.39c2.94 3.92 6.86 4.41 10.78 1.47 4.41-3.92 6.86-9.31 8.33-14.7 2.94-11.76 5.88-23.03 8.33-34.79v-1.96l-25.97-3.92.98-7.35 26.95 3.92 3.43-15.19-27.93-4.41.98-7.84 28.91 3.92c.98-2.94 1.47-5.39 2.45-7.84 2.45-8.82 4.9-17.64 10.78-25.48S82.43 5.837 92.72 6.327c4.41 0 8.82 1.47 11.76 4.9a4.166 4.166 0 0 1 1.47 2.45c0 1.96 0 4.41-1.47 5.88-1.96 1.47-4.41.98-6.37-.98-1.47-1.47-2.45-2.94-3.92-4.41-2.94-3.92-7.35-4.41-10.78-.98a31.386 31.386 0 0 0-6.37 9.31c-3.43 10.29-5.88 21.07-9.31 31.85l26.95 3.92-1.96 7.35L66.75 61.7" transform="translate(30 30) translate(40.56 24.546)"/>
    </g>
</svg>
