<svg width="256" height="256" viewBox="0 0 256 256" fill="none" xmlns="http://www.w3.org/2000/svg">
<g clip-path="url(#clip0_1765_1950)">
<path d="M128 256C198.692 256 256 198.692 256 128C256 57.3075 198.692 0 128 0C57.3075 0 0 57.3075 0 128C0 198.692 57.3075 256 128 256Z" fill="white"/>
<path d="M128 256C119.334 256.002 110.691 255.131 102.2 253.4C85.8269 250.046 70.2744 243.501 56.43 234.139C35.8506 220.247 19.7416 200.686 10.055 177.824C6.78329 170.082 4.28611 162.034 2.59996 153.8C-0.867305 136.777 -0.867305 119.23 2.59996 102.207C5.95345 85.834 12.4979 70.2816 21.86 56.437C35.7519 35.8564 55.3144 19.7464 78.177 10.059C85.9188 6.78584 93.9657 4.28732 102.2 2.59998C119.223 -0.867475 136.77 -0.867475 153.793 2.59998C170.166 5.95343 185.718 12.4979 199.563 21.86C220.142 35.7519 236.251 55.314 245.938 78.176C249.212 85.9181 251.712 93.9653 253.4 102.2C256.867 119.223 256.867 136.77 253.4 153.793C250.047 170.166 243.502 185.719 234.14 199.563C220.247 220.142 200.686 236.251 177.824 245.938C170.082 249.212 162.035 251.711 153.8 253.4C145.309 255.131 136.665 256.002 128 256V256ZM128 13.713C120.264 13.7113 112.547 14.4892 104.967 16.035C90.3478 19.0289 76.4613 24.8724 64.1 33.232C45.7279 45.637 31.3473 63.1033 22.7 83.515C19.7777 90.4283 17.5471 97.6141 16.041 104.967C12.9451 120.166 12.9451 135.833 16.041 151.032C19.036 165.651 24.8805 179.537 33.241 191.898C45.6449 210.272 63.1108 224.655 83.523 233.305C90.4368 236.227 97.6228 238.457 104.976 239.963C120.175 243.059 135.842 243.059 151.041 239.963C165.66 236.969 179.547 231.125 191.907 222.763C210.276 210.358 224.654 192.894 233.3 172.485C236.222 165.571 238.453 158.385 239.959 151.032C243.055 135.833 243.055 120.166 239.959 104.967C236.964 90.3483 231.119 76.4625 222.759 64.102C210.357 45.7305 192.894 31.3491 172.485 22.7C165.571 19.7779 158.385 17.5474 151.032 16.041C143.452 14.4936 135.736 13.714 128 13.714V13.713Z" fill="url(#paint0_linear_1765_1950)"/>
<path d="M128 228C183.228 228 228 183.228 228 128C228 72.7715 183.228 28 128 28C72.7715 28 28 72.7715 28 128C28 183.228 72.7715 228 128 228Z" fill="white"/>
<path fill-rule="evenodd" clip-rule="evenodd" d="M198.455 148.909L170.424 187.982C166.015 194.187 157.461 197.174 146.341 196.26C131.997 195.075 112.98 187.495 94.7532 174.42C76.5264 161.339 63.2352 145.758 57.4447 132.565C53.0361 122.339 53.1014 113.311 57.5758 107.1L85.5411 68.0273C90.0155 61.8223 98.5694 58.8349 109.624 59.7495C123.968 60.9339 143.051 68.5208 161.277 81.5954C179.504 94.67 192.796 110.252 198.52 123.445C202.995 133.67 202.863 142.704 198.455 148.909ZM93.0426 73.3967C95.9379 69.3829 101.728 68.3433 108.9 68.9356C121.995 70.0147 139.235 77.1472 155.882 89.0834C172.53 101.013 184.835 115.075 190.099 127.116C192.928 133.716 193.848 139.533 190.953 143.547L194.705 146.225L190.953 143.547L162.922 182.619C160.093 186.626 154.303 187.672 147.13 187.074C134.036 186.001 116.73 178.862 100.083 166.932C83.4352 154.996 71.1302 140.934 65.932 128.9C63.0368 122.293 62.1821 116.476 65.0773 112.469L93.0426 73.3967Z" fill="white"/>
<path fill-rule="evenodd" clip-rule="evenodd" d="M89.3497 71.6614C98.496 58.896 129.488 65.4499 158.571 86.2824C187.655 107.121 203.843 134.409 194.696 147.174L166.731 186.247C157.585 199.012 126.526 192.458 97.4424 171.619C68.3585 150.78 52.1726 123.499 61.3189 110.734L89.3497 71.6614Z" fill="white"/>
<path fill-rule="evenodd" clip-rule="evenodd" d="M87.332 69.2975C91.4007 63.6012 99.2667 61.0926 109.439 61.9063C123.476 63.0591 142.056 70.5861 159.959 83.3348C177.794 96.1514 190.882 111.409 196.443 124.294C200.511 133.652 200.647 141.925 196.578 147.621L168.64 186.681C164.571 192.378 156.637 194.886 146.533 194.073C132.496 192.852 113.847 185.393 96.0125 172.577C78.11 159.828 65.0897 144.569 59.4613 131.685C55.3925 122.327 55.2574 114.054 59.3262 108.358L87.332 69.2975ZM192.713 144.841V144.773C195.968 140.298 195.29 133.652 192.102 126.193C186.745 113.918 174.2 99.4741 157.111 87.2678C140.09 75.0616 122.391 67.8058 109.032 66.7207C100.894 66.0426 94.4531 67.5348 91.1981 72.0782L91.0617 72.3491C88.0101 76.8925 88.689 83.3347 91.8762 90.6585C97.2334 103 109.779 117.444 126.8 129.651C143.821 141.857 161.519 149.113 174.878 150.198C182.88 150.809 189.186 149.385 192.509 145.112L192.713 144.773V144.841ZM149.178 98.3218C157.722 104.425 164.028 111.681 166.673 117.852C168.232 121.31 168.639 124.362 167.079 126.464C165.587 128.566 162.536 129.177 158.807 128.837C152.093 128.295 143.278 124.633 134.733 118.53C126.189 112.427 119.882 105.238 117.237 99.0675C115.745 95.609 115.339 92.5573 116.83 90.4551C118.322 88.353 121.374 87.7429 125.172 88.0142C131.818 88.6245 140.701 92.2187 149.178 98.3218Z" fill="#0E0F23"/>
<path d="M197.72 127.565C197.349 126.491 196.923 125.4 196.442 124.294C190.882 111.41 177.793 96.1514 159.959 83.3348C142.056 70.5861 123.475 63.0591 109.438 61.9063C99.2664 61.0926 91.4004 63.6012 87.3316 69.2975L59.3258 108.358C55.257 114.054 55.3921 122.327 59.4609 131.685C63.1803 140.199 70.1277 149.75 79.5789 158.929C80.4119 158.847 81.2445 158.716 82.0763 158.533C87.1109 157.409 91.9387 152.942 96.7459 148.493C102.946 142.756 109.112 137.049 115.644 138.59C120.217 139.607 123.854 144.435 127.588 149.392C129.169 151.491 130.767 153.613 132.462 155.478C137.887 161.751 143.854 164.485 149.889 163.199C156.792 161.839 162.044 155.781 166.929 148.943C154.898 146.215 140.625 139.566 126.799 129.651C109.778 117.444 97.233 103 91.8758 90.6585C88.6887 83.3347 88.0097 76.8925 91.0613 72.3491L91.1977 72.0782C94.4527 67.5348 100.894 66.0426 109.032 66.7208C122.391 67.8058 140.09 75.0616 157.111 87.2678C174.177 99.4577 186.711 113.88 192.08 126.143C192.345 126.155 192.613 126.176 192.882 126.204C194.807 126.409 196.391 126.882 197.72 127.565Z" fill="url(#paint1_linear_1765_1950)"/>
<path d="M166.672 117.852C164.028 111.681 157.722 104.425 149.177 98.3218C140.701 92.2187 131.817 88.6245 125.172 88.0142C121.374 87.7429 118.322 88.353 116.83 90.4552C115.338 92.5573 115.745 95.609 117.237 99.0675C119.881 105.238 126.188 112.427 134.733 118.53C143.277 124.633 152.093 128.295 158.806 128.837C162.536 129.177 165.587 128.566 167.079 126.464C168.639 124.362 168.232 121.31 166.672 117.852Z" fill="url(#paint2_linear_1765_1950)"/>
<path fill-rule="evenodd" clip-rule="evenodd" d="M168.141 155.56C173.43 156.441 178.313 156.645 182.382 155.967C182.924 155.899 183.332 155.357 183.264 154.814C183.128 154.272 182.653 153.865 182.11 153.933C178.177 154.611 173.566 154.407 168.48 153.525C167.938 153.458 167.396 153.864 167.328 154.407C167.26 154.949 167.599 155.492 168.141 155.56ZM160.139 153.797C161.495 154.136 162.784 154.475 164.14 154.746C164.682 154.882 165.226 154.543 165.293 154C165.429 153.458 165.089 152.915 164.546 152.78C163.258 152.508 161.97 152.169 160.682 151.83C160.139 151.627 159.529 151.966 159.393 152.508C159.257 153.051 159.596 153.593 160.139 153.797ZM84.3925 89.5783C88.19 105.107 103.109 119.619 115.112 129.927C115.519 130.334 116.197 130.266 116.536 129.859C116.875 129.385 116.874 128.774 116.399 128.435C104.736 118.331 90.0887 104.226 86.4268 89.1034C86.2912 88.5609 85.6806 88.2221 85.1381 88.3578C84.5956 88.4934 84.2568 89.0358 84.3925 89.5783ZM83.5104 83.3394C83.5104 84.0175 83.579 84.7638 83.6468 85.442C83.7146 85.9845 84.2566 86.3912 84.7991 86.3234C85.3416 86.2556 85.749 85.7805 85.6812 85.238C85.6134 84.5599 85.5448 83.8821 85.5448 83.2718C85.5448 82.6615 85.0703 82.2546 84.46 82.2546C83.9175 82.3225 83.5104 82.7969 83.5104 83.3394Z" fill="white"/>
</g>
<defs>
<linearGradient id="paint0_linear_1765_1950" x1="215.808" y1="34.5595" x2="52.7359" y2="226.816" gradientUnits="userSpaceOnUse">
<stop stop-color="#B6509E"/>
<stop offset="1" stop-color="#2EBAC6"/>
</linearGradient>
<linearGradient id="paint1_linear_1765_1950" x1="112.253" y1="61.7057" x2="131.178" y2="156.981" gradientUnits="userSpaceOnUse">
<stop stop-color="#27B0E6"/>
<stop offset="0.52" stop-color="#C26BB3"/>
<stop offset="1" stop-color="#FA52A0"/>
</linearGradient>
<linearGradient id="paint2_linear_1765_1950" x1="112.253" y1="61.7057" x2="131.178" y2="156.981" gradientUnits="userSpaceOnUse">
<stop stop-color="#27B0E6"/>
<stop offset="0.52" stop-color="#C26BB3"/>
<stop offset="1" stop-color="#FA52A0"/>
</linearGradient>
<clipPath id="clip0_1765_1950">
<rect width="256" height="256" fill="white"/>
</clipPath>
</defs>
</svg>
