<svg xmlns="http://www.w3.org/2000/svg" width="256" height="256.001" viewBox="0 0 256 256.001">
    <defs>
        <linearGradient id="3hs12y28ja" x1=".843" x2=".206" y1=".135" y2=".886" gradientUnits="objectBoundingBox">
            <stop offset="0" stop-color="#b6509e"/>
            <stop offset="1" stop-color="#2ebac6"/>
        </linearGradient>
        <linearGradient id="6ow5uq4rrb" x1=".5" x2=".5" y2="1" gradientUnits="objectBoundingBox">
            <stop offset="0" stop-color="#090220"/>
            <stop offset="1" stop-color="#170659"/>
        </linearGradient>
    </defs>
    <circle cx="128" cy="128" r="128" fill="#fff"/>
    <g>
        <path fill="url(#3hs12y28ja)" d="M128 256a128.976 128.976 0 0 1-25.8-2.6 127.309 127.309 0 0 1-45.77-19.261 128.366 128.366 0 0 1-46.375-56.315A127.357 127.357 0 0 1 2.6 153.8a129.251 129.251 0 0 1 0-51.593 127.31 127.31 0 0 1 19.26-45.77 128.372 128.372 0 0 1 56.317-46.378A127.33 127.33 0 0 1 102.2 2.6a129.244 129.244 0 0 1 51.593 0 127.308 127.308 0 0 1 45.77 19.26 128.367 128.367 0 0 1 46.375 56.316A127.343 127.343 0 0 1 253.4 102.2a129.248 129.248 0 0 1 0 51.593 127.3 127.3 0 0 1-19.26 45.77 128.382 128.382 0 0 1-56.316 46.375A127.4 127.4 0 0 1 153.8 253.4 128.977 128.977 0 0 1 128 256zm0-242.287a115.145 115.145 0 0 0-23.033 2.322A113.657 113.657 0 0 0 64.1 33.232a114.622 114.622 0 0 0-41.4 50.283 113.7 113.7 0 0 0-6.659 21.452 115.4 115.4 0 0 0 0 46.065 113.66 113.66 0 0 0 17.2 40.866 114.627 114.627 0 0 0 50.282 41.407 113.75 113.75 0 0 0 21.453 6.658 115.381 115.381 0 0 0 46.065 0 113.609 113.609 0 0 0 40.866-17.2 114.622 114.622 0 0 0 41.393-50.278 113.741 113.741 0 0 0 6.659-21.453 115.4 115.4 0 0 0 0-46.065 113.662 113.662 0 0 0-17.2-40.865A114.619 114.619 0 0 0 172.485 22.7a113.74 113.74 0 0 0-21.453-6.659A115.145 115.145 0 0 0 128 13.714z"/>
        <g>
            <g transform="translate(5013 19689) translate(-4983 -19659)">
                <circle cx="98" cy="98" r="98" fill="url(#6ow5uq4rrb)"/>
                <g>
                    <path fill="#00d1ff" d="M117.189 150.551a4.123 4.123 0 0 0-3.229-1.5H87.784a.757.757 0 0 1-.566-.221.673.673 0 0 1-.218-.484v-17.64a.676.676 0 0 1 .218-.484.756.756 0 0 1 .566-.221h27.66q10.469 0 18.062 8.555l6.719 8.2-13.088 15.965zm48.341-12.083Q173.122 130 183.679 130h27.574a.713.713 0 0 1 .523.176.732.732 0 0 1 .174.53v17.64a.766.766 0 0 1-.174.484.629.629 0 0 1-.523.221h-26.177a4.124 4.124 0 0 0-3.229 1.5l-19.283 23.461 19.37 23.637a4.132 4.132 0 0 0 3.142 1.412h26.176a.629.629 0 0 1 .523.221.905.905 0 0 1 .174.572v17.64a.764.764 0 0 1-.174.484.628.628 0 0 1-.523.221h-27.573q-10.557 0-18.062-8.555l-16.054-19.58-16.056 19.58q-7.591 8.557-18.149 8.555H87.784a.625.625 0 0 1-.524-.221.889.889 0 0 1-.174-.575v-17.64a.757.757 0 0 1 .174-.484.626.626 0 0 1 .524-.221h26.176a4.29 4.29 0 0 0 3.229-1.5l18.934-23.108z" transform="translate(35.525 53.083) translate(-87 -130)"/>
                </g>
            </g>
        </g>
    </g>
</svg>
