<svg xmlns="http://www.w3.org/2000/svg" xmlns:xlink="http://www.w3.org/1999/xlink" width="256" height="256.001" viewBox="0 0 256 256.001">
    <defs>
        <linearGradient id="linear-gradient" x1=".843" x2=".206" y1=".135" y2=".886" gradientUnits="objectBoundingBox">
            <stop offset="0" stop-color="#b6509e"/>
            <stop offset="1" stop-color="#2ebac6"/>
        </linearGradient>
        <linearGradient id="linear-gradient-2" x1=".907" x2=".163" y1=".227" y2=".853" xlink:href="#linear-gradient"/>
        <linearGradient id="linear-gradient-3" x1=".699" x2=".059" y1=".251" y2="1" xlink:href="#linear-gradient"/>
        <style>
            .cls-1{fill:#fff}
        </style>
    </defs>
    <g id="Group_38346" transform="translate(-6 7)">
        <circle id="Ellipse_1585" cx="128" cy="128" r="128" class="cls-1" transform="translate(6 -7)"/>
        <g id="Group_26317" transform="translate(6 -7)">
            <path id="Subtraction_108" fill="url(#linear-gradient)" d="M128 256a128.976 128.976 0 0 1-25.8-2.6 127.309 127.309 0 0 1-45.77-19.261 128.366 128.366 0 0 1-46.375-56.315A127.357 127.357 0 0 1 2.6 153.8a129.251 129.251 0 0 1 0-51.593 127.31 127.31 0 0 1 19.26-45.77 128.372 128.372 0 0 1 56.317-46.378A127.33 127.33 0 0 1 102.2 2.6a129.244 129.244 0 0 1 51.593 0 127.308 127.308 0 0 1 45.77 19.26 128.367 128.367 0 0 1 46.375 56.316A127.343 127.343 0 0 1 253.4 102.2a129.248 129.248 0 0 1 0 51.593 127.3 127.3 0 0 1-19.26 45.77 128.382 128.382 0 0 1-56.316 46.375A127.4 127.4 0 0 1 153.8 253.4 128.977 128.977 0 0 1 128 256zm0-242.287a115.145 115.145 0 0 0-23.033 2.322A113.657 113.657 0 0 0 64.1 33.232a114.622 114.622 0 0 0-41.4 50.283 113.7 113.7 0 0 0-6.659 21.452 115.4 115.4 0 0 0 0 46.065 113.66 113.66 0 0 0 17.2 40.866 114.627 114.627 0 0 0 50.282 41.407 113.75 113.75 0 0 0 21.453 6.658 115.381 115.381 0 0 0 46.065 0 113.609 113.609 0 0 0 40.866-17.2 114.622 114.622 0 0 0 41.393-50.278 113.741 113.741 0 0 0 6.659-21.453 115.4 115.4 0 0 0 0-46.065 113.662 113.662 0 0 0-17.2-40.865A114.619 114.619 0 0 0 172.485 22.7a113.74 113.74 0 0 0-21.453-6.659A115.145 115.145 0 0 0 128 13.714z"/>
        </g>
        <g id="Group_33539" transform="translate(36 23)">
            <circle id="Ellipse_991" cx="98" cy="98" r="98" fill="url(#linear-gradient-2)"/>
            <path id="Path_10812" d="M152.859 16.3L99.1.169a4.014 4.014 0 0 0-2.308 0L43.029 16.3a4.015 4.015 0 0 0-2.861 3.846v59.135c0 7.692 3.114 15.566 9.255 23.4a95.677 95.677 0 0 0 19.286 17.865A173.018 173.018 0 0 0 96.3 136.707a4.014 4.014 0 0 0 3.281 0 173.04 173.04 0 0 0 27.594-16.159 95.685 95.685 0 0 0 19.286-17.865c6.141-7.837 9.255-15.711 9.255-23.4V20.144a4.015 4.015 0 0 0-2.857-3.844z" class="cls-1" transform="translate(.41 33.688)"/>
            <path id="Path_2434" fill="url(#linear-gradient-3)" d="M68.524 66.285L43.058 4.739C41.619 1.559 39.492 0 36.676 0h-2.252c-2.816 0-4.943 1.559-6.382 4.739L16.967 31.552H8.582A4.585 4.585 0 0 0 4.015 36.1v.062a4.585 4.585 0 0 0 4.568 4.552h4.505L2.513 66.285a5.393 5.393 0 0 0-.313 1.746 4.813 4.813 0 0 0 1.251 3.43A4.391 4.391 0 0 0 6.83 72.77a4.575 4.575 0 0 0 2.628-.87 5.553 5.553 0 0 0 1.815-2.307l11.638-28.874h8.072a4.585 4.585 0 0 0 4.568-4.552v-.125a4.585 4.585 0 0 0-4.568-4.552h-4.318L35.55 9.353l24.215 60.236a5.553 5.553 0 0 0 1.814 2.311 4.575 4.575 0 0 0 2.628.873 4.392 4.392 0 0 0 3.379-1.309 4.813 4.813 0 0 0 1.251-3.43 4.123 4.123 0 0 0-.313-1.749z" transform="translate(62.879 58.188)"/>
        </g>
    </g>
</svg>
