<svg xmlns="http://www.w3.org/2000/svg" id="Group_39418" width="256" height="256.001" viewBox="0 0 256 256.001">
    <defs>
        <linearGradient id="linear-gradient" x1=".843" x2=".206" y1=".135" y2=".886" gradientUnits="objectBoundingBox">
            <stop offset="0" stop-color="#b6509e"/>
            <stop offset="1" stop-color="#2ebac6"/>
        </linearGradient>
        <style>
            .cls-1{fill:#fff}.cls-3{fill:#0e052f}.cls-4{fill:none}.cls-5{fill:#31d8a4}
        </style>
    </defs>
    <g id="Group_38342" transform="translate(24824 19901)">
        <circle id="Ellipse_1585" cx="128" cy="128" r="128" class="cls-1" transform="translate(-24824 -19901)"/>
        <path id="Subtraction_108" fill="url(#linear-gradient)" d="M128 256a128.976 128.976 0 0 1-25.8-2.6 127.309 127.309 0 0 1-45.77-19.261 128.366 128.366 0 0 1-46.375-56.315A127.357 127.357 0 0 1 2.6 153.8a129.251 129.251 0 0 1 0-51.593 127.31 127.31 0 0 1 19.26-45.77 128.372 128.372 0 0 1 56.317-46.378A127.33 127.33 0 0 1 102.2 2.6a129.244 129.244 0 0 1 51.593 0 127.308 127.308 0 0 1 45.77 19.26 128.367 128.367 0 0 1 46.375 56.316A127.343 127.343 0 0 1 253.4 102.2a129.248 129.248 0 0 1 0 51.593 127.3 127.3 0 0 1-19.26 45.77 128.382 128.382 0 0 1-56.316 46.375A127.4 127.4 0 0 1 153.8 253.4 128.977 128.977 0 0 1 128 256zm0-242.287a115.145 115.145 0 0 0-23.033 2.322A113.657 113.657 0 0 0 64.1 33.232a114.622 114.622 0 0 0-41.4 50.283 113.7 113.7 0 0 0-6.659 21.452 115.4 115.4 0 0 0 0 46.065 113.66 113.66 0 0 0 17.2 40.866 114.627 114.627 0 0 0 50.282 41.407 113.75 113.75 0 0 0 21.453 6.658 115.381 115.381 0 0 0 46.065 0 113.609 113.609 0 0 0 40.866-17.2 114.622 114.622 0 0 0 41.393-50.278 113.741 113.741 0 0 0 6.659-21.453 115.4 115.4 0 0 0 0-46.065 113.662 113.662 0 0 0-17.2-40.865A114.619 114.619 0 0 0 172.485 22.7a113.74 113.74 0 0 0-21.453-6.659A115.145 115.145 0 0 0 128 13.714z" transform="translate(-24824 -19901)"/>
    </g>
    <g id="SUSDNEW-01" transform="translate(30 30)">
        <circle id="Ellipse_1655" cx="97.981" cy="97.981" r="97.981" class="cls-3"/>
        <path id="Path_11140" d="M239.1 150.5a13.067 13.067 0 0 1-2.809 6.66 13.71 13.71 0 0 1-5.259 3.758 28.252 28.252 0 0 1-5.1 1.531c-.5.98-1.018 1.937-1.531 2.886a38.459 38.459 0 0 0 9.821-2.633 13.013 13.013 0 0 0 4.792-3.628 12.753 12.753 0 0 0 2.541-6.254c1.531-10.342-1.684-22.39-4.34-32.219q-1.332-4.96-3.062-9.844a86.4 86.4 0 0 1 .9 8.627c2.582 9.487 5.547 21.084 4.047 31.116z" class="cls-4" transform="translate(-52.627 -25.976)"/>
        <path id="Path_11141" d="M236.275 160.386a12.409 12.409 0 0 0 2.626-6.262c1.294-8.7-.827-18.655-3.116-27.4v.98c0 2.1-.084 4.172-.23 6.231 1.141 6 1.73 12.179.88 17.836a12.791 12.791 0 0 1-2.9 6.683 13.633 13.633 0 0 1-4.968 3.468c-.5 1.133-1.026 2.3-1.577 3.36a25.543 25.543 0 0 0 4.31-1.363 12.959 12.959 0 0 0 4.975-3.533z" class="cls-4" transform="translate(-53.235 -29.719)"/>
        <path id="Path_11142" d="M233.576 161.077a11.964 11.964 0 0 0 2.71-6.269 48.913 48.913 0 0 0-.367-14.6 83.663 83.663 0 0 1-2.113 11.658 13.128 13.128 0 0 1-1.531 5.266q-1.141 3.491-2.564 6.843a12.738 12.738 0 0 0 3.866-2.9z" class="cls-4" transform="translate(-53.873 -32.883)"/>
        <path id="Path_11143" d="M58.783 27.52l-.383.138z" class="cls-4" transform="translate(-13.696 -6.454)"/>
        <path id="Path_11144" d="M209.563 41.6q-1.722-3.376-3.422-6.751-.857-1.715-1.707-3.422c-1.646-3.322-3.261-6.575-5.075-9.691l-1.569-1.046c2.151 3.506 4 7.234 5.917 11.084q.85 1.722 1.707 3.429 1.7 3.376 3.422 6.751c9.844 19.382 19.826 39.039 25.314 59.623 2.2 8.267 4.792 18.042 4.746 27.113.26-.965.513-1.937.765-2.909-.429-8.351-2.74-17.039-4.708-24.4-5.534-20.681-15.569-40.419-25.39-59.781z" class="cls-5" transform="translate(-46.387 -4.852)"/>
        <path id="Path_11145" d="M23.22 54.075a75.123 75.123 0 0 0 .68-9.545c-.283.322-.551.643-.827.972a74.589 74.589 0 0 1-.643 8.5 135.308 135.308 0 0 1-7.257 27.687C10.674 94.095 5.889 106.564.73 118.911c.061.543.122 1.095.191 1.646 5.358-12.8 10.357-25.728 15.019-38.6a133.854 133.854 0 0 0 7.28-27.882z" class="cls-5" transform="translate(-.171 -10.443)"/>
        <path id="Path_11146" d="M246.72 103.527c-5.772-18.892-14.544-37.156-23.263-55.114l-2.978-6.17c-.827-1.722-1.623-3.468-2.419-5.221-.536-.536-1.079-1.072-1.63-1.592l.827 1.814c.819 1.784 1.638 3.575 2.488 5.358.987 2.059 1.983 4.111 2.97 6.17 9.109 18.861 18.325 37.96 24.044 57.763v-.245c-.039-.926-.039-1.845-.039-2.763z" class="cls-5" transform="translate(-50.758 -8.309)"/>
        <path id="Path_11147" d="M20.021 50.49c-.314.406-.62.811-.919 1.225-.964 10.525-4.134 21.311-7.655 31.109-3.6 10.1-7.379 20.27-11.4 30.389 0 .666.054 1.332.084 1.99 4.294-10.686 8.3-21.456 12.125-32.1 3.616-10.192 6.939-21.503 7.765-32.613z" class="cls-5" transform="translate(-.012 -11.841)"/>
        <path id="Path_11148" d="M214.069 43.507q-1.707-3.422-3.391-6.813c-.6-1.2-1.171-2.4-1.753-3.582-1.164-2.4-2.3-4.761-3.544-7.073-.513-.4-1.033-.765-1.531-1.179 1.531 2.771 2.932 5.649 4.363 8.6q.873 1.8 1.761 3.59l3.391 6.813c9.875 19.772 19.9 39.8 25.421 60.771 1.309 4.96 2.687 10.334 3.605 15.776.138-.811.268-1.63.39-2.45-.9-4.7-2.09-9.293-3.207-13.541-5.587-21.031-15.638-41.178-25.505-60.912z" class="cls-5" transform="translate(-47.808 -5.83)"/>
        <path id="Path_11149" d="M218.878 46.126c-1-2.029-1.99-4.057-2.985-6.078-.827-1.7-1.623-3.414-2.427-5.136q-.857-1.875-1.745-3.728c-.513-.452-1.033-.888-1.531-1.324.865 1.761 1.7 3.552 2.534 5.358s1.623 3.475 2.457 5.205c1 2.029 1.99 4.049 2.978 6.078 9.8 19.971 19.742 40.233 25.261 61.361.49 1.891 1 3.827 1.477 5.818.077-.865.145-1.73.2-2.6l-.888-3.422c-5.566-21.237-15.54-41.568-25.331-61.532z" class="cls-5" transform="translate(-49.295 -7.003)"/>
        <path id="Path_11150" d="M15.342 59.28c-.4.635-.765 1.271-1.186 1.914a181.343 181.343 0 0 1-6.69 23.263Q4.013 94.469.308 104.512c-.069.919-.122 1.845-.168 2.779Q4.358 96 8.239 84.717a169.844 169.844 0 0 0 7.103-25.437z" class="cls-5" transform="translate(-.033 -13.903)"/>
        <path id="Path_11151" d="M194.875 231.793l-.635.6c1.209-.765 2.388-1.531 3.559-2.3 3.1-2.939 6.231-5.825 9.469-8.55a39.582 39.582 0 0 1 5.825-4.034c.635-.635 1.255-1.286 1.868-1.937a42.347 42.347 0 0 0-8.221 5.358c-4.08 3.453-7.991 7.143-11.865 10.863z" class="cls-5" transform="translate(-45.554 -50.559)"/>
        <path id="Path_11152" d="M200.359 37.628q-1.975-3.72-3.9-7.433l-.36.191.36-.191-1.225-2.358a103.245 103.245 0 0 0-7.6-13.1c-.559-.3-1.11-.589-1.669-.873 3.368 4.356 5.848 9.14 8.55 14.368.4.765.8 1.531 1.217 2.35l3.9 7.44q.919 1.738 1.822 3.468c.689.689 1.363 1.393 2.029 2.105z" class="cls-5" transform="translate(-43.612 -3.251)"/>
        <path id="Path_11153" d="M132.23 251.64h.9c2.074-4.715 4.264-9.369 6.507-13.97l-.957.107c-2.225 4.547-4.399 9.178-6.45 13.863z" class="cls-5" transform="translate(-31.011 -55.739)"/>
        <path id="Path_11154" d="M236.757 159.811a13.067 13.067 0 0 0 2.809-6.66c1.531-10.035-1.462-21.632-4.026-31.1.061 1.186.092 2.381.107 3.575 2.3 8.749 4.409 18.7 3.115 27.4a12.408 12.408 0 0 1-2.626 6.262 12.96 12.96 0 0 1-4.96 3.529 25.543 25.543 0 0 1-4.31 1.363c-.153.314-.306.628-.467.934a28.254 28.254 0 0 0 5.1-1.531 13.709 13.709 0 0 0 5.258-3.772z" class="cls-5" transform="translate(-53.096 -28.624)"/>
        <path id="Path_11155" d="M142.49 250.386l1.033-.122c3.062-5.044 6.254-10.02 9.423-14.927l.375-.6-1.164.306c-3.245 5.04-6.506 10.146-9.667 15.343z" class="cls-5" transform="translate(-33.417 -55.052)"/>
        <path id="Path_11156" d="M223.79 185.86l.926-.176c4.394-.819 8.834-1.646 12.4-3.468a12.253 12.253 0 0 0 1.462-.765c.237-.505.475-1.018.7-1.531a14.361 14.361 0 0 1-2.534 1.608c-3.46 1.768-7.785 2.572-12.248 3.4l-.9.168-2.534.459c-.2.314-.406.628-.612.942z" class="cls-5" transform="translate(-51.703 -42.196)"/>
        <path id="Path_11157" d="M123.65 251.818h.85q2.013-6.751 4.317-13.388h-.873q-2.281 6.652-4.294 13.388z" class="cls-5" transform="translate(-28.999 -55.918)"/>
        <path id="Path_11158" d="M187.514 27.259c-.375-.681-.765-1.363-1.095-2.029-3.062-5.772-5.932-11.046-10.081-15.776l-1.738-.7c4.708 4.968 7.724 10.579 11.107 16.886.36.658.72 1.332 1.087 2.013.765 1.431 1.531 2.878 2.342 4.317.536.39 1.056.765 1.577 1.194-1.071-1.97-2.143-3.945-3.199-5.905z" class="cls-5" transform="translate(-40.948 -2.052)"/>
        <path id="Path_11159" d="M233.05 160.706a13.128 13.128 0 0 0 1.531-5.266c-.444 1.776-.965 3.529-1.531 5.266z" class="cls-5" transform="translate(-54.656 -36.454)"/>
        <path id="Path_11160" d="M221.868 191.482c2.006-.4 4.011-.765 5.986-1.232 2.511-.551 4.93-1.1 7.157-1.807.191-.344.367-.689.551-1.033a74.031 74.031 0 0 1-7.884 2.044c-1.944.429-3.927.819-5.932 1.217l-4.516.919-.72.987c1.784-.383 3.575-.743 5.358-1.095z" class="cls-5" transform="translate(-50.777 -43.952)"/>
        <path id="Path_11161" d="M157.507 236.71l-.842 1.156c-2.664 3.682-5.358 7.41-8.015 11.176l1.125-.184c2.511-3.552 5.052-7.065 7.571-10.548l.827-1.125c1.248-1.715 2.5-3.544 3.766-5.4-.429.161-.873.314-1.309.467-1.049 1.526-2.09 3.026-3.123 4.458z" class="cls-5" transform="translate(-34.862 -54.358)"/>
        <path id="Path_11162" d="M214.2 198.327c3.276-.934 6.606-1.684 9.913-2.427 2.044-.467 4.088-.926 6.124-1.424l.873-.222c.2-.329.4-.658.589-1l-1.661.429c-1.983.49-4.011.949-6.055 1.408-3.33.765-6.706 1.531-10 2.45-.765.214-1.531.444-2.258.681-.344.406-.7.8-1.056 1.2q1.746-.574 3.531-1.095z" class="cls-5" transform="translate(-49.407 -45.324)"/>
        <path id="Path_11163" d="M168.227 231.235l-.222.291c-1.692 2.228-3.345 4.409-4.991 6.453l-2.9 3.575c-1.393 1.722-2.8 3.452-4.2 5.2l1.286-.3 3.559-4.394 2.893-3.575c1.661-2.044 3.322-4.241 5.006-6.461l.222-.291c1.317-1.738 2.664-3.483 4.034-5.213-.574.283-1.141.574-1.722.85q-1.542 1.94-2.965 3.865z" class="cls-5" transform="translate(-36.565 -53.124)"/>
        <path id="Path_11164" d="M197.956 215.455a199.18 199.18 0 0 0-15.31 15.019c-2.1 2.228-4.179 4.424-6.277 6.56.651-.268 1.294-.536 1.937-.819q2.5-2.572 4.976-5.205a185.712 185.712 0 0 1 15.18-14.91c4.539-3.827 9.806-6.231 15.31-8.145.765-.268 1.531-.521 2.3-.765l.9-1.148c-1.164.367-2.3.765-3.468 1.133a47.588 47.588 0 0 0-15.548 8.28z" class="cls-5" transform="translate(-41.363 -48.321)"/>
        <path id="Path_11165" d="M127.8 251.83h.865c1.669-4.593 3.46-9.117 5.32-13.61l-.9.061c-1.848 4.463-3.601 8.956-5.285 13.549z" class="cls-5" transform="translate(-29.972 -55.868)"/>
        <path id="Path_11166" d="M234.038 160.658a12.791 12.791 0 0 0 2.9-6.683c.85-5.657.26-11.834-.88-17.836-.077 1.041-.176 2.082-.291 3.115a48.913 48.913 0 0 1 .367 14.6 11.964 11.964 0 0 1-2.71 6.269 12.737 12.737 0 0 1-3.873 2.9c-.153.367-.322.765-.482 1.1a13.633 13.633 0 0 0 4.969-3.465z" class="cls-5" transform="translate(-53.723 -31.928)"/>
        <path id="Path_11167" d="M195.864 35.985q-1.952-3.644-3.9-7.295c-.383-.765-.765-1.462-1.148-2.174-2.779-5.289-5.358-10.181-8.9-14.621l-1.707-.765c4.049 4.715 6.828 9.951 9.9 15.807l1.141 2.159q1.883 3.544 3.827 7.088c.582.5 1.164 1 1.738 1.531z" class="cls-5" transform="translate(-42.264 -2.61)"/>
        <path id="Path_11168" d="M215.376 199.934c-2.924.765-5.864 1.531-8.749 2.434-5.756 1.837-11.306 4.264-16.029 8.229-5.756 4.838-10.862 10.816-15.838 16.657-1.99 2.3-3.958 4.593-5.932 6.828l-4.088 4.509 1.531-.459 3.177-3.514c2.013-2.235 4-4.593 5.994-6.889 4.968-5.818 10-11.719 15.7-16.511 4.593-3.873 10.043-6.254 15.753-8.068 2.855-.911 5.779-1.684 8.7-2.427l1.408-.367.344-.084.7-1.01-1.232.321z" class="cls-5" transform="translate(-38.636 -46.731)"/>
        <path id="Path_11169" d="M248.159 90.42q-.528-2.572-1.186-5.083c-4.1-9.875-8.627-19.634-13.159-29.31-.865-1.309-1.768-2.595-2.694-3.827.352.765.712 1.531 1.064 2.3 5.557 11.831 11.153 23.78 15.975 35.92z" class="cls-5" transform="translate(-54.203 -12.242)"/>
        <path id="Path_11170" d="M227.3 51.326c7.433 15.639 14.927 31.43 20.553 47.613-.1-1.148-.222-2.3-.36-3.429-5.5-15.133-12.516-29.922-19.451-44.52q-1.531-3.146-2.978-6.277c-.046-.092-.084-.184-.122-.268-.628-.765-1.263-1.462-1.906-2.174.429.934.85 1.86 1.294 2.786q1.489 3.13 2.97 6.269z" class="cls-5" transform="translate(-52.308 -9.913)"/>
        <path id="Path_11171" d="M233.028 104q.574 2.572.987 5.213 1.665 4.891 3.062 9.844c2.656 9.829 5.864 21.877 4.34 32.219a12.753 12.753 0 0 1-2.541 6.254 13.013 13.013 0 0 1-4.792 3.628 38.459 38.459 0 0 1-9.821 2.633l-.513.911a42.192 42.192 0 0 0 10.717-2.809 13.779 13.779 0 0 0 5.09-3.827 13.587 13.587 0 0 0 2.71-6.637c1.531-10.541-1.722-22.758-4.363-32.54-1.424-5.068-3.047-10.013-4.876-14.889z" class="cls-5" transform="translate(-52.475 -24.391)"/>
        <path id="Path_11172" d="M137.09 251.2l.942-.077c2.572-4.922 5.251-9.775 7.961-14.544l-1.041.191c-2.68 4.724-5.328 9.539-7.862 14.43z" class="cls-5" transform="translate(-32.151 -55.484)"/>
        <path id="Path_11173" d="M205.047 39.719q-1.722-3.322-3.422-6.629c-.551-1.079-1.087-2.151-1.623-3.215a129.136 129.136 0 0 0-6.502-11.888L191.85 17a111.543 111.543 0 0 1 7.417 13.22q.8 1.6 1.638 3.215l3.414 6.637c1.531 2.939 3.062 5.887 4.547 8.841q1.408 1.745 2.733 3.575c-2.158-4.257-4.325-8.52-6.552-12.769z" class="cls-5" transform="translate(-44.994 -3.987)"/>
        <path id="Path_11174" d="M80.148 18.3c-2.1-2.182-4.325-4.264-6.552-6.292l-.765.367c2.3 2.1 4.593 4.233 6.767 6.491 1.156 1.194 2.258 2.434 3.307 3.7l.765-.321c-1.126-1.355-2.29-2.672-3.522-3.945z" class="cls-5" transform="translate(-17.08 -2.817)"/>
        <path id="Path_11175" d="M16.59 185.628l.559.98A161.249 161.249 0 0 1 23.41 169l-.383-1.072a157.933 157.933 0 0 0-6.438 17.7z" class="cls-5" transform="translate(-3.891 -39.384)"/>
        <path id="Path_11176" d="M86.611 244.774l.85.276q-.85-7.394-1.286-14.743L85.34 230c.291 4.891.72 9.836 1.271 14.774z" class="cls-5" transform="translate(-20.014 -53.941)"/>
        <path id="Path_11177" d="M132.132.069L130.8 0c5.182 4.126 8.558 9.017 12.2 14.582l1.1.2C140.491 9.27 137.153 4.3 132.132.069z" class="cls-5" transform="translate(-30.676)"/>
        <path id="Path_11178" d="M128.575 12.5c-3.016-4.348-6.009-8.6-9.859-12.179L117.59.4c4.057 3.636 7.111 7.992 10.3 12.554l.406.574 1.026.038z" class="cls-5" transform="translate(-27.578 -.075)"/>
        <path id="Path_11179" d="M69.322 236.991c.3.153.6.306.9.452-.9-5.534-1.669-11.092-2.243-16.618l-.873-.574q.8 8.373 2.216 16.74z" class="cls-5" transform="translate(-15.739 -51.654)"/>
        <path id="Path_11180" d="M64.813 234.4l.911.513c-.942-5.7-1.7-11.429-2.2-17.177l-.857-.628c.478 5.792 1.212 11.561 2.146 17.292z" class="cls-5" transform="translate(-14.698 -50.918)"/>
        <path id="Path_11181" d="M124.543 11.771A77.092 77.092 0 0 0 115.472.58L114.4.687a75.128 75.128 0 0 1 9.484 11.551c.306.436.62.865.934 1.294h1.01z" class="cls-5" transform="translate(-26.83 -.136)"/>
        <path id="Path_11182" d="M106.168 14.667c-1.852-2.12-3.674-4.218-5.4-6.285-1.347-1.607-2.656-3.146-4-4.593l-.888.222c1.424 1.531 2.817 3.2 4.256 4.922 1.753 2.1 3.59 4.2 5.443 6.33l.26.3c.306-.061.628-.107.942-.161-.207-.237-.414-.474-.613-.735z" class="cls-5" transform="translate(-22.486 -.889)"/>
        <path id="Path_11183" d="M37.89 213.121l.765.765c.161-6.346.582-12.592 1.225-18.685-.245-.314-.49-.628-.72-.942-.642 6.155-1.086 12.463-1.27 18.862z" class="cls-5" transform="translate(-8.886 -45.559)"/>
        <path id="Path_11184" d="M82.585 243.218l.865.329c-.689-5.052-1.24-10.112-1.638-15.149L81 228q.543 7.6 1.585 15.218z" class="cls-5" transform="translate(-18.996 -53.472)"/>
        <path id="Path_11185" d="M128.611 0h-1.271c4.93 4.026 8.221 8.757 11.819 14.146l1.079.153C136.686 8.948 133.418 4.134 128.611 0z" class="cls-5" transform="translate(-29.864)"/>
        <path id="Path_11186" d="M59.809 231.247l.9.559q-1.225-8.719-1.745-17.537l-.85-.689c.31 5.902.892 11.804 1.695 17.667z" class="cls-5" transform="translate(-13.628 -50.09)"/>
        <path id="Path_11187" d="M121.594 12.628l-.536-.72a95.575 95.575 0 0 0-9-10.908L111 1.092a90.422 90.422 0 0 1 9.408 11.344l.505.681c.138.191.283.375.421.559h1c-.227-.359-.487-.704-.74-1.048z" class="cls-5" transform="translate(-26.032 -.235)"/>
        <path id="Path_11188" d="M117.577 11.9l-.521-.681a105.73 105.73 0 0 0-8.122-9.844l-1 .153a99.3 99.3 0 0 1 8.5 10.219l.49.651 1.148 1.493.972-.061z" class="cls-5" transform="translate(-25.315 -.321)"/>
        <path id="Path_11189" d="M54.934 227.825l.888.62c-.666-5.963-1.095-11.934-1.248-17.889l-.834-.765q.199 9.024 1.194 18.034z" class="cls-5" transform="translate(-12.603 -49.201)"/>
        <path id="Path_11190" d="M108.773 9.59c-2.021-2.534-3.958-4.922-6.032-7.15l-.942.191c2.174 2.3 4.2 4.792 6.338 7.471 1.186 1.531 2.4 2.978 3.613 4.47l.957-.107c-1.323-1.645-2.64-3.253-3.934-4.875z" class="cls-5" transform="translate(-23.875 -.572)"/>
        <path id="Path_11191" d="M45.936 220.57l.834.7c-.276-6.185-.3-12.339-.061-18.371l-.773-.9c-.283 6.125-.276 12.333 0 18.571z" class="cls-5" transform="translate(-10.724 -47.374)"/>
        <path id="Path_11192" d="M109.56 14.754c-1.615-1.937-3.223-3.827-4.792-5.779-1.692-2.067-3.33-4.034-5.029-5.894l-.919.2c1.8 1.944 3.521 4.011 5.358 6.208q2.3 2.779 4.593 5.542l.949-.13z" class="cls-5" transform="translate(-23.176 -.722)"/>
        <path id="Path_11193" d="M41.768 216.864l.827.765c-.069-6.285.122-12.5.551-18.593l-.765-.9c-.437 6.112-.659 12.382-.613 18.728z" class="cls-5" transform="translate(-9.794 -46.469)"/>
        <path id="Path_11194" d="M113.558 11.209l-.467-.6c-2.457-3.161-4.731-6.07-7.257-8.742l-.965.168a112.524 112.524 0 0 1 7.616 9.117l.436.559c.643.827 1.3 1.653 1.952 2.472l.972-.084c-.764-.961-1.529-1.918-2.287-2.89z" class="cls-5" transform="translate(-24.595 -.439)"/>
        <path id="Path_11195" d="M49.736 206q-.107 9.094.589 18.28l.865.658q-.712-9.109-.651-18.142z" class="cls-5" transform="translate(-11.661 -48.312)"/>
        <path id="Path_11196" d="M73.773 239.291l.888.413c-.888-5.358-1.623-10.763-2.166-16.152-.291-.168-.582-.337-.865-.513.528 5.421 1.255 10.848 2.143 16.252z" class="cls-5" transform="translate(-16.799 -52.308)"/>
        <path id="Path_11197" d="M121.8.14l-1.15.06c4.455 3.873 7.655 8.42 11.145 13.411l1.033.069C129.376 8.7 126.177 4.113 121.8.14z" class="cls-5" transform="translate(-28.295 -.033)"/>
        <path id="Path_11198" d="M115.32 251.331l.811.077c.9-4.463 1.914-8.88 2.993-13.2l-.827-.054c-1.071 4.313-2.089 8.722-2.977 13.177z" class="cls-5" transform="translate(-27.045 -55.852)"/>
        <path id="Path_11199" d="M179.417 25.878c-.6-1.079-1.186-2.143-1.768-3.207-3.376-6.17-6.583-12-11.643-16.925l-1.776-.536c5.665 5.044 9.048 11.184 12.7 17.843q.72 1.332 1.47 2.664c.467.26.926.536 1.386.811z" class="cls-5" transform="translate(-38.516 -1.222)"/>
        <path id="Path_11200" d="M108.3 250.409l.819.122c.421-4.478.965-8.925 1.6-13.312l-.811-.13q-.957 6.592-1.608 13.32z" class="cls-5" transform="translate(-25.399 -55.603)"/>
        <path id="Path_11201" d="M156.041 3.09l-1.661-.36c6.285 5.259 10.089 11.536 14.154 18.578l1.278.582c-4.034-7.004-7.754-13.396-13.771-18.8z" class="cls-5" transform="translate(-36.206 -.64)"/>
        <path id="Path_11202" d="M173.352 21.609c-3.552-6.346-6.889-12.324-12.324-17.292l-1.768-.467c6.055 5.067 9.553 11.321 13.373 18.149l.765 1.324c.444.23.888.452 1.324.689z" class="cls-5" transform="translate(-37.35 -.903)"/>
        <path id="Path_11203" d="M111.77 250.947l.811.092c.643-4.455 1.416-8.88 2.3-13.227l-.811-.092q-1.324 6.499-2.3 13.227z" class="cls-5" transform="translate(-26.213 -55.751)"/>
        <path id="Path_11204" d="M119 251.63l.834.054c1.171-4.493 2.465-8.925 3.827-13.235l-.842-.038c-1.369 4.278-2.655 8.725-3.819 13.219z" class="cls-5" transform="translate(-27.908 -55.913)"/>
        <path id="Path_11205" d="M183.806 27.176c-.62-1.141-1.225-2.258-1.822-3.376-3.169-5.887-6.185-11.482-10.778-16.312-.589-.214-1.179-.429-1.776-.628 5.182 4.976 8.382 10.916 11.827 17.315.6 1.141 1.217 2.3 1.829 3.391.184.321.367.651.544.98.5.321.987.643 1.47.972z" class="cls-5" transform="translate(-39.735 -1.609)"/>
        <path id="Path_11206" d="M101.47 249.063l.819.168c0-4.593.191-9.1.452-13.61l-.765-.191c-.307 4.509-.468 9.07-.506 13.633z" class="cls-5" transform="translate(-23.797 -55.214)"/>
        <path id="Path_11207" d="M147.331 1.46l-1.531-.23c6.009 4.822 9.79 10.525 13.687 16.955l1.209.429C156.815 12.2 153.11 6.412 147.331 1.46z" class="cls-5" transform="translate(-34.194 -.288)"/>
        <path id="Path_11208" d="M97.97 248.215l.819.2c-.138-4.593-.145-9.247-.046-13.832l-.773-.222c-.13 4.592-.13 9.223 0 13.854z" class="cls-5" transform="translate(-22.953 -54.963)"/>
        <path id="Path_11209" d="M143.215.937L141.73.73c5.87 4.692 9.538 10.07 13.396 16.27l1.179.344c-3.828-6.188-7.441-11.654-13.09-16.407z" class="cls-5" transform="translate(-33.239 -.171)"/>
        <path id="Path_11210" d="M1.69 138.135c.077.5.161.987.245 1.485 4.593-10.441 8.933-21 13.013-31.568q.39-2.358.919-4.662c-4.425 11.635-9.14 23.255-14.177 34.745z" class="cls-5" transform="translate(-.396 -24.247)"/>
        <path id="Path_11211" d="M33.293 53.413a69.146 69.146 0 0 0 .528-13.733c-.268.268-.521.551-.765.827a68.127 68.127 0 0 1-.566 12.8 109.317 109.317 0 0 1-3.69 16.724q.873-1.784 1.837-3.552a105.4 105.4 0 0 0 2.656-13.067z" class="cls-5" transform="translate(-6.754 -9.306)"/>
        <path id="Path_11212" d="M151.6 2.189c-.543-.107-1.079-.207-1.623-.3 6.139 5.022 9.966 10.992 13.947 17.728l1.24.5c-3.939-6.661-7.652-12.784-13.564-17.928z" class="cls-5" transform="translate(-35.174 -.443)"/>
        <path id="Path_11213" d="M104.9 249.8l.811.138q.337-6.759 1-13.434l-.811-.161c-.434 4.444-.778 8.922-1 13.457z" class="cls-5" transform="translate(-24.602 -55.427)"/>
        <path id="Path_11214" d="M90.541 246.087l.842.253q-.658-7.211-.926-14.391l-.827-.3q.283 7.196.911 14.438z" class="cls-5" transform="translate(-21.02 -54.328)"/>
        <path id="Path_11215" d="M135.578.234L134.2.15c5.42 4.371 8.971 9.346 12.692 15.088l1.133.245c-3.698-5.734-7.188-10.801-12.447-15.249z" class="cls-5" transform="translate(-31.473 -.035)"/>
        <path id="Path_11216" d="M139.334.5L137.91.38c5.649 4.524 9.255 9.66 13.082 15.646l1.156.3C148.359 10.369 144.8 5.118 139.334.5z" class="cls-5" transform="translate(-32.343 -.089)"/>
        <path id="Path_11217" d="M94.332 247.233l.834.222q-.444-7.027-.505-14.085l-.811-.26q.061 7.058.482 14.123z" class="cls-5" transform="translate(-22.01 -54.67)"/>
        <path id="Path_11218" d="M9.29 170.906l.413 1q4.157-8.3 8.573-16.45c-.107-.39-.2-.765-.291-1.179-2.969 5.468-5.855 10.995-8.695 16.629z" class="cls-5" transform="translate(-2.179 -36.182)"/>
        <path id="Path_11219" d="M62.191 26.79a25.322 25.322 0 0 0-3.544-6.53l-.7.459a24.733 24.733 0 0 1 3.475 6.346 49.558 49.558 0 0 1 1.784 6.269l.765-.5a49.71 49.71 0 0 0-1.784-6.047z" class="cls-5" transform="translate(-13.591 -4.751)"/>
        <path id="Path_11220" d="M8.28 168.11l.39 1.026q4.317-8.52 8.772-16.955c-.092-.413-.184-.827-.268-1.24q-4.515 8.549-8.894 17.169z" class="cls-5" transform="translate(-1.942 -35.399)"/>
        <path id="Path_11221" d="M58.072 26.225l-.383.138.383-.138A23.668 23.668 0 0 0 56.044 22l-.674.467a23.087 23.087 0 0 1 1.937 4.042 48.8 48.8 0 0 1 2.373 9.408l.765-.566a49.2 49.2 0 0 0-2.373-9.124z" class="cls-5" transform="translate(-12.986 -5.16)"/>
        <path id="Path_11222" d="M102.186 13.971c-1.852-2.067-3.682-4.111-5.4-6.124-.98-1.133-1.937-2.235-2.893-3.307L93 4.777c1.049 1.156 2.1 2.358 3.161 3.6 1.753 2.044 3.59 4.1 5.443 6.17l1.416 1.585.926-.176z" class="cls-5" transform="translate(-21.811 -1.065)"/>
        <path id="Path_11223" d="M36.131 191.249c-.765 5.879-1.4 11.964-1.791 18.172l.765.827c.375-6.43.987-12.738 1.822-18.823-.237-.329-.467-.658-.689-1z" class="cls-5" transform="translate(-8.054 -44.66)"/>
        <path id="Path_11224" d="M65.275 16.28l-.765.413a36.9 36.9 0 0 1 8.19 10.786l.72-.383a37.723 37.723 0 0 0-8.145-10.816z" class="cls-5" transform="translate(-15.129 -3.818)"/>
        <path id="Path_11225" d="M12 177.083c.153.329.3.658.459.987q3.6-8.42 7.777-16.6c-.122-.367-.237-.765-.344-1.087q-4.218 8.211-7.892 16.7z" class="cls-5" transform="translate(-2.814 -37.613)"/>
        <path id="Path_11226" d="M70.275 28.23a31.538 31.538 0 0 0-7.058-10.77l-.727.429a30.887 30.887 0 0 1 7.019 10.625l.23.658.72-.429z" class="cls-5" transform="translate(-14.655 -4.095)"/>
        <path id="Path_11227" d="M66.245 27.465a28.4 28.4 0 0 0-5.258-8.665l-.7.436a27.687 27.687 0 0 1 5.19 8.5c.413 1.118.765 2.243 1.095 3.368l.72-.452c-.335-1.059-.656-2.123-1.047-3.187z" class="cls-5" transform="translate(-14.139 -4.409)"/>
        <path id="Path_11228" d="M10.28 173.354c.138.314.276.635.421.949q1.768-3.605 3.613-7.165-1.776 3.72-3.483 7.486l.452 1q3.781-8.42 8.03-16.641c-.191-.628-.367-1.271-.543-1.906q-4.402 8.04-8.49 16.277z" class="cls-5" transform="translate(-2.411 -36.839)"/>
        <path id="Path_11229" d="M38.837 35.59l-.765.72A69.158 69.158 0 0 1 36.9 58.4c.367-.536.765-1.064 1.125-1.592a67.591 67.591 0 0 0 .812-21.218z" class="cls-5" transform="translate(-8.654 -8.347)"/>
        <path id="Path_11230" d="M2.78 146.551c.092.444.191.888.291 1.332q5.756-12.531 11.061-25.261c0-.819.077-1.63.13-2.442Q8.751 133.453 2.78 146.551z" class="cls-5" transform="translate(-.652 -28.185)"/>
        <path id="Path_11231" d="M13 179.169l.49.987c2.235-5.7 4.708-11.306 7.448-16.764-.122-.367-.245-.765-.36-1.1-2.763 5.494-5.278 11.136-7.578 16.877z" class="cls-5" transform="translate(-3.049 -38.061)"/>
        <path id="Path_11232" d="M68.328 16.076c-.329-.314-.666-.62-1-.926l-.765.406c.406.367.811.765 1.2 1.11a43.793 43.793 0 0 1 7.655 9.362l.765-.36a44.65 44.65 0 0 0-7.854-9.591z" class="cls-5" transform="translate(-15.61 -3.553)"/>
        <path id="Path_11233" d="M3.91 152.541c.1.406.207.811.314 1.217q5.221-10.939 10.166-22.023c0-.62-.046-1.248-.054-1.875Q9.261 141.273 3.91 152.541z" class="cls-5" transform="translate(-.917 -30.455)"/>
        <path id="Path_11234" d="M43.024 32.09l-.7.628a58.107 58.107 0 0 1 .429 18.854l.957-1.125a57.556 57.556 0 0 0-.686-18.357z" class="cls-5" transform="translate(-9.925 -7.526)"/>
        <path id="Path_11235" d="M46.449 29.16l-.689.589a56.484 56.484 0 0 1 1.531 16.9c.283-.306.574-.6.857-.9a56.37 56.37 0 0 0-1.7-16.6z" class="cls-5" transform="translate(-10.732 -6.839)"/>
        <path id="Path_11236" d="M5 157.387l.344 1.148q4.884-9.951 9.614-20.032c-.054-.536-.1-1.079-.145-1.623Q10.022 147.168 5 157.387z" class="cls-5" transform="translate(-1.173 -32.102)"/>
        <path id="Path_11237" d="M49.911 26.42l-.681.521a52.259 52.259 0 0 1 2.488 15.5l.8-.765a52.5 52.5 0 0 0-2.61-15.256z" class="cls-5" transform="translate(-11.546 -6.196)"/>
        <path id="Path_11238" d="M6.16 161.489c.115.367.237.765.36 1.1q4.646-9.323 9.247-18.67c-.069-.475-.138-.957-.2-1.431Q10.9 152 6.16 161.489z" class="cls-5" transform="translate(-1.445 -33.417)"/>
        <path id="Path_11239" d="M53.877 25.794a14.055 14.055 0 0 0-.765-1.784l-.681.49c.237.513.452 1.033.643 1.569a49.954 49.954 0 0 1 2.7 12.829l.765-.635a50.682 50.682 0 0 0-2.664-12.47z" class="cls-5" transform="translate(-12.296 -5.631)"/>
        <path id="Path_11240" d="M7.23 165.007c.13.352.253.712.375 1.064q4.478-8.849 8.994-17.682c-.084-.436-.168-.873-.245-1.309q-4.569 8.956-9.124 17.927z" class="cls-5" transform="translate(-1.696 -34.494)"/>
        <path id="Path_11241" d="M27.022 191.843c-.444 2.465-.834 4.937-1.2 7.417l.689.9c.4-2.725.827-5.45 1.309-8.168.658-3.552 1.378-7.157 2.22-10.717l-.582-1.072c-.951 3.87-1.732 7.797-2.436 11.64z" class="cls-5" transform="translate(-6.055 -42.261)"/>
        <path id="Path_11242" d="M90.481 12.332c-1.669-1.73-3.315-3.445-4.9-5.152l-.842.3.276.291.3-.276-.3.276c1.607 1.73 3.269 3.452 4.937 5.2s3.368 3.506 5.037 5.289l.88-.237c-1.798-1.956-3.604-3.839-5.388-5.691z" class="cls-5" transform="translate(-19.874 -1.684)"/>
        <path id="Path_11243" d="M24.212 192.23c-.253 1.294-.482 2.587-.712 3.889.214.306.436.6.658.911.268-1.531.551-3.1.857-4.646.919-4.669 1.952-9.438 3.246-14.161-.184-.352-.36-.712-.536-1.072-1.416 5.028-2.533 10.119-3.513 15.079z" class="cls-5" transform="translate(-5.511 -41.546)"/>
        <path id="Path_11244" d="M86.554 11.737c-1.225-1.232-2.419-2.457-3.6-3.667-.283.1-.551.207-.827.314q1.906 1.96 3.873 3.95c2.159 2.182 4.333 4.386 6.445 6.652l.873-.253c-2.209-2.396-4.505-4.715-6.764-6.996z" class="cls-5" transform="translate(-19.261 -1.893)"/>
        <path id="Path_11245" d="M94.46 12.948c-1.669-1.776-3.314-3.536-4.9-5.289l-.582-.643-.72-.765-.85.283.992 1.056.559.62c1.6 1.776 3.261 3.544 4.93 5.358q1.837 1.952 3.659 3.935l.9-.222c-1.324-1.47-2.656-2.909-3.988-4.333z" class="cls-5" transform="translate(-20.5 -1.466)"/>
        <path id="Path_11246" d="M29.9 191.5c-.589 3.552-1.125 7.2-1.592 10.923l.7.873c.49-3.973 1.064-7.869 1.692-11.658.4-2.388.834-4.823 1.317-7.257l-.628-1.049c-.553 2.754-1.02 5.494-1.489 8.168z" class="cls-5" transform="translate(-6.639 -42.995)"/>
        <path id="Path_11247" d="M32.967 191.328c-.72 4.715-1.332 9.576-1.807 14.544l.765.842c.482-5.221 1.118-10.326 1.875-15.256.184-1.194.367-2.388.574-3.59l-.658-1.018c-.283 1.5-.516 3.001-.749 4.478z" class="cls-5" transform="translate(-7.308 -43.821)"/>
        <path id="Path_11248" d="M98.241 13.349c-1.875-2.044-3.72-4.049-5.473-6.032-.582-.666-1.164-1.324-1.745-1.967l-.873.26c.666.765 1.332 1.477 2.006 2.243 1.768 2.013 3.628 4.034 5.511 6.078l2.6 2.832.919-.2c-.978-1.078-1.965-2.157-2.945-3.214z" class="cls-5" transform="translate(-21.142 -1.255)"/>
        <path id="Path_11249" d="M82.638 11.171c-.765-.72-1.462-1.431-2.182-2.151l-.827.337c.811.811 1.638 1.615 2.465 2.427 2.656 2.61 5.358 5.259 7.9 8.022l.85-.276c-2.644-2.871-5.45-5.649-8.206-8.359z" class="cls-5" transform="translate(-18.675 -2.115)"/>
        <path id="Path_11250" d="M21.55 192.745a2.228 2.228 0 0 1-.1.49l.643.949.253-1.263c1.24-5.772 2.649-11.589 4.447-17.254l-.505-1.087a185.894 185.894 0 0 0-4.738 18.165z" class="cls-5" transform="translate(-5.031 -40.943)"/>
        <path id="Path_11251" d="M76.181 17.49c-1.531-1.531-3.108-3.016-4.715-4.47l-.765.4c1.676 1.531 3.337 3.062 4.93 4.654a58.943 58.943 0 0 1 4.861 5.542l.765-.337a59.141 59.141 0 0 0-5.075-5.787z" class="cls-5" transform="translate(-16.581 -3.054)"/>
        <path id="Path_11252" d="M15.32 183.437c.176.329.36.658.543.98a164.975 164.975 0 0 1 6.675-17.317c-.13-.36-.268-.712-.406-1.072a165.339 165.339 0 0 0-6.813 17.407z" class="cls-5" transform="translate(-3.593 -38.938)"/>
        <path id="Path_11253" d="M84.1 19.137C81.461 16.3 78.6 13.618 75.765 11l-.765.367c2.893 2.679 5.825 5.42 8.535 8.321.589.628 1.156 1.263 1.715 1.906l.811-.306c-.661-.727-1.301-1.447-1.961-2.151z" class="cls-5" transform="translate(-17.589 -2.58)"/>
        <path id="Path_11254" d="M18 187.944l.589.98a158.5 158.5 0 0 1 5.795-17.9c-.153-.36-.3-.72-.444-1.079a154.33 154.33 0 0 0-5.94 18z" class="cls-5" transform="translate(-4.221 -39.855)"/>
        <path id="Path_11255" d="M14.14 181.291c.176.329.352.658.521.987a177.173 177.173 0 0 1 7.081-17.024c-.13-.36-.26-.765-.383-1.095a175.9 175.9 0 0 0-7.218 17.131z" class="cls-5" transform="translate(-3.316 -38.5)"/>
        <path id="Path_11256" d="M71.88 16.346c-.8-.765-1.63-1.531-2.465-2.3l-.765.406c.9.811 1.791 1.63 2.656 2.48a52.733 52.733 0 0 1 6.729 7.793l.765-.344a53.039 53.039 0 0 0-6.92-8.037z" class="cls-5" transform="translate(-16.1 -3.295)"/>
        <path id="Path_11257" d="M87.706 19.584c-2.855-3.108-5.963-6.078-8.994-8.971L78.069 10l-.819.352.926.888c3.016 2.878 6.124 5.8 8.933 8.91.161.168.314.352.475.528l.834-.3z" class="cls-5" transform="translate(-18.117 -2.345)"/>
        <path id="Path_11258" d="M19.64 190.514c.2.329.406.651.612.972a173.39 173.39 0 0 1 5.259-18.249c-.161-.36-.322-.727-.475-1.087a166.622 166.622 0 0 0-5.4 18.364z" class="cls-5" transform="translate(-4.606 -40.373)"/>
        <path id="Path_11259" d="M177.408 140.6c.161-.306.314-.62.467-.934.551-1.1 1.079-2.228 1.577-3.36.161-.367.329-.765.482-1.1q1.439-3.353 2.564-6.843c.566-1.738 1.087-3.491 1.531-5.266a83.66 83.66 0 0 0 2.113-11.658c.115-1.033.214-2.074.291-3.115.145-2.059.23-4.134.23-6.231v-.98c0-1.194-.046-2.388-.107-3.575a86.391 86.391 0 0 0-.9-8.627q-.413-2.641-.987-5.213A84.2 84.2 0 0 0 170.71 52.64q-1.317-1.822-2.733-3.575c-1.278-1.592-2.618-3.131-4-4.593-.666-.712-1.34-1.416-2.029-2.105-1.079-1.087-2.189-2.136-3.33-3.161-.574-.513-1.156-1.018-1.738-1.531-.987-.842-1.983-1.653-3.008-2.442-.521-.406-1.041-.765-1.577-1.194q-1.393-1.033-2.825-2.006c-.482-.329-.972-.651-1.47-.972-.865-.559-1.738-1.1-2.626-1.63-.459-.276-.919-.551-1.386-.811-.834-.482-1.684-.942-2.534-1.386-.436-.237-.88-.459-1.324-.689-.765-.4-1.607-.765-2.419-1.171l-1.278-.6c-.765-.344-1.531-.674-2.335-1l-1.24-.5c-.765-.3-1.531-.574-2.3-.85l-1.209-.429c-.765-.245-1.47-.49-2.2-.72l-1.156-.337q-1.041-.306-2.113-.6l-1.125-.306-2.067-.49-1.133-.245c-.658-.138-1.324-.268-1.99-.39l-1.1-.2-1.937-.306-1.079-.153c-1.577-.207-3.169-.383-4.777-.505l-1.033-.069-1.753-.092-1.026-.038c-.574 0-1.148 0-1.722-.038h-3.663l-1.592.061-.972.061-1.531.1-.972.084-1.447.145-.961.122-1.37.176-.949.13-1.263.2c-.314.054-.635.1-.942.161l-1.232.222-.926.176-1.148.245-.919.2-1.179.283-.9.222-1.079.283-.88.237-1.049.337-.873.26-1.018.321-.85.276-1.018.344-.834.329-1.026.375-.811.306-1.033.375-.765.321-1.125.475-.765.337-1.209.543-.765.344-1.378.666-.765.36c-.513.26-1.033.528-1.531.8l-.72.383q-.926.482-1.768.987l-.72.429q-.972.574-1.929 1.171l-.72.452c-.7.452-1.4.911-2.09 1.386l-.765.5c-.765.528-1.493 1.056-2.228 1.607l-.765.566c-.8.612-1.592 1.232-2.373 1.875l-.765.635c-.857.727-1.715 1.47-2.541 2.228l-.8.765c-.934.873-1.837 1.761-2.733 2.672-.283.3-.574.589-.857.9q-1.431 1.531-2.8 3.108l-.957 1.125c-1.186 1.431-2.3 2.909-3.414 4.417-.383.528-.765 1.056-1.125 1.592q-2.365 3.445-4.4 7.119-.9 1.753-1.784 3.536a84.072 84.072 0 0 0-6.522 18.417q-.528 2.3-.919 4.662a82.669 82.669 0 0 0-.98 8.214c-.054.811-.1 1.623-.13 2.442-.054 1.171-.084 2.342-.084 3.521v1.424c0 .628 0 1.255.054 1.875 0 1.179.107 2.342.2 3.5.046.543.092 1.087.145 1.623.084.9.191 1.784.306 2.672.061.475.13.957.2 1.431.107.7.214 1.393.337 2.082.077.436.161.873.245 1.309.1.551.207 1.1.329 1.646.084.413.176.827.268 1.24s.2.857.306 1.278.184.765.291 1.179.176.666.268 1c.176.635.352 1.278.543 1.906l.184.62c.107.36.222.72.344 1.087a1.263 1.263 0 0 0 .122.375c.115.367.237.765.36 1.1.038.107.077.222.122.329.122.367.253.765.383 1.095l.115.337c.138.36.276.712.406 1.072.054.13.1.26.153.383l.421 1.079.191.459c.145.36.291.72.444 1.079l.276.612c.153.36.314.727.475 1.087s.237.5.352.765l.505 1.087c.145.306.3.6.452.9s.352.72.536 1.072.429.819.651 1.225l.582 1.072c.253.459.513.911.765 1.37l.628 1.049c.321.551.658 1.095 1 1.638l.658 1.018q.559.873 1.148 1.722c.222.337.452.666.689 1q.689.987 1.424 1.952c.23.314.475.628.72.942.513.666 1.033 1.332 1.577 1.983l.765.9c.6.712 1.217 1.424 1.837 2.113l.765.842c.689.765 1.386 1.477 2.105 2.2l.765.765c.765.72 1.531 1.439 2.3 2.128l.834.765q1.232 1.095 2.511 2.136l.85.689q1.3 1.033 2.641 2.013l.857.628c.834.6 1.684 1.179 2.541 1.745l.873.574c.85.551 1.715 1.079 2.587 1.592.283.176.574.344.865.513q3.085 1.745 6.338 3.276l.85.4c.827.375 1.669.765 2.511 1.1l.834.337c.811.329 1.63.651 2.45.957l.827.3c.765.283 1.592.559 2.4.819l.811.26c.765.245 1.531.475 2.3.7l.811.222q1.164.306 2.342.6l.765.191c.765.184 1.569.352 2.358.505l.811.161c.765.145 1.592.291 2.4.413l.811.13c.827.13 1.661.237 2.5.337l.811.092c.873.1 1.745.184 2.626.253l.827.054c.926.069 1.86.115 2.794.145l.842.038h4.134c1.1 0 2.2-.077 3.292-.138l.9-.061c1.225-.084 2.442-.2 3.659-.337l.957-.107q2.105-.26 4.172-.635l1.041-.191q2.48-.475 4.9-1.079l1.164-.306c1.983-.528 3.942-1.133 5.864-1.8.436-.153.88-.306 1.309-.467q3.827-1.408 7.525-3.177c.582-.276 1.148-.566 1.722-.85a84.968 84.968 0 0 0 24.924-19.29c.36-.4.712-.765 1.056-1.2 1.186-1.393 2.335-2.817 3.429-4.279l.72-.987q1.209-1.669 2.335-3.383c.207-.314.413-.628.612-.942.628-1 1.24-2 1.837-3.024l.513-.911c.526-.958 1.046-1.914 1.544-2.895z" class="cls-1" transform="translate(-4.104 -4.109)"/>
        <circle id="Ellipse_1656" cx="74.955" cy="74.955" r="74.955" class="cls-3" transform="translate(22.604 23.447)"/>
        <path id="Path_11260" d="M117.339 148.525a30.711 30.711 0 0 1-9.186-2.151 25.636 25.636 0 0 1-7.433-4.8 22.8 22.8 0 0 1-4.991-6.751 19.7 19.7 0 0 1-1.96-8.313h12.041a11.765 11.765 0 0 0 3.322 8.022 13.258 13.258 0 0 0 8.221 3.621v-19.375l-4.593-.689q-7.923-1.079-12.623-5.971a16.845 16.845 0 0 1-4.593-12.431 15.823 15.823 0 0 1 1.73-7.341 20.109 20.109 0 0 1 4.792-6.124 24.648 24.648 0 0 1 6.951-4.4 28.407 28.407 0 0 1 8.321-2.059V70.63h7.142v9.293a27.274 27.274 0 0 1 8.122 2.35 22.245 22.245 0 0 1 6.461 4.31 19.672 19.672 0 0 1 4.3 6.063 18.677 18.677 0 0 1 1.87 7.354h-12.041a9.239 9.239 0 0 0-2.641-6.07 12 12 0 0 0-6.07-3.613v17.9l3.33.49a28.613 28.613 0 0 1 7.042 2.059 19.535 19.535 0 0 1 5.772 3.827 15.769 15.769 0 0 1 3.919 5.672 17.651 17.651 0 0 1 1.456 7.293 19.137 19.137 0 0 1-6.124 14.314 24.235 24.235 0 0 1-6.889 4.409 29.732 29.732 0 0 1-8.512 2.151v10.074h-7.142v-9.951zm7.142-10.472a12.745 12.745 0 0 0 7.142-3.33 9.186 9.186 0 0 0 2.549-6.652 6.3 6.3 0 0 0-2.45-5.481 13.128 13.128 0 0 0-5.58-2.45l-1.661-.291zM117.339 90a13.847 13.847 0 0 0-7.042 3.062 7.838 7.838 0 0 0-2.84 6.361 6.8 6.8 0 0 0 1.86 5.19 10.081 10.081 0 0 0 5.09 2.151l2.939.49V90z" class="cls-1" transform="translate(-21.991 -16.564)"/>
    </g>
</svg>
