<svg width="256" height="256" viewBox="0 0 256 256" fill="none" xmlns="http://www.w3.org/2000/svg">
<g clip-path="url(#clip0)">
<path d="M128 256C198.692 256 256 198.692 256 128C256 57.3075 198.692 0 128 0C57.3075 0 0 57.3075 0 128C0 198.692 57.3075 256 128 256Z" fill="white"/>
<path d="M128 256C119.334 256.002 110.691 255.131 102.2 253.4C85.8269 250.046 70.2744 243.501 56.43 234.139C35.8506 220.247 19.7416 200.686 10.055 177.824C6.78329 170.082 4.28611 162.034 2.59996 153.8C-0.867305 136.777 -0.867305 119.23 2.59996 102.207C5.95345 85.834 12.4979 70.2816 21.86 56.437C35.7519 35.8564 55.3144 19.7464 78.177 10.059C85.9188 6.78584 93.9657 4.28732 102.2 2.59998C119.223 -0.867475 136.77 -0.867475 153.793 2.59998C170.166 5.95343 185.718 12.4979 199.563 21.86C220.142 35.7519 236.251 55.314 245.938 78.176C249.212 85.9181 251.712 93.9653 253.4 102.2C256.867 119.223 256.867 136.77 253.4 153.793C250.047 170.166 243.502 185.719 234.14 199.563C220.247 220.142 200.686 236.251 177.824 245.938C170.082 249.212 162.035 251.711 153.8 253.4C145.309 255.131 136.665 256.002 128 256ZM128 13.713C120.264 13.7113 112.547 14.4892 104.967 16.035C90.3478 19.0289 76.4613 24.8724 64.1 33.232C45.7279 45.637 31.3473 63.1032 22.7 83.515C19.7777 90.4283 17.5471 97.6141 16.041 104.967C12.9451 120.166 12.9451 135.833 16.041 151.032C19.036 165.651 24.8805 179.537 33.241 191.898C45.6449 210.272 63.1108 224.655 83.523 233.305C90.4368 236.227 97.6228 238.457 104.976 239.963C120.175 243.059 135.842 243.059 151.041 239.963C165.66 236.969 179.547 231.125 191.907 222.763C210.276 210.358 224.654 192.894 233.3 172.485C236.222 165.571 238.453 158.385 239.959 151.032C243.055 135.833 243.055 120.166 239.959 104.967C236.964 90.3483 231.119 76.4625 222.759 64.102C210.357 45.7305 192.894 31.3491 172.485 22.7C165.571 19.7779 158.385 17.5474 151.032 16.041C143.452 14.4936 135.736 13.714 128 13.714V13.713Z" fill="url(#paint0_linear)"/>
<path d="M128 171.661H74.3673C67.1034 171.661 62.7124 163.63 66.6333 157.515L97.1471 109.924C99.3996 106.411 103.286 104.286 107.459 104.286H148.541C152.715 104.286 156.601 106.411 158.853 109.924L189.367 157.515C193.288 163.63 188.897 171.661 181.633 171.661H128Z" fill="white"/>
<path d="M133.48 62.1884L146.296 81.771C148.962 85.8447 146.039 91.25 141.171 91.25H115.061C110.145 91.25 107.232 85.7516 109.993 81.6846L123.288 62.1021C125.743 58.4858 131.087 58.5311 133.48 62.1884Z" fill="white"/>
<path d="M128 226C182.124 226 226 182.124 226 128C226 73.8761 182.124 30 128 30C73.8761 30 30 73.8761 30 128C30 182.124 73.8761 226 128 226Z" fill="#00A64F"/>
<path d="M128 226C182.124 226 226 182.124 226 128C226 73.8761 182.124 30 128 30C73.8761 30 30 73.8761 30 128C30 182.124 73.8761 226 128 226Z" fill="url(#paint1_radial)"/>
<path d="M128 226C182.124 226 226 182.124 226 128C226 73.8761 182.124 30 128 30C73.8761 30 30 73.8761 30 128C30 182.124 73.8761 226 128 226Z" fill="url(#paint2_radial)"/>
<path d="M128 226C182.124 226 226 182.124 226 128C226 73.8761 182.124 30 128 30C73.8761 30 30 73.8761 30 128C30 182.124 73.8761 226 128 226Z" fill="url(#paint3_radial)"/>
<path d="M145.7 120.4H137.35V95.95H173.65V80.95H137.35V57.5H118.65V80.95V81.05H110.75C93.7001 81.05 79.4501 89.65 79.4501 108.5C79.4501 124.95 91.9501 135.3 110.3 135.3H118.65V159.75H82.3501V174.75H118.65V198.2H137.35V174.65H145.25C162.35 174.65 176.55 166.05 176.55 147.2C176.55 130.75 164.05 120.4 145.7 120.4ZM118.65 135.3V120.4H112.7C104.75 120.4 98.3001 117.05 98.3001 108.15C98.3001 99.35 104.45 96 113.1 96H118.65V120.45H137.35V135.35L118.65 135.3ZM142.9 159.75H137.35V135.3H143.3C151.25 135.3 157.7 138.65 157.7 147.55C157.7 156.4 151.55 159.75 142.9 159.75Z" fill="white"/>
</g>
<defs>
<linearGradient id="paint0_linear" x1="215.808" y1="34.5595" x2="52.7359" y2="226.816" gradientUnits="userSpaceOnUse">
<stop stop-color="#B6509E"/>
<stop offset="1" stop-color="#2EBAC6"/>
</linearGradient>
<radialGradient id="paint1_radial" cx="0" cy="0" r="1" gradientUnits="userSpaceOnUse" gradientTransform="translate(38.5693 182.348) scale(156.791)">
<stop offset="0.09" stop-color="#00522C"/>
<stop offset="1" stop-color="#00522C" stop-opacity="0"/>
</radialGradient>
<radialGradient id="paint2_radial" cx="0" cy="0" r="1" gradientUnits="userSpaceOnUse" gradientTransform="translate(193.103 209.946) rotate(-97.1804) scale(156.798)">
<stop offset="0.09" stop-color="#00A64F"/>
<stop offset="1" stop-color="#00A64F" stop-opacity="0"/>
</radialGradient>
<radialGradient id="paint3_radial" cx="0" cy="0" r="1" gradientUnits="userSpaceOnUse" gradientTransform="translate(218.872 64.3643) scale(130.181)">
<stop offset="0.0983633" stop-color="#8AD137"/>
<stop offset="1" stop-color="#8AD137" stop-opacity="0"/>
</radialGradient>
<clipPath id="clip0">
<rect width="256" height="256" fill="white"/>
</clipPath>
</defs>
</svg>
