<svg width="256" height="256" viewBox="0 0 256 256" fill="none" xmlns="http://www.w3.org/2000/svg">
<g clip-path="url(#clip0_1751_1955)">
<path d="M128 256C198.692 256 256 198.692 256 128C256 57.3075 198.692 0 128 0C57.3075 0 0 57.3075 0 128C0 198.692 57.3075 256 128 256Z" fill="white"/>
<path d="M128 256C119.334 256.002 110.691 255.131 102.2 253.4C85.8269 250.046 70.2744 243.501 56.43 234.139C35.8506 220.247 19.7416 200.686 10.055 177.824C6.78329 170.082 4.28611 162.034 2.59996 153.8C-0.867305 136.777 -0.867305 119.23 2.59996 102.207C5.95345 85.834 12.4979 70.2816 21.86 56.437C35.7519 35.8564 55.3144 19.7464 78.177 10.059C85.9188 6.78584 93.9657 4.28732 102.2 2.59998C119.223 -0.867475 136.77 -0.867475 153.793 2.59998C170.166 5.95343 185.718 12.4979 199.563 21.86C220.142 35.7519 236.251 55.314 245.938 78.176C249.212 85.9181 251.712 93.9653 253.4 102.2C256.867 119.223 256.867 136.77 253.4 153.793C250.047 170.166 243.502 185.719 234.14 199.563C220.247 220.142 200.686 236.251 177.824 245.938C170.082 249.212 162.035 251.711 153.8 253.4C145.309 255.131 136.665 256.002 128 256ZM128 13.713C120.264 13.7113 112.547 14.4892 104.967 16.035C90.3478 19.0289 76.4613 24.8724 64.1 33.232C45.7279 45.637 31.3473 63.1032 22.7 83.515C19.7777 90.4283 17.5471 97.6141 16.041 104.967C12.9451 120.166 12.9451 135.833 16.041 151.032C19.036 165.651 24.8805 179.537 33.241 191.898C45.6449 210.272 63.1108 224.655 83.523 233.305C90.4368 236.227 97.6228 238.457 104.976 239.963C120.175 243.059 135.842 243.059 151.041 239.963C165.66 236.969 179.547 231.125 191.907 222.763C210.276 210.358 224.654 192.894 233.3 172.485C236.222 165.571 238.453 158.385 239.959 151.032C243.055 135.833 243.055 120.166 239.959 104.967C236.964 90.3483 231.119 76.4625 222.759 64.102C210.357 45.7305 192.894 31.3491 172.485 22.7C165.571 19.7779 158.385 17.5474 151.032 16.041C143.452 14.4936 135.736 13.714 128 13.714V13.713Z" fill="url(#paint0_linear_1751_1955)"/>
<path d="M128 228C183.228 228 228 183.228 228 128C228 72.7715 183.228 28 128 28C72.7715 28 28 72.7715 28 128C28 183.228 72.7715 228 128 228Z" fill="white"/>
<path d="M99.122 201.045C136.51 201.045 136.51 200.488 142.85 198.607C151.131 196.148 119.459 174.222 99.122 174.222C78.7845 174.222 62.2993 180.226 62.2993 187.632C62.2993 195.038 78.7837 201.045 99.122 201.045Z" fill="black"/>
<path d="M184.02 86.9945L185.739 88.8477L184.236 90.8789C135.474 156.809 107.384 186.66 95.4664 182.655C88.207 180.217 80.9265 172.883 73.6469 162.233C71.0875 158.49 68.6851 154.548 66.4992 150.625C65.0437 148.013 63.8117 145.63 63.1726 144.289C62.5038 142.979 62.0213 141.582 61.739 140.138L61.7062 139.972C61.5922 139.384 61.55 139.198 61.4672 138.878C58.1178 126.264 58.5555 112.944 62.7256 100.577C66.8958 88.2105 74.6139 77.345 84.9176 69.3352C95.2214 61.3255 107.655 56.5259 120.668 55.5349C133.681 54.5439 146.698 57.4054 158.096 63.7625L158.349 63.9188C166.389 69.5177 174.946 77.2096 184.02 86.9945V86.9945ZM154.99 69.0102C144.633 63.2754 132.82 60.7109 121.018 61.6357C109.215 62.5604 97.9454 66.9335 88.6084 74.2114C79.2715 81.4892 72.2795 91.3508 68.5017 102.57C64.7239 113.789 64.327 125.872 67.3601 137.315C67.4922 137.812 67.5515 138.092 67.6914 138.813L67.7203 138.96C67.9048 139.905 68.2267 140.817 68.6758 141.668C69.2594 142.892 70.432 145.159 71.825 147.66C73.9258 151.43 76.2336 155.216 78.6797 158.795C85.257 168.416 91.7805 174.988 97.4078 176.878C104.913 179.399 133.169 149.489 177.823 89.3C169.716 80.7412 162.105 73.9779 154.99 69.0102V69.0102Z" fill="black"/>
<path d="M154.989 69.0102C144.632 63.2756 132.819 60.7114 121.017 61.6362C109.215 62.5611 97.945 66.9342 88.6082 74.212C79.2714 81.4898 72.2795 91.3513 68.5018 102.571C64.724 113.79 64.3269 125.872 67.36 137.315C67.492 137.812 67.5514 138.092 67.6912 138.813L67.7201 138.96C67.9048 139.904 68.2267 140.816 68.6756 141.666C69.2592 142.891 70.4319 145.158 71.8248 147.659C73.9256 151.429 76.2334 155.215 78.6795 158.793C85.2569 168.415 91.7803 174.986 97.4076 176.877C104.913 179.398 133.169 149.488 177.822 89.2985C169.715 80.7401 162.104 73.9774 154.989 69.0102V69.0102Z" fill="#EC1C79"/>
<path d="M137.893 200.436C124.75 200.436 111.903 196.539 100.975 189.237C90.0476 181.935 81.5305 171.557 76.5011 159.415C71.4717 147.273 70.1557 133.912 72.7197 121.022C75.2837 108.132 81.6125 96.2919 90.9057 86.9987C100.199 77.7055 112.039 71.3767 124.929 68.8127C137.819 66.2487 151.18 67.5647 163.322 72.5941C175.464 77.6236 185.842 86.1406 193.144 97.0683C200.446 107.996 204.343 120.843 204.343 133.986C204.343 151.61 197.342 168.511 184.88 180.973C172.418 193.435 155.517 200.436 137.893 200.436V200.436ZM137.893 194.342C149.829 194.342 161.498 190.802 171.423 184.171C181.348 177.539 189.083 168.113 193.651 157.085C198.219 146.057 199.414 133.922 197.086 122.215C194.757 110.508 189.009 99.754 180.569 91.3135C172.128 82.8729 161.375 77.1248 149.668 74.7958C137.96 72.4669 125.826 73.6618 114.797 78.2294C103.769 82.7971 94.3433 90.5323 87.7114 100.457C81.0795 110.382 77.5395 122.05 77.539 133.987C77.539 141.912 79.1001 149.761 82.1332 157.083C85.1663 164.405 89.6119 171.059 95.2163 176.663C100.821 182.267 107.474 186.713 114.797 189.746C122.119 192.779 129.967 194.34 137.893 194.34V194.342Z" fill="black"/>
<path d="M137.892 194.34C149.829 194.34 161.498 190.8 171.423 184.169C181.348 177.537 189.083 168.111 193.651 157.083C198.219 146.055 199.414 133.92 197.086 122.213C194.757 110.505 189.009 99.7514 180.569 91.3109C172.128 82.8703 161.374 77.1222 149.667 74.7933C137.96 72.4645 125.825 73.6596 114.797 78.2275C103.768 82.7953 94.3426 90.5308 87.7108 100.456C81.079 110.381 77.5392 122.049 77.5391 133.986C77.539 141.912 79.1 149.76 82.1329 157.082C85.1659 164.405 89.6115 171.058 95.2158 176.663C100.82 182.267 107.473 186.713 114.796 189.746C122.118 192.779 129.966 194.34 137.892 194.34V194.34Z" fill="white"/>
<path d="M134.508 93.224C136.535 92.1555 139.619 92.1555 141.646 93.224L162.326 104.127C163.547 104.77 164.217 105.729 164.337 106.719H164.357V161.521C164.33 162.601 163.653 163.674 162.326 164.373L141.646 175.276C139.619 176.345 136.535 176.345 134.508 175.276L113.828 164.373C112.506 163.677 111.872 162.597 111.84 161.521C111.837 161.411 111.837 161.32 111.84 161.245L111.84 107.088C111.837 107.012 111.837 106.936 111.84 106.86L111.84 106.719H111.85C111.941 105.718 112.581 104.784 113.828 104.127L134.508 93.224ZM161.067 137.187L141.639 147.463C139.615 148.534 136.536 148.534 134.512 147.463L115.128 137.21V161.352L134.512 171.551C135.658 172.163 136.849 172.761 138.009 172.787L138.076 172.788C139.233 172.791 140.357 172.203 141.497 171.646L161.067 161.264V137.187ZM108.598 160.333C108.598 162.434 108.84 163.815 109.32 164.788C109.719 165.594 110.316 166.21 111.407 166.96L111.47 167.003C111.709 167.166 111.973 167.336 112.294 167.537L112.672 167.771L113.835 168.479L112.168 171.26L110.866 170.467L110.647 170.332C110.271 170.097 109.959 169.896 109.668 169.698C106.559 167.583 105.399 165.277 105.376 160.48L105.376 160.333H108.598ZM136.511 122.618C136.361 122.67 136.22 122.73 136.091 122.798L115.442 133.736C115.42 133.747 115.4 133.759 115.38 133.77L115.363 133.78L115.395 133.799L115.442 133.824L136.091 144.762C136.22 144.83 136.361 144.89 136.511 144.942V122.618ZM139.801 122.618V144.942C139.952 144.89 140.093 144.83 140.221 144.762L160.87 133.824C160.892 133.813 160.913 133.801 160.932 133.79L160.95 133.78L160.917 133.761L160.87 133.736L140.221 122.798C140.093 122.73 139.952 122.67 139.801 122.618ZM161.067 110.634L142.503 120.386L161.067 130.138V110.634ZM115.128 110.634V130.138L133.691 120.386L115.128 110.634ZM140.203 96.1386C139.128 95.5704 137.184 95.5704 136.109 96.1386L115.442 107.065C115.42 107.076 115.4 107.088 115.38 107.099L115.363 107.109L115.395 107.128L115.442 107.153L136.109 118.08C137.184 118.648 139.128 118.648 140.203 118.08L160.87 107.153C160.892 107.142 160.913 107.131 160.932 107.119L160.95 107.109L160.917 107.091L160.87 107.065L140.203 96.1386ZM164.145 97.2398L165.446 98.0328L165.665 98.1683C166.041 98.4026 166.353 98.604 166.644 98.8018C169.754 100.917 170.913 103.223 170.936 108.02L170.937 108.167H167.715C167.715 106.066 167.473 104.685 166.992 103.712C166.594 102.906 165.996 102.29 164.905 101.54L164.843 101.497C164.603 101.334 164.34 101.164 164.019 100.963L163.64 100.729L162.477 100.021L164.145 97.2398Z" fill="#1969FF"/>
<path d="M63.2101 115.093C62.4196 114.677 61.8234 113.968 61.5495 113.118C61.2756 112.268 61.3458 111.345 61.7449 110.546C62.144 109.746 62.8404 109.136 63.6847 108.844C64.5289 108.553 65.4538 108.604 66.2609 108.986L76.0148 113.863C76.421 114.061 76.7839 114.337 77.0827 114.675C77.3814 115.014 77.61 115.408 77.7553 115.836C77.9005 116.264 77.9594 116.716 77.9287 117.166C77.898 117.617 77.7782 118.057 77.5763 118.461C77.3743 118.865 77.0943 119.224 76.7523 119.519C76.4104 119.814 76.0133 120.038 75.5841 120.179C75.155 120.319 74.7022 120.373 74.252 120.337C73.8019 120.302 73.3633 120.177 72.9617 119.97L63.2101 115.093Z" fill="black"/>
<path d="M62.0875 131.266C61.6745 131.082 61.3022 130.817 60.9922 130.488C60.6822 130.159 60.4407 129.772 60.2816 129.349C60.1225 128.925 60.049 128.475 60.0655 128.023C60.0819 127.571 60.188 127.127 60.3774 126.717C60.5669 126.306 60.836 125.937 61.1691 125.632C61.5022 125.326 61.8927 125.09 62.318 124.936C62.7432 124.782 63.1947 124.715 63.6463 124.737C64.0978 124.76 64.5404 124.872 64.9484 125.066L74.7023 129.568C75.1153 129.752 75.4875 130.016 75.7976 130.345C76.1076 130.674 76.3491 131.062 76.5082 131.485C76.6673 131.908 76.7407 132.359 76.7243 132.811C76.7078 133.262 76.6018 133.706 76.4124 134.117C76.2229 134.527 75.9538 134.896 75.6207 135.202C75.2876 135.508 74.8971 135.744 74.4718 135.897C74.0466 136.051 73.5951 136.119 73.1435 136.096C72.692 136.074 72.2494 135.962 71.8414 135.767L62.0875 131.266Z" fill="black"/>
</g>
<defs>
<linearGradient id="paint0_linear_1751_1955" x1="215.808" y1="34.5595" x2="52.7359" y2="226.816" gradientUnits="userSpaceOnUse">
<stop stop-color="#B6509E"/>
<stop offset="1" stop-color="#2EBAC6"/>
</linearGradient>
<clipPath id="clip0_1751_1955">
<rect width="256" height="256" fill="white"/>
</clipPath>
</defs>
</svg>
