<svg width="256" height="256" viewBox="0 0 256 256" fill="none" xmlns="http://www.w3.org/2000/svg">
<g clip-path="url(#clip0_2_3573)">
<path d="M128 256C198.692 256 256 198.692 256 128C256 57.3075 198.692 0 128 0C57.3075 0 0 57.3075 0 128C0 198.692 57.3075 256 128 256Z" fill="white"/>
<path d="M128 256C119.334 256.002 110.691 255.131 102.2 253.4C85.8269 250.046 70.2744 243.501 56.43 234.139C35.8506 220.247 19.7416 200.686 10.055 177.824C6.78329 170.082 4.28611 162.034 2.59996 153.8C-0.867305 136.777 -0.867305 119.23 2.59996 102.207C5.95345 85.834 12.4979 70.2816 21.86 56.437C35.7519 35.8565 55.3144 19.7464 78.177 10.059C85.9188 6.78586 93.9657 4.28733 102.2 2.6C119.223 -0.86746 136.77 -0.86746 153.793 2.6C170.166 5.95344 185.718 12.4979 199.563 21.86C220.142 35.7519 236.251 55.314 245.938 78.176C249.212 85.9181 251.712 93.9653 253.4 102.2C256.867 119.223 256.867 136.77 253.4 153.793C250.047 170.166 243.502 185.719 234.14 199.563C220.247 220.142 200.686 236.251 177.824 245.938C170.082 249.212 162.035 251.711 153.8 253.4C145.309 255.131 136.665 256.002 128 256ZM128 13.713C120.264 13.7113 112.547 14.4892 104.967 16.035C90.3478 19.0289 76.4613 24.8724 64.1 33.232C45.7279 45.637 31.3473 63.1033 22.7 83.515C19.7777 90.4284 17.5471 97.6141 16.041 104.967C12.9451 120.166 12.9451 135.833 16.041 151.032C19.036 165.651 24.8805 179.537 33.241 191.898C45.6449 210.272 63.1108 224.655 83.523 233.305C90.4368 236.227 97.6228 238.457 104.976 239.963C120.175 243.059 135.842 243.059 151.041 239.963C165.66 236.969 179.547 231.125 191.907 222.763C210.276 210.358 224.654 192.894 233.3 172.485C236.222 165.571 238.453 158.385 239.959 151.032C243.055 135.833 243.055 120.166 239.959 104.967C236.964 90.3483 231.119 76.4625 222.759 64.102C210.357 45.7305 192.894 31.3492 172.485 22.7C165.571 19.7779 158.385 17.5474 151.032 16.041C143.452 14.4936 135.736 13.714 128 13.714V13.713Z" fill="url(#paint0_linear_2_3573)"/>
<path d="M100.075 199.788C136.716 199.788 136.716 199.242 142.929 197.398C151.048 194.988 120.006 173.498 100.075 173.498C80.144 173.498 63.989 179.385 63.989 186.644C63.989 193.903 80.145 199.788 100.075 199.788Z" fill="black"/>
<path d="M183.275 88.013L184.96 89.829L183.487 91.821C135.701 156.432 108.173 185.686 96.493 181.762C89.379 179.372 82.244 172.185 75.11 161.748C72.602 158.08 70.247 154.217 68.11 150.373C66.684 147.813 65.477 145.478 64.85 144.163C64.1963 142.879 63.725 141.51 63.45 140.095L63.418 139.932C63.306 139.356 63.268 139.174 63.184 138.859C59.9013 126.497 60.3302 113.442 64.4171 101.323C68.5041 89.2029 76.0682 78.5543 86.1665 70.7047C96.2647 62.855 108.45 58.1516 121.204 57.1809C133.957 56.2102 146.714 59.0152 157.884 65.246L158.132 65.401C166.001 70.8897 174.382 78.427 183.275 88.013ZM154.825 70.393C144.675 64.7745 133.099 62.2626 121.533 63.1695C109.968 64.0764 98.9238 68.3622 89.7741 75.4942C80.6244 82.6261 73.7724 92.2897 70.0697 103.284C66.3671 114.278 65.977 126.118 68.948 137.332C69.077 137.819 69.135 138.093 69.272 138.799L69.3 138.943C69.481 139.869 69.7967 140.763 70.237 141.597C70.809 142.797 71.958 145.019 73.323 147.469C75.382 151.164 77.644 154.874 80.041 158.381C86.487 167.81 92.88 174.25 98.395 176.103C105.75 178.574 133.441 149.262 177.201 90.274C170.423 82.9185 162.927 76.2585 154.825 70.393Z" fill="black"/>
<path d="M154.825 70.394C144.675 64.7756 133.099 62.2637 121.533 63.1707C109.968 64.0776 98.9243 68.3633 89.7747 75.4951C80.625 82.6269 73.773 92.2903 70.0702 103.284C66.3674 114.278 65.9772 126.118 68.9479 137.332C69.0769 137.819 69.1349 138.093 69.2719 138.799L69.2999 138.943C69.4809 139.869 69.7966 140.763 70.2369 141.597C70.8089 142.797 71.9579 145.019 73.3229 147.469C75.3819 151.164 77.6439 154.874 80.0409 158.381C86.4869 167.81 92.8799 174.25 98.3949 176.103C105.751 178.575 133.441 149.265 177.202 90.275C170.424 82.9195 162.927 76.2594 154.825 70.394Z" fill="#EC1C79"/>
<path d="M138.07 199.19C125.19 199.19 112.6 195.371 101.891 188.215C91.1816 181.06 82.8349 170.889 77.906 158.99C72.9772 147.09 71.6876 133.997 74.2003 121.365C76.713 108.732 82.9152 97.1288 92.0225 88.0215C101.13 78.9142 112.733 72.712 125.366 70.1993C137.998 67.6866 151.091 68.9762 162.991 73.905C174.89 78.8339 185.061 87.1806 192.216 97.8897C199.372 108.599 203.191 121.189 203.191 134.069C203.191 151.34 196.33 167.904 184.118 180.117C171.905 192.329 155.341 199.19 138.07 199.19ZM138.07 193.216C149.768 193.216 161.203 189.747 170.929 183.248C180.656 176.748 188.237 167.511 192.713 156.703C197.19 145.896 198.361 134.004 196.078 122.531C193.796 111.057 188.163 100.519 179.891 92.2471C171.619 83.9755 161.081 78.3425 149.607 76.0604C138.134 73.7783 126.242 74.9497 115.435 79.4263C104.627 83.903 95.3898 91.4839 88.8908 101.21C82.3918 110.937 78.923 122.372 78.923 134.07C78.923 141.837 80.4529 149.528 83.4253 156.704C86.3977 163.88 90.7545 170.401 96.2468 175.893C101.739 181.385 108.259 185.742 115.436 188.714C122.612 191.686 130.303 193.216 138.07 193.216Z" fill="black"/>
<path d="M138.067 193.216C149.765 193.216 161.2 189.748 170.927 183.249C180.654 176.751 188.235 167.514 192.712 156.706C197.189 145.899 198.361 134.007 196.079 122.534C193.797 111.06 188.165 100.521 179.893 92.2492C171.622 83.9772 161.083 78.3437 149.61 76.061C138.137 73.7783 126.245 74.9491 115.437 79.4252C104.63 83.9013 95.392 91.4817 88.8925 101.208C82.393 110.934 78.9236 122.369 78.923 134.067C78.9226 141.834 80.4521 149.526 83.4241 156.702C86.3962 163.878 90.7526 170.398 96.2447 175.891C101.737 181.383 108.257 185.74 115.433 188.713C122.609 191.686 130.3 193.216 138.067 193.216Z" fill="white"/>
<path d="M64.8809 115.554C64.1013 115.149 63.5121 114.454 63.2406 113.618C62.9692 112.783 63.0372 111.874 63.4301 111.088C63.8229 110.303 64.509 109.703 65.3402 109.418C66.1715 109.134 67.0812 109.188 67.8729 109.569L77.4319 114.349C77.8318 114.541 78.1895 114.811 78.4841 115.143C78.7787 115.475 79.0043 115.862 79.1479 116.282C79.2915 116.702 79.3501 117.146 79.3204 117.589C79.2907 118.031 79.1732 118.464 78.9748 118.861C78.7763 119.258 78.501 119.611 78.1647 119.9C77.8283 120.19 77.4378 120.41 77.0158 120.547C76.5938 120.684 76.1487 120.736 75.7065 120.699C75.2643 120.663 74.8337 120.538 74.4399 120.334L64.8809 115.554Z" fill="black"/>
<path d="M63.782 131.404C63.3725 131.227 63.0026 130.97 62.694 130.648C62.3854 130.326 62.1443 129.945 61.985 129.528C61.8256 129.112 61.7511 128.668 61.7659 128.222C61.7807 127.776 61.8845 127.338 62.0712 126.932C62.2579 126.527 62.5237 126.164 62.853 125.863C63.1823 125.562 63.5684 125.33 63.9887 125.18C64.409 125.031 64.8549 124.967 65.3002 124.992C65.7456 125.018 66.1814 125.132 66.582 125.328L76.141 129.74C76.5504 129.917 76.9203 130.174 77.2289 130.496C77.5375 130.818 77.7786 131.199 77.938 131.616C78.0974 132.032 78.1719 132.476 78.157 132.922C78.1422 133.368 78.0384 133.806 77.8517 134.212C77.6651 134.617 77.3992 134.98 77.0699 135.281C76.7406 135.582 76.3545 135.814 75.9342 135.964C75.5139 136.113 75.068 136.177 74.6227 136.152C74.1773 136.126 73.7416 136.012 73.341 135.816L63.782 131.404Z" fill="black"/>
<path fill-rule="evenodd" clip-rule="evenodd" d="M130.234 128.733L138.665 147.433L151.213 140.2H151.223V125.715L130.234 128.733Z" fill="#2BBDF7"/>
<path fill-rule="evenodd" clip-rule="evenodd" d="M167.456 114.86L159.624 111.91L151.254 111.234V156.225L163.811 163.462L173.722 143.178L167.471 123.565L167.456 114.86Z" fill="#2891F9"/>
<path fill-rule="evenodd" clip-rule="evenodd" d="M166.669 111.249L163.761 118.484V163.47L176.32 156.235V111.249H166.669Z" fill="#2BBDF7"/>
<path fill-rule="evenodd" clip-rule="evenodd" d="M163.813 104.001L151.254 111.242L163.813 118.481L176.372 111.242L163.813 104.001Z" fill="#2B6DEF"/>
<path fill-rule="evenodd" clip-rule="evenodd" d="M138.673 132.949L126.116 118.894L101 111.234V156.22L113.555 163.459L117.143 138.559L126.116 140.189V140.181L138.675 147.418V132.949H138.673Z" fill="#2891F9"/>
<path fill-rule="evenodd" clip-rule="evenodd" d="M113.563 104.001L101 111.24L138.669 132.962L144.361 129.682L151.226 125.722L113.563 104.001Z" fill="#2B6DEF"/>
<path fill-rule="evenodd" clip-rule="evenodd" d="M113.565 132.948V163.456L126.124 156.219V140.187L113.565 132.948Z" fill="#2BBDF7"/>
</g>
<defs>
<linearGradient id="paint0_linear_2_3573" x1="215.808" y1="34.5595" x2="52.7359" y2="226.816" gradientUnits="userSpaceOnUse">
<stop stop-color="#B6509E"/>
<stop offset="1" stop-color="#2EBAC6"/>
</linearGradient>
<clipPath id="clip0_2_3573">
<rect width="256" height="256" fill="white"/>
</clipPath>
</defs>
</svg>
