<svg xmlns="http://www.w3.org/2000/svg" xmlns:xlink="http://www.w3.org/1999/xlink" viewBox="0 0 314.06 314.06">
    <defs>
        <style>.cls-1{fill:#fff;}.cls-2{fill:#ffb0a6;}.cls-3{fill:#ffd0a8;}.cls-4{fill:#ffe8d7;}.cls-5{fill:url(#linear-gradient);}.cls-6{fill:url(#radial-gradient);}.cls-7{fill:none;}</style>
        <linearGradient id="linear-gradient" x1="52.54" y1="157.03" x2="261.52" y2="157.03" gradientUnits="userSpaceOnUse"><stop offset="0" stop-color="#2e3192"/><stop offset="1" stop-color="#ff7d8a"/></linearGradient>
        <radialGradient id="radial-gradient" cx="69.55" cy="162.82" r="137.88" gradientTransform="translate(133.65 8.92) rotate(47.27) scale(1 0.93)" gradientUnits="userSpaceOnUse"><stop offset="0" stop-color="#ff9a8a"/><stop offset="1" stop-color="#ff007a"/></radialGradient>
    </defs>
    <title>G-UNI Logo</title>
    <g id="Layer_2" data-name="Layer 2">
        <g id="Layer_1-2" data-name="Layer 1">
            <circle class="cls-1" cx="157.03" cy="157.03" r="132.07"/>
            <rect class="cls-2" x="83.15" y="181.66" width="147.77" height="49.26"/>
            <rect class="cls-3" x="83.15" y="132.4" width="147.77" height="49.26"/>
            <rect class="cls-4" x="83.15" y="83.15" width="147.77" height="49.26"/>
            <path class="cls-4" d="M204.68,83.15h26.24V56.91A30.93,30.93,0,0,1,204.68,83.15Z"/>
            <path class="cls-5" d="M157,83.15l56.33,26.06L194,120.09Zm73.89,0v0h0v26.06H213.33v0L157,165.54v10.9l13.23,13.23,14.93-10,26.17-9.36H229.7A73.88,73.88,0,1,1,157,83.15V52.54a104.5,104.5,0,1,0,73.89,30.61Zm-52.13-9.84a4.74,4.74,0,0,1-.7,2.57,4.86,4.86,0,0,1-2,1.76,7.21,7.21,0,0,1-5.94,0,4.83,4.83,0,0,1-2-1.76,4.74,4.74,0,0,1-.7-2.57V57.39h-5.87V73.77a8.25,8.25,0,0,0,1.44,4.83,9.47,9.47,0,0,0,4,3.22,16.41,16.41,0,0,0,12.07,0,9.53,9.53,0,0,0,4-3.22,8.25,8.25,0,0,0,1.44-4.83V57.39h-5.87Zm28.44-15.92V73.25H207L195,57.39h-5.15V82.61h5.87V66.74h.2L208,82.61h5.06V57.39Zm11.06,0V82.61h5.87V57.39Z"/>
            <path class="cls-6" d="M241.25,95.16A89.29,89.29,0,0,1,107.54,211.9c-.47-.43-.92-.88-1.39-1.32s-.92-.86-1.36-1.3h0l-.33-.34A89.28,89.28,0,0,1,157,57.51v-5a104.49,104.49,0,1,0,84.22,42.62Z"/>
            <rect class="cls-7" width="314.06" height="314.06"/>
        </g>
    </g>
</svg>