<svg xmlns="http://www.w3.org/2000/svg" width="18" height="18" viewBox="0 0 18 18">
    <defs>
        <style>
            .cls-3{fill:#fff}
        </style>
    </defs>
    <g id="Group_43269" transform="translate(21258 4106)">
        <rect id="Rectangle_10609" width="18" height="18" fill="#383d51" rx="9" transform="translate(-21258 -4106)"/>
        <path id="Path_12840" fill="#fcd57e" d="M102.323 99.967a3.87 3.87 0 1 1-4.423-6.221 5.037 5.037 0 1 0 5.17 5.17 3.862 3.862 0 0 1-.747 1.051z" transform="translate(-21347.092 -4195.816)"/>
        <g id="Group_43261" transform="translate(-21254.689 -4102.172)">
            <path id="Path_12841" d="M305.768 92.47l.178 1.614.178-1.614 1.614-.178-1.614-.178-.178-1.614-.178 1.614-1.614.178z" class="cls-3" transform="translate(-296.959 -90.499)"/>
            <path id="Path_12842" d="M76.524 366.861l.128 1.156.128-1.156 1.156-.128-1.156-.128-.128-1.156-.128 1.156-1.156.128z" class="cls-3" transform="translate(-75.323 -356.857)"/>
            <path id="Rectangle_10613" d="M0 0H0.324V0.324H0z" class="cls-3" transform="rotate(-45 8.756 -3.76)"/>
            <path id="Rectangle_10614" d="M0 0H0.324V0.324H0z" class="cls-3" transform="rotate(-45 9.434 -11.246)"/>
            <path id="Rectangle_10615" d="M0 0H0.324V0.324H0z" class="cls-3" transform="rotate(-45 13.354 -10.995)"/>
            <path id="Rectangle_10616" d="M0 0H0.324V0.324H0z" class="cls-3" transform="rotate(-45 1.48 .613)"/>
            <path id="Rectangle_10617" d="M0 0H0.324V0.324H0z" class="cls-3" transform="rotate(-45 16.902 -4.943)"/>
            <path id="Rectangle_10618" d="M0 0H0.324V0.324H0z" class="cls-3" transform="rotate(-45 1.123 -1.37)"/>
        </g>
    </g>
</svg>
