<svg xmlns="http://www.w3.org/2000/svg" width="50" height="50" viewBox="0 0 50 50"><defs><linearGradient id="linear-gradient" x1=".843" x2="0" y2="1" gradientUnits="objectBoundingBox"><stop offset="0" stop-color="#fd5"/><stop offset=".5" stop-color="#ff543e"/><stop offset="1" stop-color="#c837ab"/></linearGradient><style>.cls-1{fill:url(#linear-gradient)}</style></defs><g id="Group_19950" data-name="Group 19950" transform="translate(-7387.859 14379)"><g id="instagram" transform="translate(7387.859 -14379)"><path id="Path_8939" data-name="Path 8939" class="cls-1" d="M216.57 211.785a4.785 4.785 0 11-4.785-4.785 4.785 4.785 0 014.785 4.785zm0 0" transform="translate(-186.785 -186.785)"/><path id="Path_8940" data-name="Path 8940" class="cls-1" d="M158.444 138.791a4.754 4.754 0 00-2.724-2.724 7.943 7.943 0 00-2.665-.494c-1.514-.069-1.968-.084-5.8-.084s-4.287.014-5.8.084a7.948 7.948 0 00-2.665.494 4.756 4.756 0 00-2.725 2.724 7.946 7.946 0 00-.494 2.666c-.069 1.514-.084 1.968-.084 5.8s.015 4.287.084 5.8a7.943 7.943 0 00.494 2.665 4.754 4.754 0 002.724 2.724 7.933 7.933 0 002.666.494c1.514.069 1.967.084 5.8.084s4.288-.014 5.8-.084a7.933 7.933 0 002.666-.494 4.754 4.754 0 002.724-2.724 7.95 7.95 0 00.494-2.665c.069-1.514.084-1.968.084-5.8s-.014-4.287-.084-5.8a7.933 7.933 0 00-.495-2.666zm-11.191 15.838a7.372 7.372 0 117.372-7.372 7.372 7.372 0 01-7.372 7.372zm7.663-13.312a1.723 1.723 0 111.723-1.723 1.723 1.723 0 01-1.723 1.723zm0 0" transform="translate(-122.253 -122.257)"/><path id="Path_8941" data-name="Path 8941" class="cls-1" d="M25 0a25 25 0 1025 25A25 25 0 0025 0zm14.269 30.919A10.532 10.532 0 0138.6 34.4a7.34 7.34 0 01-4.2 4.2 10.539 10.539 0 01-3.484.667c-1.531.07-2.02.087-5.919.087s-4.388-.017-5.919-.087A10.539 10.539 0 0115.6 38.6a7.34 7.34 0 01-4.2-4.2 10.53 10.53 0 01-.667-3.484c-.071-1.531-.087-2.02-.087-5.919s.016-4.388.087-5.919A10.533 10.533 0 0111.4 15.6a7.345 7.345 0 014.2-4.2 10.542 10.542 0 013.485-.667c1.531-.07 2.02-.087 5.919-.087s4.388.017 5.919.087a10.544 10.544 0 013.477.667 7.342 7.342 0 014.2 4.2 10.531 10.531 0 01.668 3.485c.07 1.531.086 2.02.086 5.919s-.015 4.384-.085 5.915zm0 0"/></g></g></svg>