<svg xmlns="http://www.w3.org/2000/svg" viewBox="0 0 50 50"><path fill="#383838" d="M46.646 12.763a25.212 25.212 0 00-9.1-9.326A24 24 0 0025 0a24 24 0 00-12.549 3.435 25.209 25.209 0 00-9.1 9.326A25.552 25.552 0 000 25.626a25.327 25.327 0 004.769 15.065A24.532 24.532 0 0017.09 49.95a1.429 1.429 0 001.3-.233 1.32 1.32 0 00.423-1l-.016-1.8q-.016-1.7-.016-2.969l-.749.133a9.321 9.321 0 01-1.807.117 13.439 13.439 0 01-2.262-.234 5 5 0 01-2.181-1 4.232 4.232 0 01-1.432-2.052l-.326-.768A8.378 8.378 0 009 38.44a3.957 3.957 0 00-1.416-1.268l-.228-.167a2.414 2.414 0 01-.423-.4 1.837 1.837 0 01-.293-.47q-.1-.234.163-.384a2.065 2.065 0 01.944-.149l.651.1a4.7 4.7 0 011.611.8 5.335 5.335 0 011.579 1.733 5.836 5.836 0 001.807 2.086 3.769 3.769 0 002.132.717 9.037 9.037 0 001.855-.166 6.365 6.365 0 001.465-.5 5.46 5.46 0 011.595-3.437 21.8 21.8 0 01-3.336-.6 13.106 13.106 0 01-3.06-1.3 8.818 8.818 0 01-2.621-2.235 10.848 10.848 0 01-1.709-3.5 17.051 17.051 0 01-.667-5.005 9.87 9.87 0 012.572-6.874 9.178 9.178 0 01.228-6.807 4.461 4.461 0 012.8.45 19.355 19.355 0 012.718 1.285q.863.533 1.384.9a22.955 22.955 0 0112.5 0l1.237-.8a17.336 17.336 0 012.994-1.468 4.171 4.171 0 012.638-.367 9.089 9.089 0 01.26 6.807 9.872 9.872 0 012.572 6.874 17.242 17.242 0 01-.667 5.022 10.424 10.424 0 01-1.724 3.5 9.153 9.153 0 01-2.639 2.218 13.131 13.131 0 01-3.06 1.3 21.773 21.773 0 01-3.336.6 6.026 6.026 0 011.692 4.738v7.04a1.346 1.346 0 00.407 1 1.387 1.387 0 001.286.233 24.529 24.529 0 0012.321-9.259A25.332 25.332 0 0050 25.625a25.573 25.573 0 00-3.354-12.862z" data-name="Path 7370"/></svg>