<svg xmlns="http://www.w3.org/2000/svg" viewBox="0 0 50 50"><g data-name="Group 11109" transform="translate(-.001)"><circle cx="25" cy="25" r="25" fill="#55acee" data-name="Ellipse 775" transform="translate(.001)"/><g data-name="Group 11108"><path fill="#fff" d="M40.315 17.967a11.922 11.922 0 01-3.432.94 5.992 5.992 0 002.628-3.305 11.963 11.963 0 01-3.795 1.45 5.981 5.981 0 00-10.183 5.451 16.963 16.963 0 01-12.318-6.245 5.982 5.982 0 001.849 7.979 5.934 5.934 0 01-2.706-.748v.076a5.979 5.979 0 004.794 5.859 6 6 0 01-2.7.1 5.982 5.982 0 005.582 4.15 12.063 12.063 0 01-8.849 2.477 16.9 16.9 0 009.162 2.686c10.991 0 17-9.105 17-17 0-.259-.006-.517-.017-.773a12.118 12.118 0 002.985-3.097z" data-name="Path 5884"/></g></g></svg>