<svg xmlns="http://www.w3.org/2000/svg" data-name="discord (1)" viewBox="0 0 50 50"><circle cx="25" cy="25" r="25" fill="#a8adf0" data-name="Ellipse 913"/><path fill="#fff" d="M40.803 11.149l-.123-.313a.038.038 0 00-.019-.02l-.306-.139c-2.523-1.146-6.081-1.429-9.229-1.554h-3.547a.038.038 0 00-.016.071l7.284 3.492a.037.037 0 01-.026.069 38.311 38.311 0 00-19.674-.008.037.037 0 01-.025-.07l7.539-3.483a.038.038 0 00-.016-.072h-3.834c-3.148.125-6.707.408-9.229 1.554l-.306.139a.037.037 0 00-.019.02l-.123.313c-2.582 6.542-3.315 17.647-2.533 24.6l.041.365.29.225a28.309 28.309 0 0012.817 5.164l.439.055a.31.31 0 00.329-.2l2.208-5.9a.31.31 0 00-.242-.415l-.678-.106a16.511 16.511 0 01-8.539-3.921.074.074 0 01.074-.125c.23.085.483.184.744.286a15.967 15.967 0 001.733.611 39.6 39.6 0 009.15 1.087v-.054h.006v.054a39.581 39.581 0 009.143-1.087 15.966 15.966 0 001.733-.611c.261-.1.514-.2.744-.286a.074.074 0 01.074.125 16.514 16.514 0 01-8.539 3.906l-.677.106a.31.31 0 00-.243.415l2.208 5.914a.31.31 0 00.329.2l.439-.055a28.308 28.308 0 0012.818-5.162l.29-.225.041-.365c.785-6.952.052-18.058-2.53-24.6zM17.761 27.21a4.4 4.4 0 113.982-3.983 4.407 4.407 0 01-3.982 3.983zm15.217 0a4.4 4.4 0 113.982-3.983 4.407 4.407 0 01-3.981 3.983z" data-name="Path 6226"/></svg>