<svg xmlns="http://www.w3.org/2000/svg" viewBox="0 0 50 50"><defs><style>.cls-2{fill:#fff}.cls-4{fill:#dadde0}</style></defs><g id="telegram" transform="translate(0 .16)"><circle id="Ellipse_774" cx="25" cy="25" r="25" fill="#2ba7e2" data-name="Ellipse 774" transform="translate(0 -.16)"/><path id="Path_5863" d="M136.225 132.648a1.346 1.346 0 011.807 1.529l-4.466 21.347a1.406 1.406 0 01-2.209.846l-6.742-4.949-3.436 3.509a1.142 1.142 0 01-1.9-.456l-2.479-7.871-6.646-1.963a.954.954 0 01-.077-1.8zm-3.278 4.737a.317.317 0 00-.377-.506l-14.345 8.9a.652.652 0 00-.279.749l1.956 8.59a.125.125 0 00.244-.024l.437-6.547a.647.647 0 01.215-.417z" class="cls-2" data-name="Path 5863" transform="translate(-98.784 -119.738)"/><path id="Path_5864" fill="#9ec2e5" d="M210.729 176.4a.317.317 0 01.377.506l-12.148 10.742a.648.648 0 00-.215.417l-.437 6.547a.125.125 0 01-.244.024l-1.956-8.59a.652.652 0 01.279-.748z" data-name="Path 5864" transform="translate(-176.944 -159.257)"/><path id="Path_5865" d="M119.973 155.2a1.122 1.122 0 01-.7-.728L116.8 146.6l-6.646-1.963a.954.954 0 01-.077-1.8l26.153-10.19a1.341 1.341 0 011.625.532 1.406 1.406 0 00-.214-.254l-17.743 14.484v.634l-.1-.071.1 3.993v3.2a.631.631 0 00.079.03z" class="cls-2" data-name="Path 5865" transform="translate(-98.785 -119.739)"/><g id="Group_11104" data-name="Group 11104" transform="translate(21.465 35.275)"><path id="Path_5868" d="M227.745 362.73c-.03.025-.061.049-.092.071l.092-.071z" class="cls-4" data-name="Path 5868" transform="translate(-226.904 -362.73)"/><path id="Path_5870" d="M225.6 363.561a1.185 1.185 0 00.2-.106 1.273 1.273 0 01-.2.106z" class="cls-4" data-name="Path 5870" transform="translate(-225.053 -363.384)"/><path id="Path_5871" d="M219.981 364.942a1.139 1.139 0 00.444-.04 1.07 1.07 0 01-.325.049.94.94 0 01-.1-.005.041.041 0 01-.019-.004z" class="cls-4" data-name="Path 5871" transform="translate(-219.981 -364.69)"/></g><g id="Group_11105" data-name="Group 11105" transform="translate(21.384 35.517)"><path id="Path_5872" d="M220.287 365.355a.94.94 0 01-.1-.005.94.94 0 00.1.005z" class="cls-2" data-name="Path 5872" transform="translate(-220.087 -365.337)"/><path id="Path_5873" d="M219.235 365.222a.044.044 0 00.02 0 .658.658 0 01-.1-.013.632.632 0 00.08.013z" class="cls-2" data-name="Path 5873" transform="translate(-219.154 -365.212)"/></g><g id="Group_11106" data-name="Group 11106" transform="translate(21.224 35.475)"><path id="Path_5874" d="M218.923 365.161a.666.666 0 01-.081-.01.191.191 0 01-.034-.007c.038.007.077.013.115.017z" class="cls-4" data-name="Path 5874" transform="translate(-218.683 -365.109)"/><path id="Path_5875" d="M217.516 364.782c.037.012.074.022.111.032l-.045-.01a.058.058 0 01-.019-.007.257.257 0 01-.047-.015z" class="cls-4" data-name="Path 5875" transform="translate(-217.516 -364.782)"/></g><g id="Group_11107" data-name="Group 11107" transform="translate(21.195 35.467)"><path id="Path_5876" d="M218.188 365.006l.045.01a.218.218 0 01-.045-.01z" class="cls-2" data-name="Path 5876" transform="translate(-218.094 -364.976)"/><path id="Path_5877" d="M217.252 364.7a.251.251 0 00.047.015.439.439 0 01-.076-.024.181.181 0 00.029.009z" class="cls-2" data-name="Path 5877" transform="translate(-217.223 -364.696)"/></g><path id="Path_5878" d="M217.189 364.658a.184.184 0 01-.029-.008h-.007a.158.158 0 00.036.008z" class="cls-4" data-name="Path 5878" transform="translate(-195.965 -329.183)"/><path id="Path_5879" fill="#d1d1d1" d="M216.343 331.511l.079 3.233a.64.64 0 01-.079-.03z" data-name="Path 5879" transform="translate(-195.233 -299.282)"/><path id="Path_5880" d="M215.441 290.656v3.923l-.1-3.993z" class="cls-4" data-name="Path 5880" transform="translate(-194.331 -262.35)"/><path id="Path_5881" fill="#adbcc9" d="M211.105 176.9l-12.148 10.742a.648.648 0 00-.215.417l-.437 6.547a.126.126 0 01-.246.024l-1.955-8.591a.652.652 0 01.279-.749l14.345-8.9a.317.317 0 01.377.51z" data-name="Path 5881" transform="translate(-176.943 -159.258)"/></g></svg>