<svg xmlns="http://www.w3.org/2000/svg" width="20" height="20" viewBox="0 0 20 20"><path fill="#383d51" d="M10 20a10.074 10.074 0 01-2.015-.2 9.945 9.945 0 01-3.576-1.5 10.029 10.029 0 01-3.623-4.4A9.95 9.95 0 01.2 12.015a10.1 10.1 0 010-4.031 9.945 9.945 0 011.5-3.576A10.029 10.029 0 016.108.786 9.95 9.95 0 017.985.2a10.1 10.1 0 014.031 0 9.945 9.945 0 013.576 1.5 10.029 10.029 0 013.623 4.4 9.949 9.949 0 01.585 1.885 10.1 10.1 0 010 4.031 9.945 9.945 0 01-1.5 3.576 10.029 10.029 0 01-4.4 3.623 9.95 9.95 0 01-1.877.583A10.074 10.074 0 0110 20zM7.524 3.649a10.59 10.59 0 00-3.692.622l-.123.056a.015.015 0 00-.008.008l-.049.125A24.324 24.324 0 002.64 14.3l.016.146.116.09A11.323 11.323 0 007.9 16.6l.175.022h.016a.125.125 0 00.116-.081l.883-2.36a.124.124 0 00-.1-.166l-.271-.043a7.246 7.246 0 01-1.638-.455 6.092 6.092 0 01-1.778-1.113.03.03 0 01.019-.052h.011c.094.035.2.075.3.115a6.368 6.368 0 00.693.244 15.847 15.847 0 003.66.435v-.016.022a15.83 15.83 0 003.657-.435 6.364 6.364 0 00.693-.244c.1-.039.2-.08.3-.115h.011a.03.03 0 01.019.052 6.065 6.065 0 01-1.775 1.109 7.281 7.281 0 01-1.64.454l-.271.042a.124.124 0 00-.1.166l.883 2.365a.125.125 0 00.116.081h.021l.176-.022a11.323 11.323 0 005.124-2.068l.116-.09.016-.146a24.324 24.324 0 00-1.011-9.841l-.049-.125a.015.015 0 00-.008-.008l-.123-.056a10.59 10.59 0 00-3.692-.622h-1.418a.015.015 0 00-.006.029l2.913 1.4a.014.014 0 01.008.017.015.015 0 01-.014.012 15.324 15.324 0 00-7.87 0 .015.015 0 01-.014-.012.014.014 0 01.008-.016l3.008-1.401a.015.015 0 00.008-.017.015.015 0 00-.015-.012zm5.506 7.242a1.744 1.744 0 01-.721-.155 1.761 1.761 0 01-1.032-1.766 1.732 1.732 0 01.162-.593 1.778 1.778 0 01.838-.838 1.732 1.732 0 01.593-.162c.053 0 .107-.007.161-.007a1.743 1.743 0 01.721.155 1.761 1.761 0 011.032 1.767 1.732 1.732 0 01-.162.593 1.778 1.778 0 01-.838.838 1.732 1.732 0 01-.593.162 2.139 2.139 0 01-.16.006zm-6.087 0a1.744 1.744 0 01-.721-.155A1.761 1.761 0 015.19 8.97a1.732 1.732 0 01.162-.593 1.778 1.778 0 01.838-.838 1.732 1.732 0 01.593-.162c.053 0 .107-.007.161-.007a1.743 1.743 0 01.721.155A1.761 1.761 0 018.7 9.291a1.732 1.732 0 01-.162.593 1.778 1.778 0 01-.838.838 1.732 1.732 0 01-.593.162 1.777 1.777 0 01-.163.007z" data-name="Subtraction 83"/></svg>