<svg xmlns="http://www.w3.org/2000/svg" width="20.501" height="20" viewBox="0 0 20.501 20"><path fill="#383d51" d="M19.126 5.105a10.206 10.206 0 00-3.726-3.73A10.026 10.026 0 0010.255 0a10.027 10.027 0 00-5.15 1.375 10.2 10.2 0 00-3.73 3.73A10.027 10.027 0 000 10.25a9.962 9.962 0 001.955 6.026 10.039 10.039 0 005.052 3.7.6.6 0 00.534-.093.522.522 0 00.173-.4l-.007-.721q-.007-.681-.007-1.184l-.306.057a3.916 3.916 0 01-.741.047 5.644 5.644 0 01-.928-.093 2.073 2.073 0 01-.894-.4 1.693 1.693 0 01-.587-.821l-.133-.307a3.335 3.335 0 00-.42-.681 1.611 1.611 0 00-.581-.507l-.093-.067a.98.98 0 01-.173-.16.732.732 0 01-.12-.187q-.04-.094.067-.154a.866.866 0 01.387-.06l.267.04a1.948 1.948 0 01.661.32 2.154 2.154 0 01.647.694 2.353 2.353 0 00.741.834 1.571 1.571 0 00.874.287 3.8 3.8 0 00.761-.067 2.655 2.655 0 00.6-.2 2.163 2.163 0 01.654-1.375 9.139 9.139 0 01-1.368-.24 5.447 5.447 0 01-1.255-.521 3.593 3.593 0 01-1.075-.894 4.3 4.3 0 01-.7-1.4 6.664 6.664 0 01-.274-2 3.893 3.893 0 011.055-2.75 3.588 3.588 0 01.093-2.723 1.87 1.87 0 011.148.18 8.025 8.025 0 011.114.514q.354.213.567.36a9.639 9.639 0 015.126 0l.507-.32a7.183 7.183 0 011.228-.587 1.749 1.749 0 011.081-.147 3.553 3.553 0 01.107 2.723 3.894 3.894 0 011.055 2.75 6.739 6.739 0 01-.274 2.009 4.131 4.131 0 01-.707 1.4 3.731 3.731 0 01-1.081.888 5.458 5.458 0 01-1.255.521 9.13 9.13 0 01-1.368.241 2.377 2.377 0 01.694 1.9v2.816a.532.532 0 00.167.4.58.58 0 00.527.093 10.038 10.038 0 005.052-3.7A9.964 9.964 0 0020.5 10.25a10.035 10.035 0 00-1.374-5.145z" data-name="Path 7370"/></svg>