<svg xmlns="http://www.w3.org/2000/svg" viewBox="0 0 20 20"><path fill="#383d51" d="M10 20A10 10 0 016.108.786a10 10 0 017.785 18.428A9.937 9.937 0 0110 20zm-.468-6.863l2.7 1.979a.554.554 0 00.331.11.566.566 0 00.553-.448L14.9 6.239a.536.536 0 00-.374-.626H14.5a.527.527 0 00-.132-.017.539.539 0 00-.2.037L3.715 9.7a.381.381 0 00.031.721l2.654.789 1 3.148a.452.452 0 00.281.292l.033.01h.12a.428.428 0 00.122-.017.453.453 0 00.065-.024.438.438 0 00.064-.035.378.378 0 00.032-.024.506.506 0 00.041-.037l1.374-1.4z" data-name="Subtraction 69"/></svg>