<svg xmlns="http://www.w3.org/2000/svg" width="20" height="20" viewBox="0 0 20 20"><path fill="#fff" d="M10 20a10 10 0 1110-10 10.011 10.011 0 01-10 10zm-5.524-5.54a6.773 6.773 0 003.664 1.073 6.515 6.515 0 005.049-2.216 7.036 7.036 0 001.752-4.585c0-.116 0-.217-.007-.309a4.822 4.822 0 001.193-1.238 4.78 4.78 0 01-1.373.376 2.39 2.39 0 001.046-1.32 4.779 4.779 0 01-1.517.58 2.392 2.392 0 00-4.133 1.635 2.378 2.378 0 00.062.544 6.807 6.807 0 01-4.926-2.5 2.392 2.392 0 00.74 3.191 2.385 2.385 0 01-1.083-.3v.03a2.4 2.4 0 001.917 2.348 2.375 2.375 0 01-1.079.041 2.391 2.391 0 002.233 1.66 4.811 4.811 0 01-3.538.989z" data-name="Subtraction 68"/></svg>