<svg xmlns="http://www.w3.org/2000/svg" viewBox="0 0 24 24"><defs><linearGradient id="linear-gradient" x2="1" y1=".5" y2=".5" gradientUnits="objectBoundingBox"><stop offset="0" stop-color="#01aec9"/><stop offset="1" stop-color="#1e8fca"/></linearGradient><linearGradient id="linear-gradient-2" x1=".843" x2=".206" y1=".135" y2=".886" gradientUnits="objectBoundingBox"><stop offset="0" stop-color="#b6509e"/><stop offset="1" stop-color="#2ebac6"/></linearGradient><style>.cls-2{fill:#fff}</style></defs><g id="Group_29630" data-name="Group 29630" transform="translate(-20 -20)"><g id="Group_13200" data-name="Group 13200" transform="translate(22.786 22.786)"><g id="Group_3982" data-name="Group 3982"><g id="Group_1368" data-name="Group 1368"><circle id="XMLID_5_" cx="9.214" cy="9.214" r="9.214" fill="url(#linear-gradient)"/></g><g id="XMLID_2_" transform="translate(5.161 2.525)"><path id="XMLID_4_" d="M441.995 132.926l-1.128-1.126-3.766 3.766 3.766 3.768 1.128-1.128-2.64-2.64z" class="cls-2" transform="translate(-433.888 -131.8)"/><path id="XMLID_3_" d="M274.294 440.668l-3.766-3.768-1.128 1.128 2.64 2.64-2.64 2.64 1.128 1.126z" class="cls-2" transform="translate(-269.4 -431.056)"/></g><path id="XMLID_1_" d="M0 0h5.327v1.588H0z" class="cls-2" transform="rotate(45 -4.224 12.91)"/></g></g><path id="Subtraction_108" fill="url(#linear-gradient-2)" d="M12 24a12.091 12.091 0 01-2.418-.244 11.935 11.935 0 01-4.291-1.806 12.034 12.034 0 01-4.348-5.28 11.94 11.94 0 01-.7-2.253 12.117 12.117 0 010-4.837 11.935 11.935 0 011.806-4.289A12.035 12.035 0 017.329.943a11.937 11.937 0 012.253-.7 12.117 12.117 0 014.837 0 11.935 11.935 0 014.291 1.806 12.034 12.034 0 014.348 5.28 11.938 11.938 0 01.7 2.253 12.117 12.117 0 010 4.837 11.934 11.934 0 01-1.806 4.291 12.036 12.036 0 01-5.28 4.348 11.944 11.944 0 01-2.253.7A12.092 12.092 0 0112 24zm0-22.714a10.8 10.8 0 00-2.159.214A10.655 10.655 0 006.01 3.116 10.746 10.746 0 002.128 7.83 10.659 10.659 0 001.5 9.841a10.819 10.819 0 000 4.319 10.656 10.656 0 001.616 3.83 10.746 10.746 0 004.714 3.882 10.664 10.664 0 002.011.624 10.817 10.817 0 004.319 0 10.651 10.651 0 003.831-1.612 10.746 10.746 0 003.882-4.714 10.663 10.663 0 00.624-2.011 10.819 10.819 0 000-4.319 10.656 10.656 0 00-1.613-3.83 10.746 10.746 0 00-4.714-3.882 10.663 10.663 0 00-2.011-.628A10.8 10.8 0 0012 1.286z" data-name="Subtraction 108" transform="translate(20 20)"/></g></svg>