<svg width="256" height="256" viewBox="0 0 256 256" fill="none" xmlns="http://www.w3.org/2000/svg">
<path d="M128 256C198.692 256 256 198.692 256 128C256 57.3075 198.692 0 128 0C57.3075 0 0 57.3075 0 128C0 198.692 57.3075 256 128 256Z" fill="url(#paint0_linear_1809_1927)"/>
<g clip-path="url(#clip0_1809_1927)">
<path d="M75.2852 112.731C76.8611 116.111 80.7615 122.792 80.7615 122.792L125.853 48L81.8449 78.8338C79.2227 80.5891 77.0713 82.9649 75.5807 85.7517C73.5764 89.9559 72.5114 94.5486 72.4604 99.2087C72.4094 103.869 73.3734 108.484 75.2852 112.731Z" fill="white"/>
<path d="M57.4182 137.359C57.9151 144.513 59.9296 151.478 63.327 157.788C66.7243 164.098 71.426 169.606 77.1172 173.945L125.793 208C125.793 208 95.3388 163.963 69.6513 120.143C67.0507 115.514 65.3024 110.452 64.4902 105.201C64.1306 102.823 64.1306 100.404 64.4902 98.026C63.8204 99.2712 62.5203 101.821 62.5203 101.821C59.9156 107.151 58.1418 112.85 57.2606 118.72C56.7534 124.925 56.8062 131.163 57.4182 137.359Z" fill="white"/>
<path d="M181.601 143.269C180.025 139.889 176.125 133.208 176.125 133.208L131.033 208L175.041 177.186C177.663 175.431 179.814 173.055 181.305 170.268C183.313 166.061 184.379 161.465 184.43 156.801C184.481 152.138 183.515 147.519 181.601 143.269Z" fill="white"/>
<path d="M199.468 118.641C198.971 111.487 196.956 104.522 193.559 98.2122C190.162 91.9026 185.46 86.3941 179.769 82.0556L131.093 48C131.093 48 161.528 92.0371 187.234 135.857C189.829 140.487 191.57 145.549 192.376 150.799C192.736 153.177 192.736 155.596 192.376 157.974C193.046 156.729 194.346 154.179 194.346 154.179C196.95 148.849 198.725 143.15 199.606 137.28C200.12 131.075 200.073 124.837 199.468 118.641Z" fill="white"/>
<path d="M75.5808 85.7517C77.0714 82.9649 79.2228 80.5891 81.845 78.8338L125.853 48L80.7616 122.811C80.7616 122.811 76.8217 116.131 75.2852 112.751C73.3705 108.501 72.4048 103.882 72.4558 99.2186C72.5069 94.5548 73.5735 89.9585 75.5808 85.7517ZM57.4182 137.359C57.9151 144.513 59.9296 151.478 63.327 157.788C66.7243 164.098 71.426 169.606 77.1172 173.945L125.793 208C125.793 208 95.3388 163.963 69.6513 120.143C67.0507 115.514 65.3024 110.452 64.4902 105.201C64.1306 102.823 64.1306 100.404 64.4902 98.026C63.8204 99.2712 62.5203 101.821 62.5203 101.821C59.9156 107.151 58.1418 112.85 57.2606 118.72C56.7534 124.925 56.8062 131.163 57.4182 137.359ZM181.522 143.289C179.946 139.909 176.046 133.228 176.046 133.228L131.033 208L175.041 177.186C177.663 175.431 179.814 173.055 181.305 170.268C183.313 166.061 184.379 161.465 184.43 156.801C184.481 152.138 183.515 147.519 181.601 143.269L181.522 143.289ZM199.389 118.661C198.892 111.507 196.877 104.542 193.48 98.232C190.083 91.9223 185.381 86.4139 179.69 82.0754L131.093 48C131.093 48 161.528 92.0371 187.234 135.857C189.829 140.487 191.57 145.549 192.376 150.799C192.736 153.177 192.736 155.596 192.376 157.974C193.046 156.729 194.346 154.179 194.346 154.179C196.95 148.849 198.725 143.15 199.606 137.28C200.119 131.075 200.073 124.837 199.468 118.641L199.389 118.661Z" fill="white"/>
</g>
<defs>
<linearGradient id="paint0_linear_1809_1927" x1="256" y1="256" x2="0" y2="0" gradientUnits="userSpaceOnUse">
<stop stop-color="#44BCF0"/>
<stop offset="0.512677" stop-color="#7298F8"/>
<stop offset="0.982624" stop-color="#A099FF"/>
</linearGradient>
<clipPath id="clip0_1809_1927">
<rect width="142.857" height="160" fill="white" transform="translate(57 48)"/>
</clipPath>
</defs>
</svg>
