<svg xmlns="http://www.w3.org/2000/svg" width="53.37" height="53.594" viewBox="0 0 53.37 53.594">
  <g>
    <path d="M15.643 61.8c13.753 0 13.753-.2 16.085-.9 3.047-.9-8.6-8.97-16.085-8.97S2.1 54.143 2.1 56.868 8.163 61.8 15.643 61.8z" transform="translate(-.977 -8.207)"/>
    <path d="M46.681 12.429l.633.682-.553.748c-17.936 24.25-28.269 35.23-32.652 33.758-2.67-.9-5.348-3.595-8.026-7.512-.941-1.377-1.825-2.827-2.629-4.27C2.918 34.874 2.465 34 2.23 33.5a5.81 5.81 0 0 1-.53-1.522l-.012-.061c-.042-.216-.056-.285-.088-.4A24.452 24.452 0 0 1 37.146 3.884l.093.058a60.192 60.192 0 0 1 9.442 8.487zM36 5.814A22.215 22.215 0 0 0 3.77 30.939c.048.183.07.286.122.551l.011.054a3.624 3.624 0 0 0 .352 1c.215.45.646 1.284 1.158 2.2.773 1.387 1.622 2.78 2.521 4.1 2.419 3.539 4.819 5.956 6.889 6.652 2.761.927 13.154-10.075 29.579-32.215A56.378 56.378 0 0 0 36 5.814z" transform="translate(-.787 -.787)"/>
    <path fill="#ec1c79" d="M36.383 6.194A22.215 22.215 0 0 0 4.151 31.319c.048.183.07.286.122.551l.011.054a3.624 3.624 0 0 0 .352 1c.215.45.646 1.284 1.158 2.2.773 1.387 1.622 2.78 2.521 4.1 2.419 3.539 4.819 5.956 6.889 6.652 2.76.924 13.153-10.076 29.578-32.22a56.378 56.378 0 0 0-8.399-7.462z" transform="translate(-1.167 -1.167)"/>
    <path d="M30.475 54.917a24.442 24.442 0 1 1 24.442-24.442 24.442 24.442 0 0 1-24.442 24.442zm0-2.242a22.2 22.2 0 1 0-22.2-22.2 22.2 22.2 0 0 0 22.2 22.2z" transform="translate(-1.548 -1.548)"/>
    <path fill="#fff" d="M30.856 53.056a22.2 22.2 0 1 0-22.2-22.2 22.2 22.2 0 0 0 22.2 22.2z" transform="translate(-1.928 -1.928)"/>
    <path fill-rule="evenodd" d="M14.7 38.436l-2.938-8.853h2.574l1.532 5.086 1.7-5.111h2.1l1.7 5.111 1.532-5.086h2.524l-2.938 8.853h-2.135l-1.771-5.061-1.758 5.061zm11.678-.063v-8.79h7.07v2.072h-4.659v1.331h4.219v1.921h-4.219V36.3h4.722v2.072zm10.523 0v-6.656h-2.637v-2.134h7.71v2.135h-2.636v6.655zm6.141 0v-8.79h2.436v3.29h3.127v-3.29h2.436v8.79h-2.436v-3.34h-3.127v3.34z" transform="translate(-2.379 -4.961)"/>
    <path d="M2.373 26.09A1.256 1.256 0 0 1 3.5 23.844l3.588 1.794a1.256 1.256 0 1 1-1.123 2.246z" transform="translate(-.916 -4.113)"/>
    <path d="M1.884 33.046a1.256 1.256 0 1 1 1.052-2.28l3.588 1.656A1.256 1.256 0 1 1 5.471 34.7z" transform="translate(-.84 -5.119)"/>
  </g>
</svg>
