<svg xmlns="http://www.w3.org/2000/svg" id="instagram" width="20" height="20" viewBox="0 0 20 20"><defs><style>.cls-1{fill:#383d51}</style></defs><path id="Path_8939" d="M210.828 208.914a1.914 1.914 0 11-1.914-1.914 1.914 1.914 0 011.914 1.914zm0 0" class="cls-1" data-name="Path 8939" transform="translate(-198.914 -198.914)"/><path id="Path_8940" d="M144.668 136.809a1.9 1.9 0 00-1.09-1.09 3.177 3.177 0 00-1.066-.2c-.606-.028-.787-.034-2.32-.034s-1.715.006-2.32.033a3.179 3.179 0 00-1.066.2 1.9 1.9 0 00-1.09 1.09 3.178 3.178 0 00-.2 1.066c-.028.605-.034.787-.034 2.32s.006 1.715.034 2.32a3.177 3.177 0 00.2 1.066 1.9 1.9 0 001.09 1.09 3.173 3.173 0 001.066.2c.605.028.787.033 2.32.033s1.715-.006 2.32-.033a3.173 3.173 0 001.066-.2 1.9 1.9 0 001.09-1.09 3.18 3.18 0 00.2-1.066c.028-.606.033-.787.033-2.32s-.006-1.715-.033-2.32a3.173 3.173 0 00-.2-1.065zm-4.476 6.335a2.949 2.949 0 112.949-2.949 2.949 2.949 0 01-2.949 2.949zm3.065-5.325a.689.689 0 11.689-.689.689.689 0 01-.689.69zm0 0" class="cls-1" data-name="Path 8940" transform="translate(-130.192 -130.196)"/><path id="Path_8941" d="M10 0a10 10 0 1010 10A10 10 0 0010 0zm5.708 12.367a4.213 4.213 0 01-.267 1.394 2.936 2.936 0 01-1.679 1.679 4.216 4.216 0 01-1.394.267c-.612.028-.808.035-2.367.035s-1.755-.007-2.368-.035a4.216 4.216 0 01-1.394-.267 2.936 2.936 0 01-1.679-1.679 4.212 4.212 0 01-.267-1.394c-.028-.612-.035-.808-.035-2.368s.007-1.755.035-2.367a4.213 4.213 0 01.267-1.394 2.938 2.938 0 011.68-1.679 4.217 4.217 0 011.394-.267c.612-.028.808-.035 2.367-.035s1.755.007 2.367.035a4.218 4.218 0 011.394.267 2.937 2.937 0 011.679 1.68 4.212 4.212 0 01.267 1.394c.028.612.034.808.034 2.367s-.006 1.755-.034 2.367zm0 0" class="cls-1" data-name="Path 8941"/></svg>