<svg width="20" height="20" viewBox="0 0 20 20" fill="none" xmlns="http://www.w3.org/2000/svg">
  <path d="M15.5447 5.10372C14.5249 4.63579 13.4313 4.29105 12.2879 4.0936C12.2671 4.08979 12.2463 4.09931 12.2356 4.11836C12.0949 4.3685 11.9392 4.69484 11.8301 4.95133C10.6003 4.76722 9.37679 4.76722 8.17221 4.95133C8.0631 4.68914 7.90166 4.3685 7.76038 4.11836C7.74966 4.09995 7.72886 4.09043 7.70803 4.0936C6.56527 4.29042 5.47171 4.63516 4.45129 5.10372C4.44246 5.10752 4.43488 5.11388 4.42986 5.12213C2.35559 8.22103 1.78737 11.2438 2.06612 14.229C2.06738 14.2436 2.07558 14.2576 2.08693 14.2665C3.45547 15.2715 4.78114 15.8817 6.08219 16.2861C6.10301 16.2924 6.12507 16.2848 6.13832 16.2677C6.44608 15.8474 6.72043 15.4042 6.95565 14.9382C6.96953 14.9109 6.95628 14.8785 6.92791 14.8677C6.49275 14.7027 6.0784 14.5014 5.67982 14.2728C5.64829 14.2544 5.64577 14.2093 5.67477 14.1877C5.75865 14.1249 5.84255 14.0595 5.92264 13.9935C5.93713 13.9814 5.95732 13.9789 5.97435 13.9865C8.59286 15.182 11.4277 15.182 14.0153 13.9865C14.0323 13.9782 14.0525 13.9808 14.0677 13.9928C14.1478 14.0589 14.2316 14.1249 14.3161 14.1877C14.3451 14.2093 14.3433 14.2544 14.3117 14.2728C13.9131 14.5058 13.4988 14.7027 13.063 14.8671C13.0346 14.8779 13.022 14.9109 13.0359 14.9382C13.2762 15.4036 13.5505 15.8467 13.8526 16.267C13.8652 16.2848 13.8879 16.2924 13.9087 16.2861C15.2161 15.8817 16.5417 15.2715 17.9103 14.2665C17.9223 14.2576 17.9298 14.2443 17.9311 14.2297C18.2647 10.7784 17.3723 7.78043 15.5655 5.12276C15.5611 5.11388 15.5535 5.10752 15.5447 5.10372ZM7.34668 12.4113C6.55833 12.4113 5.90876 11.6876 5.90876 10.7987C5.90876 9.90985 6.54574 9.18608 7.34668 9.18608C8.15392 9.18608 8.79721 9.9162 8.78459 10.7987C8.78459 11.6876 8.14761 12.4113 7.34668 12.4113ZM12.6632 12.4113C11.8748 12.4113 11.2253 11.6876 11.2253 10.7987C11.2253 9.90985 11.8622 9.18608 12.6632 9.18608C13.4704 9.18608 14.1137 9.9162 14.1011 10.7987C14.1011 11.6876 13.4704 12.4113 12.6632 12.4113Z" fill="#fff"/>
</svg>
